<?xml version="1.0" encoding="UTF-8"?><svg id="Layer_1" xmlns="http://www.w3.org/2000/svg" viewBox="0 0 1920 1080"><defs><style>.cls-1{letter-spacing:0em;}.cls-2{font-family:DINAlternate-Bold, 'DIN Alternate';font-size:28px;}.cls-3{font-family:LMRomanUnsl10-Regular, 'Latin Modern Roman Unslanted';}.cls-3,.cls-4{font-size:32px;}.cls-5,.cls-6,.cls-7,.cls-8,.cls-9,.cls-10,.cls-11{fill:none;}.cls-5,.cls-6,.cls-7,.cls-8,.cls-11{stroke-width:3px;}.cls-5,.cls-6,.cls-9,.cls-10,.cls-11{stroke-miterlimit:10;}.cls-5,.cls-9,.cls-10,.cls-11{stroke:#666;}.cls-6,.cls-8{stroke:#000;}.cls-12{fill:#666;}.cls-13{fill:#cd0000;}.cls-14{fill:#cd00cd;}.cls-15{letter-spacing:-.01em;}.cls-16{letter-spacing:-.01em;}.cls-7{stroke:#cd0000;}.cls-7,.cls-8{stroke-linejoin:round;}.cls-17{font-family:DINCondensed-Bold, 'DIN Condensed';font-size:24px;}.cls-9,.cls-10{stroke-width:2px;}.cls-10{stroke-dasharray:0 0 5.43 5.43;}.cls-18{letter-spacing:-.06em;}.cls-4{font-family:CMUSerif-UprightItalic, 'CMU Serif Upright Italic';}.cls-11{stroke-dasharray:0 0 10.35 10.35;}</style></defs><g><g><g><polyline class="cls-6" points="297.97 337.56 297.97 666.84 627.25 666.84"/><path d="M297.97,328.51c-1.58,4.26-4.28,9.54-7.13,12.82l7.13-2.58,7.13,2.58c-2.86-3.28-5.55-8.56-7.13-12.82Z"/><path d="M636.3,666.84c-4.26,1.58-9.54,4.28-12.82,7.13l2.58-7.13-2.58-7.13c3.28,2.86,8.56,5.55,12.82,7.13Z"/></g><g><line class="cls-6" x1="298.37" y1="666.54" x2="135.6" y2="829.31"/><path d="M129.2,835.71c1.89-4.13,3.72-9.77,4.02-14.11l3.22,6.87,6.87,3.22c-4.34,.3-9.98,2.13-14.11,4.02Z"/></g></g><text class="cls-4" transform="translate(636.3 695.36)"><tspan x="0" y="0">X</tspan></text><text class="cls-4" transform="translate(258.13 328.51)"><tspan x="0" y="0">Y</tspan></text><text class="cls-4" transform="translate(99.47 835.71)"><tspan x="0" y="0">Z</tspan></text><text class="cls-3" transform="translate(160.98 259.92)"><tspan x="0" y="0">Cartesian C</tspan><tspan class="cls-18" x="184.45" y="0">o</tspan><tspan x="200.45" y="0">o</tspan><tspan class="cls-18" x="218.24" y="0">r</tspan><tspan x="231.1" y="0">dinate System</tspan></text></g><g><g><g><line class="cls-8" x1="974.67" y1="192.61" x2="1790.42" y2="192.61"/><path d="M1799.48,192.61c-4.26,1.58-9.54,4.28-12.82,7.13l2.58-7.13-2.58-7.13c3.28,2.86,8.56,5.55,12.82,7.13Z"/></g><g><line class="cls-8" x1="974.67" y1="227.72" x2="1637.2" y2="227.72"/><path d="M1646.26,227.72c-4.26,1.58-9.54,4.28-12.82,7.13l2.58-7.13-2.58-7.13c3.28,2.86,8.56,5.55,12.82,7.13Z"/></g><g><line class="cls-8" x1="974.67" y1="262.82" x2="1613.91" y2="262.82"/><path d="M1622.96,262.82c-4.26,1.58-9.54,4.28-12.82,7.13l2.58-7.13-2.58-7.13c3.28,2.86,8.56,5.55,12.82,7.13Z"/></g><g><line class="cls-8" x1="974.67" y1="297.92" x2="1579.19" y2="297.92"/><path d="M1588.24,297.92c-4.26,1.58-9.54,4.28-12.82,7.13l2.58-7.13-2.58-7.13c3.28,2.86,8.56,5.55,12.82,7.13Z"/></g><g><line class="cls-8" x1="974.67" y1="333.02" x2="1545.95" y2="333.02"/><path d="M1555.01,333.02c-4.26,1.58-9.54,4.28-12.82,7.13l2.58-7.13-2.58-7.13c3.28,2.86,8.56,5.55,12.82,7.13Z"/></g><g><line class="cls-8" x1="974.67" y1="368.12" x2="1505.33" y2="368.12"/><path d="M1514.39,368.12c-4.26,1.58-9.54,4.28-12.82,7.13l2.58-7.13-2.58-7.13c3.28,2.86,8.56,5.55,12.82,7.13Z"/></g><g><line class="cls-8" x1="974.67" y1="929.76" x2="1492.21" y2="929.76"/><path d="M1501.27,929.76c-4.26,1.58-9.54,4.28-12.82,7.13l2.58-7.13-2.58-7.13c3.28,2.86,8.56,5.55,12.82,7.13Z"/></g><g><line class="cls-8" x1="974.67" y1="403.23" x2="1462.01" y2="403.23"/><path d="M1471.06,403.23c-4.26,1.58-9.54,4.28-12.82,7.13l2.58-7.13-2.58-7.13c3.28,2.86,8.56,5.55,12.82,7.13Z"/></g><g><line class="cls-8" x1="974.67" y1="438.33" x2="1444.54" y2="438.33"/><path d="M1453.59,438.33c-4.26,1.58-9.54,4.28-12.82,7.13l2.58-7.13-2.58-7.13c3.28,2.86,8.56,5.55,12.82,7.13Z"/></g><g><line class="cls-8" x1="974.67" y1="473.43" x2="1425.28" y2="473.43"/><path d="M1434.33,473.43c-4.26,1.58-9.54,4.28-12.82,7.13l2.58-7.13-2.58-7.13c3.28,2.86,8.56,5.55,12.82,7.13Z"/></g><g><line class="cls-8" x1="974.67" y1="508.53" x2="1423.49" y2="508.53"/><path d="M1432.54,508.53c-4.26,1.58-9.54,4.28-12.82,7.13l2.58-7.13-2.58-7.13c3.28,2.86,8.56,5.55,12.82,7.13Z"/></g><g><line class="cls-8" x1="974.67" y1="543.64" x2="1419.57" y2="543.64"/><path d="M1428.63,543.64c-4.26,1.58-9.54,4.28-12.82,7.13l2.58-7.13-2.58-7.13c3.28,2.86,8.56,5.55,12.82,7.13Z"/></g><g><line class="cls-8" x1="974.67" y1="578.74" x2="1356.21" y2="578.74"/><path d="M1365.27,578.74c-4.26,1.58-9.54,4.28-12.82,7.13l2.58-7.13-2.58-7.13c3.28,2.86,8.56,5.55,12.82,7.13Z"/></g><g><line class="cls-8" x1="974.67" y1="613.84" x2="1329.7" y2="613.84"/><path d="M1338.75,613.84c-4.26,1.58-9.54,4.28-12.82,7.13l2.58-7.13-2.58-7.13c3.28,2.86,8.56,5.55,12.82,7.13Z"/></g><g><line class="cls-8" x1="974.67" y1="648.94" x2="1313.35" y2="648.94"/><path d="M1322.4,648.94c-4.26,1.58-9.54,4.28-12.82,7.13l2.58-7.13-2.58-7.13c3.28,2.86,8.56,5.55,12.82,7.13Z"/></g><g><line class="cls-8" x1="974.67" y1="684.05" x2="1272.06" y2="684.05"/><path d="M1281.11,684.05c-4.26,1.58-9.54,4.28-12.82,7.13l2.58-7.13-2.58-7.13c3.28,2.86,8.56,5.55,12.82,7.13Z"/></g><g><line class="cls-8" x1="974.67" y1="719.15" x2="1240.99" y2="719.15"/><path d="M1250.04,719.15c-4.26,1.58-9.54,4.28-12.82,7.13l2.58-7.13-2.58-7.13c3.28,2.86,8.56,5.55,12.82,7.13Z"/></g><g><line class="cls-8" x1="974.67" y1="754.25" x2="1230.42" y2="754.25"/><path d="M1239.47,754.25c-4.26,1.58-9.54,4.28-12.82,7.13l2.58-7.13-2.58-7.13c3.28,2.86,8.56,5.55,12.82,7.13Z"/></g><g><line class="cls-8" x1="974.67" y1="824.46" x2="1179.37" y2="824.46"/><path d="M1188.42,824.46c-4.26,1.58-9.54,4.28-12.82,7.13l2.58-7.13-2.58-7.13c3.28,2.86,8.56,5.55,12.82,7.13Z"/></g><g><line class="cls-8" x1="974.67" y1="789.35" x2="1166.15" y2="789.35"/><path d="M1175.21,789.35c-4.26,1.58-9.54,4.28-12.82,7.13l2.58-7.13-2.58-7.13c3.28,2.86,8.56,5.55,12.82,7.13Z"/></g><g><line class="cls-8" x1="974.67" y1="894.66" x2="1139.62" y2="894.66"/><path d="M1148.67,894.66c-4.26,1.58-9.54,4.28-12.82,7.13l2.58-7.13-2.58-7.13c3.28,2.86,8.56,5.55,12.82,7.13Z"/></g><g><line class="cls-8" x1="974.67" y1="859.56" x2="1128.85" y2="859.56"/><path d="M1137.9,859.56c-4.26,1.58-9.54,4.28-12.82,7.13l2.58-7.13-2.58-7.13c3.28,2.86,8.56,5.55,12.82,7.13Z"/></g><g><g><line class="cls-8" x1="974.67" y1="157.51" x2="1810.95" y2="157.51"/><path d="M1820,157.51c-4.26,1.58-9.54,4.28-12.82,7.13l2.58-7.13-2.58-7.13c3.28,2.86,8.56,5.55,12.82,7.13Z"/></g><g><line class="cls-7" x1="983.72" y1="168.68" x2="1820" y2="168.68"/><path class="cls-13" d="M974.67,168.68c4.26,1.58,9.54,4.28,12.82,7.13l-2.58-7.13,2.58-7.13c-3.28,2.86-8.56,5.55-12.82,7.13Z"/></g></g><g><line class="cls-7" x1="983.72" y1="203.78" x2="1799.48" y2="203.78"/><path class="cls-13" d="M974.67,203.78c4.26,1.58,9.54,4.28,12.82,7.13l-2.58-7.13,2.58-7.13c-3.28,2.86-8.56,5.55-12.82,7.13Z"/></g><g><line class="cls-7" x1="983.72" y1="238.88" x2="1646.26" y2="238.88"/><path class="cls-13" d="M974.67,238.88c4.26,1.58,9.54,4.28,12.82,7.13l-2.58-7.13,2.58-7.13c-3.28,2.86-8.56,5.55-12.82,7.13Z"/></g><g><line class="cls-7" x1="983.72" y1="273.98" x2="1622.96" y2="273.98"/><path class="cls-13" d="M974.67,273.98c4.26,1.58,9.54,4.28,12.82,7.13l-2.58-7.13,2.58-7.13c-3.28,2.86-8.56,5.55-12.82,7.13Z"/></g><g><line class="cls-7" x1="983.72" y1="309.09" x2="1588.24" y2="309.09"/><path class="cls-13" d="M974.67,309.09c4.26,1.58,9.54,4.28,12.82,7.13l-2.58-7.13,2.58-7.13c-3.28,2.86-8.56,5.55-12.82,7.13Z"/></g><g><line class="cls-7" x1="983.72" y1="344.19" x2="1555.01" y2="344.19"/><path class="cls-13" d="M974.67,344.19c4.26,1.58,9.54,4.28,12.82,7.13l-2.58-7.13,2.58-7.13c-3.28,2.86-8.56,5.55-12.82,7.13Z"/></g><g><line class="cls-7" x1="983.72" y1="379.29" x2="1514.39" y2="379.29"/><path class="cls-13" d="M974.67,379.29c4.26,1.58,9.54,4.28,12.82,7.13l-2.58-7.13,2.58-7.13c-3.28,2.86-8.56,5.55-12.82,7.13Z"/></g><g><line class="cls-7" x1="983.72" y1="940.93" x2="1501.27" y2="940.93"/><path class="cls-13" d="M974.67,940.93c4.26,1.58,9.54,4.28,12.82,7.13l-2.58-7.13,2.58-7.13c-3.28,2.86-8.56,5.55-12.82,7.13Z"/></g><g><line class="cls-7" x1="983.72" y1="414.39" x2="1471.06" y2="414.39"/><path class="cls-13" d="M974.67,414.39c4.26,1.58,9.54,4.28,12.82,7.13l-2.58-7.13,2.58-7.13c-3.28,2.86-8.56,5.55-12.82,7.13Z"/></g><g><line class="cls-7" x1="983.72" y1="449.5" x2="1453.59" y2="449.5"/><path class="cls-13" d="M974.67,449.5c4.26,1.58,9.54,4.28,12.82,7.13l-2.58-7.13,2.58-7.13c-3.28,2.86-8.56,5.55-12.82,7.13Z"/></g><g><line class="cls-7" x1="983.72" y1="484.6" x2="1434.33" y2="484.6"/><path class="cls-13" d="M974.67,484.6c4.26,1.58,9.54,4.28,12.82,7.13l-2.58-7.13,2.58-7.13c-3.28,2.86-8.56,5.55-12.82,7.13Z"/></g><g><line class="cls-7" x1="983.72" y1="519.7" x2="1432.54" y2="519.7"/><path class="cls-13" d="M974.67,519.7c4.26,1.58,9.54,4.28,12.82,7.13l-2.58-7.13,2.58-7.13c-3.28,2.86-8.56,5.55-12.82,7.13Z"/></g><g><line class="cls-7" x1="983.72" y1="554.8" x2="1428.63" y2="554.8"/><path class="cls-13" d="M974.67,554.8c4.26,1.58,9.54,4.28,12.82,7.13l-2.58-7.13,2.58-7.13c-3.28,2.86-8.56,5.55-12.82,7.13Z"/></g><g><line class="cls-7" x1="983.72" y1="589.91" x2="1365.27" y2="589.91"/><path class="cls-13" d="M974.67,589.91c4.26,1.58,9.54,4.28,12.82,7.13l-2.58-7.13,2.58-7.13c-3.28,2.86-8.56,5.55-12.82,7.13Z"/></g><g><line class="cls-7" x1="983.72" y1="625.01" x2="1338.75" y2="625.01"/><path class="cls-13" d="M974.67,625.01c4.26,1.58,9.54,4.28,12.82,7.13l-2.58-7.13,2.58-7.13c-3.28,2.86-8.56,5.55-12.82,7.13Z"/></g><g><line class="cls-7" x1="983.72" y1="660.11" x2="1322.4" y2="660.11"/><path class="cls-13" d="M974.67,660.11c4.26,1.58,9.54,4.28,12.82,7.13l-2.58-7.13,2.58-7.13c-3.28,2.86-8.56,5.55-12.82,7.13Z"/></g><g><line class="cls-7" x1="983.72" y1="695.21" x2="1281.11" y2="695.21"/><path class="cls-13" d="M974.67,695.21c4.26,1.58,9.54,4.28,12.82,7.13l-2.58-7.13,2.58-7.13c-3.28,2.86-8.56,5.55-12.82,7.13Z"/></g><g><line class="cls-7" x1="983.72" y1="730.32" x2="1250.04" y2="730.32"/><path class="cls-13" d="M974.67,730.32c4.26,1.58,9.54,4.28,12.82,7.13l-2.58-7.13,2.58-7.13c-3.28,2.86-8.56,5.55-12.82,7.13Z"/></g><g><line class="cls-7" x1="983.72" y1="765.42" x2="1239.47" y2="765.42"/><path class="cls-13" d="M974.67,765.42c4.26,1.58,9.54,4.28,12.82,7.13l-2.58-7.13,2.58-7.13c-3.28,2.86-8.56,5.55-12.82,7.13Z"/></g><g><line class="cls-7" x1="983.72" y1="835.62" x2="1188.42" y2="835.62"/><path class="cls-13" d="M974.67,835.62c4.26,1.58,9.54,4.28,12.82,7.13l-2.58-7.13,2.58-7.13c-3.28,2.86-8.56,5.55-12.82,7.13Z"/></g><g><g><line class="cls-8" x1="974.67" y1="964.87" x2="1166.98" y2="964.87"/><path d="M1176.04,964.87c-4.26,1.58-9.54,4.28-12.82,7.13l2.58-7.13-2.58-7.13c3.28,2.86,8.56,5.55,12.82,7.13Z"/></g><g><line class="cls-7" x1="983.72" y1="976.03" x2="1176.04" y2="976.03"/><path class="cls-13" d="M974.67,976.03c4.26,1.58,9.54,4.28,12.82,7.13l-2.58-7.13,2.58-7.13c-3.28,2.86-8.56,5.55-12.82,7.13Z"/></g></g><g><line class="cls-7" x1="983.72" y1="800.52" x2="1175.21" y2="800.52"/><path class="cls-13" d="M974.67,800.52c4.26,1.58,9.54,4.28,12.82,7.13l-2.58-7.13,2.58-7.13c-3.28,2.86-8.56,5.55-12.82,7.13Z"/></g><g><line class="cls-7" x1="983.72" y1="905.83" x2="1148.67" y2="905.83"/><path class="cls-13" d="M974.67,905.83c4.26,1.58,9.54,4.28,12.82,7.13l-2.58-7.13,2.58-7.13c-3.28,2.86-8.56,5.55-12.82,7.13Z"/></g><g><line class="cls-7" x1="983.72" y1="870.73" x2="1137.9" y2="870.73"/><path class="cls-13" d="M974.67,870.73c4.26,1.58,9.54,4.28,12.82,7.13l-2.58-7.13,2.58-7.13c-3.28,2.86-8.56,5.55-12.82,7.13Z"/></g><text class="cls-17" transform="translate(929.32 168.68)"><tspan class="cls-15" x="0" y="0">c</tspan><tspan x="8.59" y="0">hr1</tspan></text><text class="cls-17" transform="translate(929.32 203.78)"><tspan class="cls-15" x="0" y="0">c</tspan><tspan x="8.59" y="0">hr2</tspan></text><text class="cls-17" transform="translate(929.32 238.88)"><tspan class="cls-15" x="0" y="0">c</tspan><tspan x="8.59" y="0">hr3</tspan></text><text class="cls-17" transform="translate(929.32 273.98)"><tspan class="cls-15" x="0" y="0">c</tspan><tspan x="8.59" y="0">hr4</tspan></text><text class="cls-17" transform="translate(929.32 309.09)"><tspan class="cls-15" x="0" y="0">c</tspan><tspan x="8.59" y="0">hr5</tspan></text><text class="cls-17" transform="translate(929.32 344.19)"><tspan class="cls-15" x="0" y="0">c</tspan><tspan x="8.59" y="0">hr6</tspan></text><text class="cls-17" transform="translate(929.32 379.29)"><tspan class="cls-15" x="0" y="0">c</tspan><tspan x="8.59" y="0">hr7</tspan></text><text class="cls-17" transform="translate(929.32 414.39)"><tspan class="cls-15" x="0" y="0">c</tspan><tspan x="8.59" y="0">hr8</tspan></text><text class="cls-17" transform="translate(929.32 449.5)"><tspan class="cls-15" x="0" y="0">c</tspan><tspan x="8.59" y="0">hr9</tspan></text><text class="cls-17" transform="translate(920.39 484.6)"><tspan class="cls-15" x="0" y="0">c</tspan><tspan x="8.59" y="0">hr10</tspan></text><text class="cls-17" transform="translate(920.39 519.7)"><tspan class="cls-15" x="0" y="0">c</tspan><tspan x="8.59" y="0">hr11</tspan></text><text class="cls-17" transform="translate(920.39 554.8)"><tspan class="cls-15" x="0" y="0">c</tspan><tspan x="8.59" y="0">hr12</tspan></text><text class="cls-17" transform="translate(920.39 589.91)"><tspan class="cls-15" x="0" y="0">c</tspan><tspan x="8.59" y="0">hr13</tspan></text><text class="cls-17" transform="translate(920.39 625.01)"><tspan class="cls-15" x="0" y="0">c</tspan><tspan x="8.59" y="0">hr14</tspan></text><text class="cls-17" transform="translate(920.39 660.11)"><tspan class="cls-15" x="0" y="0">c</tspan><tspan x="8.59" y="0">hr15</tspan></text><text class="cls-17" transform="translate(920.39 695.21)"><tspan class="cls-15" x="0" y="0">c</tspan><tspan x="8.59" y="0">hr16</tspan></text><text class="cls-17" transform="translate(920.39 730.32)"><tspan class="cls-15" x="0" y="0">c</tspan><tspan x="8.59" y="0">hr17</tspan></text><text class="cls-17" transform="translate(920.39 765.42)"><tspan class="cls-15" x="0" y="0">c</tspan><tspan x="8.59" y="0">hr18</tspan></text><text class="cls-17" transform="translate(920.39 800.52)"><tspan class="cls-15" x="0" y="0">c</tspan><tspan x="8.59" y="0">hr19</tspan></text><text class="cls-17" transform="translate(920.39 835.62)"><tspan class="cls-15" x="0" y="0">c</tspan><tspan x="8.59" y="0">hr20</tspan></text><text class="cls-17" transform="translate(920.39 870.72)"><tspan class="cls-15" x="0" y="0">c</tspan><tspan x="8.59" y="0">hr21</tspan></text><text class="cls-17" transform="translate(920.39 905.83)"><tspan class="cls-15" x="0" y="0">c</tspan><tspan x="8.59" y="0">hr22</tspan></text><text class="cls-17" transform="translate(928.86 940.93)"><tspan class="cls-16" x="0" y="0">c</tspan><tspan class="cls-1" x="8.59" y="0">hrX</tspan></text><text class="cls-17" transform="translate(928.94 976.03)"><tspan class="cls-15" x="0" y="0">c</tspan><tspan x="8.59" y="0">hrY</tspan></text></g><text class="cls-3" transform="translate(1154.31 123.41)"><tspan x="0" y="0">Genomic C</tspan><tspan class="cls-18" x="172.67" y="0">o</tspan><tspan x="188.67" y="0">o</tspan><tspan class="cls-18" x="206.46" y="0">r</tspan><tspan x="219.33" y="0">dinate System</tspan></text></g><g><line class="cls-5" x1="298.37" y1="665.38" x2="302.37" y2="662.38"/><line class="cls-11" x1="310.66" y1="656.19" x2="455.75" y2="547.8"/><line class="cls-5" x1="459.9" y1="544.71" x2="463.91" y2="541.71"/><path class="cls-12" d="M471.16,536.3c-2.47,3.82-5.09,9.14-6,13.39l-2.2-7.26-6.34-4.17c4.33,.33,10.18-.67,14.54-1.96Z"/></g><text class="cls-3" transform="translate(487.85 523.3)"><tspan x="0" y="0">(x,y,z)</tspan></text><circle class="cls-14" cx="1322.4" cy="929.76" r="5"/><text class="cls-2" transform="translate(1364.41 888.6)"><tspan x="0" y="0">(chrX, pos, +)</tspan></text><g><path class="cls-9" d="M1322.4,924.76c-.03-1-.06-2-.09-3"/><path class="cls-10" d="M1322.19,916.34c-.19-16.93,2.19-32.24,28.11-35.61"/><path class="cls-9" d="M1353.01,880.43c.97-.09,1.96-.16,2.99-.22"/><path class="cls-12" d="M1362.04,880.04c-2.8,1.15-6.26,3.07-8.38,5.05l1.55-4.81-1.88-4.69c2.25,1.83,5.83,3.5,8.71,4.46Z"/></g><circle class="cls-14" cx="480.7" cy="531.3" r="5"/></svg>