<?xml version="1.0" encoding="UTF-8"?><svg id="Layer_1" xmlns="http://www.w3.org/2000/svg" viewBox="0 0 671.55 523.25"><defs><style>.cls-1,.cls-2,.cls-3{fill:none;}.cls-1,.cls-2,.cls-3,.cls-4{stroke-miterlimit:10;}.cls-1,.cls-2,.cls-4{stroke-width:3px;}.cls-1,.cls-3,.cls-4{stroke:#000;}.cls-2{stroke:#bbb;}.cls-4{fill:#fff;}</style></defs><g><line class="cls-4" y1="69.83" x2="200" y2="69.83"/><line class="cls-4" x1="320.44" y1="69.88" x2="470.44" y2="69.88"/><g><polyline class="cls-1" points="320 71.33 320 61.33 300 61.33"/><polyline class="cls-1" points="300 59.83 300 69.83 280 69.83"/><polyline class="cls-1" points="280 71.33 280 61.33 260 61.33"/><polyline class="cls-1" points="260 59.83 260 69.83 240 69.83"/><polyline class="cls-1" points="240 71.33 240 61.33 220 61.33"/><polyline class="cls-1" points="220 59.83 220 69.83 200 69.83"/></g><g><polyline class="cls-1" points="650.44 60.27 660.44 60.27 670.49 70.32"/><polyline class="cls-1" points="630.44 69.88 640.44 69.88 650.49 59.83"/><polyline class="cls-1" points="610.44 60.27 620.44 60.27 630.49 70.32"/><polyline class="cls-1" points="590.44 69.88 600.44 69.88 610.49 59.83"/><polyline class="cls-1" points="570.44 60.27 580.44 60.27 590.49 70.32"/><polyline class="cls-1" points="550.44 69.88 560.44 69.88 570.49 59.83"/><polyline class="cls-1" points="530.44 60.27 540.44 60.27 550.49 70.32"/><polyline class="cls-1" points="510.44 69.88 520.44 69.88 530.49 59.83"/><polyline class="cls-1" points="490.44 60.27 500.44 60.27 510.49 70.32"/><polyline class="cls-1" points="470.44 69.88 480.44 69.88 490.49 59.83"/></g><line class="cls-4" x1=".64" y1="121.73" x2="200.64" y2="121.73"/><line class="cls-4" x1="321.08" y1="121.75" x2="471.08" y2="121.75"/><g><path class="cls-1" d="M300.64,121.75s9.22-21.11,20,0"/><path class="cls-1" d="M280.64,121.75s9.22-21.11,20,0"/><path class="cls-1" d="M260.64,121.75s9.22-21.11,20,0"/><path class="cls-1" d="M240.64,121.75s9.22-21.11,20,0"/><path class="cls-1" d="M220.64,121.75s9.22-21.11,20,0"/><path class="cls-1" d="M200.64,121.75s9.22-21.11,20,0"/></g><g><path class="cls-1" d="M649.85,121.75c14.08,0,20-18.93,20,0"/><path class="cls-1" d="M629.85,121.75c14.08,0,20-18.93,20,0"/><path class="cls-1" d="M609.85,121.75c14.08,0,20-18.93,20,0"/><path class="cls-1" d="M589.85,121.75c14.08,0,20-18.93,20,0"/><path class="cls-1" d="M569.85,121.75c14.08,0,20-18.93,20,0"/><path class="cls-1" d="M549.85,121.75c14.08,0,20-18.93,20,0"/><path class="cls-1" d="M529.85,121.75c14.08,0,20-18.93,20,0"/><path class="cls-1" d="M509.85,121.75c14.08,0,20-18.93,20,0"/><path class="cls-1" d="M489.85,121.75c14.08,0,20-18.93,20,0"/><path class="cls-1" d="M469.85,121.75c14.08,0,20-18.93,20,0"/></g><g><line class="cls-3" x1="100" y1="76.78" x2="100" y2="108.81"/><path d="M100,113.34c-.79-2.13-2.14-4.77-3.57-6.41l3.57,1.29,3.57-1.29c-1.43,1.64-2.78,4.28-3.57,6.41Z"/></g><g><line class="cls-3" x1="259.92" y1="76.78" x2="259.92" y2="108.81"/><path d="M259.92,113.34c-.79-2.13-2.14-4.77-3.57-6.41l3.57,1.29,3.57-1.29c-1.43,1.64-2.78,4.28-3.57,6.41Z"/></g><g><line class="cls-3" x1="396.08" y1="76.78" x2="396.08" y2="108.81"/><path d="M396.08,113.34c-.79-2.13-2.14-4.77-3.57-6.41l3.57,1.29,3.57-1.29c-1.43,1.64-2.78,4.28-3.57,6.41Z"/></g><g><line class="cls-3" x1="557.13" y1="76.78" x2="557.13" y2="108.81"/><path d="M557.13,113.34c-.79-2.13-2.14-4.77-3.57-6.41l3.57,1.29,3.57-1.29c-1.43,1.64-2.78,4.28-3.57,6.41Z"/></g></g><g><path d="M146.44,30.89c-3.1,0-5.98-1.48-7.99-3.78-2.23-2.52-3.31-5.79-3.31-9.11s1.08-6.62,3.31-9.11c2.02-2.34,4.9-3.78,7.99-3.78,1.22,0,2.48,.11,3.67,.4,1.22,.29,2.38,.79,3.46,1.37l-.5,2.99c-.94-.79-1.94-1.51-3.1-1.91-1.12-.43-2.34-.58-3.53-.58-2.3,0-4.39,1.26-5.83,3.1-1.66,2.12-2.41,4.82-2.41,7.52s.76,5.36,2.41,7.49c1.44,1.84,3.53,3.13,5.83,3.13,1.58,0,3.17-.25,4.64-.76v-6.12h-4.64v-2.16h7.42v9.54c-2.3,1.15-4.86,1.76-7.42,1.76Z"/><path d="M159.08,30.49V5.51h2.66V30.49h-2.66Z"/><path d="M173.34,30.85c-4.1,0-7.7-3.56-7.7-8.28s3.49-8.6,7.74-8.6,7.7,3.74,7.7,8.6-3.49,8.28-7.74,8.28Zm0-14.72c-2.27,0-4.97,1.73-4.97,6.08s2.41,6.41,5,6.41c2.41,0,4.97-1.98,4.97-6.41s-2.52-6.08-5-6.08Z"/><path d="M192.42,30.85c-1.26,0-3.02-.4-4.68-1.98v1.62h-2.74V5.51h2.66v10.65c2.23-1.8,4.54-2.02,5.58-2.02,3.35,0,5.72,3.89,5.72,8.31,0,4.9-3.13,8.39-6.55,8.39Zm-.97-14.54c-1.76,0-3.06,1.04-3.71,2.05v7.45c0,.61,.14,1.26,1.01,2.02,.65,.5,1.33,.86,2.34,.86,2.2,0,5.15-1.55,5.15-6.23s-2.59-6.16-4.79-6.16Z"/><path d="M212.04,30.49v-1.33c-1.33,1.12-3.85,1.69-5.83,1.69-3.06,0-4-2.92-4-4.5,0-1.8,1.4-3.13,3.82-3.96,2.16-.72,4.32-.83,5.94-.9v-1.48c0-2.63-1.44-3.96-3.1-3.96-2.09,0-3.74,.65-5.33,1.8l-.22-2.38c1.76-1.01,3.38-1.51,5.54-1.51,3.35,0,5.83,2.52,5.83,5.98v10.55h-2.66Zm-.07-7.16c-2.2,0-7.2,.54-7.2,2.99,0,1.33,1.33,2.38,3.28,2.38,.54,0,1.76-.11,2.74-.72,1.19-.72,1.19-1.58,1.19-2.3v-2.34Z"/><path d="M219.96,30.49V5.51h2.66V30.49h-2.66Z"/><path d="M256.24,30.49l-2.66-7.31h-10.15l-2.63,7.31h-2.66l9.07-24.98h3.17l9.07,24.98h-3.2Zm-7.74-22.39l-4.28,13.07h8.6l-4.32-13.07Z"/><path d="M263.26,30.49V5.51h2.66V30.49h-2.66Z"/><path d="M271.33,10.05v-3.1h3.1v3.1h-3.1Zm.22,20.45V14.51h2.66v15.98h-2.66Z"/><path d="M292.28,16.27c-1.33,0-2.12,.11-2.88,.18-.04-.07-.11-.14-.11-.14,.72,1.01,1.19,2.34,1.19,3.64,0,3.28-2.56,5.83-5.65,5.83-1.44,0-2.63-.61-3.24-1.04-.22,.32-.36,.54-.36,1.33,0,1.91,1.55,1.91,2.05,1.91h3.06c1.48,0,7.31,0,7.31,5.04,0,2.74-3.46,4.86-7.85,4.86s-7.81-2.2-7.81-4.82c0-1.01,.43-2.56,2.27-3.74-.4-.47-.9-1.37-.9-2.7,0-.86,.22-1.94,1.04-3.1-.79-1.08-1.19-2.27-1.19-3.56,0-3.17,2.52-5.79,5.65-5.79,.72,0,2.16,.18,3.35,1.19,2.38-1.15,4.82-1.19,5.51-1.19l.4,2.2c-.9-.07-1.73-.07-1.84-.07Zm-5.9,14.29h-3.13c-2.74,0-2.74,2.34-2.74,2.45,0,1.76,2.52,2.88,5.33,2.88s5.29-1.19,5.29-2.84c0-2.48-3.96-2.48-4.75-2.48Zm-1.55-14.43c-1.12,0-3.13,.65-3.13,3.85,0,2.74,1.58,3.82,3.17,3.82,1.12,0,3.13-.65,3.13-3.85,0-2.74-1.58-3.82-3.17-3.82Z"/><path d="M307.18,30.49v-10.58c0-1.26-.11-3.6-3.46-3.6-2.74,0-3.56,2.99-3.56,5.22v8.96h-2.74V14.33h2.56v2.45c1.37-1.73,3.1-2.63,5.11-2.63,4.36,0,4.82,3.31,4.82,5.51v10.83h-2.74Z"/><path d="M335.08,30.49v-10.58c0-1.33-.18-3.6-3.49-3.6-2.63,0-3.56,2.84-3.56,5.22v8.96h-2.74v-10.58c0-1.33-.18-3.6-3.49-3.6-2.63,0-3.56,2.84-3.56,5.22v8.96h-2.74V14.33h2.56v2.48c.61-.76,2.16-2.66,5.11-2.66,1.87,0,3.85,.65,4.5,2.92,.54-.79,2.23-2.92,5.29-2.92,4.21,0,4.86,3.02,4.86,5.51v10.83h-2.74Z"/><path d="M344.26,22.39c.07,3.82,2.45,6.3,5.22,6.3,1.08,0,3.2-.25,5.33-2.05,0,.14,.11,.97,.11,.97,0,0,.11,1.19,.11,1.33-1.98,1.44-3.96,1.91-5.62,1.91-4.18,0-7.63-3.71-7.63-8.46s3.24-8.42,7.13-8.42c1.04,0,3.56,.29,5.04,2.77,1.15,1.91,1.3,4.1,1.3,5.65h-10.98Zm4.64-6.26c-2.12,0-3.82,1.91-4.43,4.32h8.64c-.61-3.82-3.1-4.32-4.21-4.32Z"/><path d="M368.78,30.49v-10.58c0-1.26-.11-3.6-3.46-3.6-2.74,0-3.56,2.99-3.56,5.22v8.96h-2.74V14.33h2.56v2.45c1.37-1.73,3.1-2.63,5.11-2.63,4.36,0,4.82,3.31,4.82,5.51v10.83h-2.74Z"/><path d="M380.87,30.85c-2.48,0-2.95-2.48-2.95-4.57v-9.68h-2.95v-2.09h3.02v-4.57h2.48v4.57h4.97v2.09h-4.97v9.07c0,1.26,.22,2.95,1.8,2.95,.65,0,1.98-.14,3.24-1.26l.54,2.09c-1.12,.58-2.77,1.4-5.18,1.4Z"/></g><g><line class="cls-4" y1="269.83" x2="200" y2="269.83"/><line class="cls-4" x1="320.44" y1="269.88" x2="470.44" y2="269.88"/><g><polyline class="cls-1" points="320 271.33 320 261.33 300 261.33"/><polyline class="cls-1" points="300 259.83 300 269.83 280 269.83"/><polyline class="cls-1" points="280 271.33 280 261.33 260 261.33"/><polyline class="cls-1" points="260 259.83 260 269.83 240 269.83"/><polyline class="cls-1" points="240 271.33 240 261.33 220 261.33"/><polyline class="cls-1" points="220 259.83 220 269.83 200 269.83"/></g><g><polyline class="cls-2" points="650.44 260.27 660.44 260.27 670.49 270.32"/><polyline class="cls-2" points="630.44 269.88 640.44 269.88 650.49 259.83"/><polyline class="cls-2" points="610.44 260.27 620.44 260.27 630.49 270.32"/><polyline class="cls-2" points="590.44 269.88 600.44 269.88 610.49 259.83"/><polyline class="cls-2" points="570.44 260.27 580.44 260.27 590.49 270.32"/><polyline class="cls-2" points="550.44 269.88 560.44 269.88 570.49 259.83"/><polyline class="cls-2" points="530.44 260.27 540.44 260.27 550.49 270.32"/><polyline class="cls-2" points="510.44 269.88 520.44 269.88 530.49 259.83"/><polyline class="cls-2" points="490.44 260.27 500.44 260.27 510.49 270.32"/><polyline class="cls-2" points="470.44 269.88 480.44 269.88 490.49 259.83"/></g><line class="cls-4" x1=".64" y1="321.73" x2="200.64" y2="321.73"/><line class="cls-4" x1="321.08" y1="321.75" x2="471.08" y2="321.75"/><g><path class="cls-1" d="M300.64,321.75s9.22-21.11,20,0"/><path class="cls-1" d="M280.64,321.75s9.22-21.11,20,0"/><path class="cls-1" d="M260.64,321.75s9.22-21.11,20,0"/><path class="cls-1" d="M240.64,321.75s9.22-21.11,20,0"/><path class="cls-1" d="M220.64,321.75s9.22-21.11,20,0"/><path class="cls-1" d="M200.64,321.75s9.22-21.11,20,0"/></g><g><line class="cls-3" x1="100" y1="276.78" x2="100" y2="308.81"/><path d="M100,313.34c-.79-2.13-2.14-4.77-3.57-6.41l3.57,1.29,3.57-1.29c-1.43,1.64-2.78,4.28-3.57,6.41Z"/></g><g><line class="cls-3" x1="259.92" y1="276.78" x2="259.92" y2="308.81"/><path d="M259.92,313.34c-.79-2.13-2.14-4.77-3.57-6.41l3.57,1.29,3.57-1.29c-1.43,1.64-2.78,4.28-3.57,6.41Z"/></g><g><line class="cls-3" x1="396.08" y1="276.78" x2="396.08" y2="308.81"/><path d="M396.08,313.34c-.79-2.13-2.14-4.77-3.57-6.41l3.57,1.29,3.57-1.29c-1.43,1.64-2.78,4.28-3.57,6.41Z"/></g></g><g><path d="M100.89,231.25c-1.66,0-4.82-.32-8.1-2.48l.54-2.92c2.12,1.94,4.93,2.99,7.56,2.99,3.1,0,5.15-2.3,5.15-4.79,0-1.26-.54-2.41-1.15-3.06-1.15-1.19-1.66-1.33-4.72-2.09-2.3-.58-3.53-.9-5.29-2.7-.18-.18-1.73-1.84-1.73-4.39,0-3.6,3.13-7.06,7.96-7.06,3.2,0,5,.97,6.48,1.76l-.54,2.92c-1.3-1.15-2.92-2.34-5.98-2.34s-5.15,2.12-5.15,4.32c0,1.62,.97,2.52,1.44,3.02,.79,.76,1.69,.97,4.14,1.58,2.41,.61,3.74,.97,5.4,2.74,.79,.9,1.91,2.63,1.91,4.93,0,4-3.28,7.56-7.92,7.56Z"/><path d="M114.46,222.39c.07,3.82,2.45,6.3,5.22,6.3,1.08,0,3.2-.25,5.33-2.05,0,.14,.11,.97,.11,.97,0,0,.11,1.19,.11,1.33-1.98,1.44-3.96,1.91-5.62,1.91-4.18,0-7.63-3.71-7.63-8.46s3.24-8.42,7.13-8.42c1.04,0,3.56,.29,5.04,2.77,1.15,1.91,1.3,4.1,1.3,5.65h-10.98Zm4.64-6.26c-2.12,0-3.82,1.91-4.43,4.32h8.64c-.61-3.82-3.1-4.32-4.21-4.32Z"/><path d="M148.8,230.49v-10.58c0-1.33-.18-3.6-3.49-3.6-2.63,0-3.56,2.84-3.56,5.22v8.96h-2.74v-10.58c0-1.33-.18-3.6-3.49-3.6-2.63,0-3.56,2.84-3.56,5.22v8.96h-2.74v-16.16h2.56v2.48c.61-.76,2.16-2.66,5.11-2.66,1.87,0,3.85,.65,4.5,2.92,.54-.79,2.23-2.92,5.29-2.92,4.21,0,4.86,3.02,4.86,5.51v10.83h-2.74Z"/><path d="M156.9,210.05v-3.1h3.1v3.1h-3.1Zm.22,20.45v-15.98h2.66v15.98h-2.66Z"/><path d="M162.99,223.54v-2.09h9.36v2.09h-9.36Z"/><path d="M188.01,230.89c-3.1,0-5.98-1.48-7.99-3.78-2.23-2.52-3.31-5.79-3.31-9.11s1.08-6.62,3.31-9.11c2.02-2.34,4.9-3.78,7.99-3.78,1.22,0,2.48,.11,3.67,.4,1.22,.29,2.38,.79,3.46,1.37l-.5,2.99c-.94-.79-1.94-1.51-3.1-1.91-1.12-.43-2.34-.58-3.53-.58-2.3,0-4.39,1.26-5.83,3.1-1.66,2.12-2.41,4.82-2.41,7.52s.76,5.36,2.41,7.49c1.44,1.84,3.53,3.13,5.83,3.13,1.58,0,3.17-.25,4.64-.76v-6.12h-4.64v-2.16h7.42v9.54c-2.3,1.15-4.86,1.76-7.42,1.76Z"/><path d="M200.64,230.49v-24.98h2.66v24.98h-2.66Z"/><path d="M214.9,230.85c-4.1,0-7.7-3.56-7.7-8.28s3.49-8.6,7.74-8.6,7.7,3.74,7.7,8.6-3.49,8.28-7.74,8.28Zm0-14.72c-2.27,0-4.97,1.73-4.97,6.08s2.41,6.41,5,6.41c2.41,0,4.97-1.98,4.97-6.41s-2.52-6.08-5-6.08Z"/><path d="M233.98,230.85c-1.26,0-3.02-.4-4.68-1.98v1.62h-2.74v-24.98h2.66v10.65c2.23-1.8,4.54-2.02,5.58-2.02,3.35,0,5.72,3.89,5.72,8.31,0,4.9-3.13,8.39-6.55,8.39Zm-.97-14.54c-1.76,0-3.06,1.04-3.71,2.05v7.45c0,.61,.14,1.26,1.01,2.02,.65,.5,1.33,.86,2.34,.86,2.2,0,5.15-1.55,5.15-6.23s-2.59-6.16-4.79-6.16Z"/><path d="M253.6,230.49v-1.33c-1.33,1.12-3.85,1.69-5.83,1.69-3.06,0-4-2.92-4-4.5,0-1.8,1.4-3.13,3.82-3.96,2.16-.72,4.32-.83,5.94-.9v-1.48c0-2.63-1.44-3.96-3.1-3.96-2.09,0-3.74,.65-5.33,1.8l-.22-2.38c1.76-1.01,3.38-1.51,5.54-1.51,3.35,0,5.83,2.52,5.83,5.98v10.55h-2.66Zm-.07-7.16c-2.2,0-7.2,.54-7.2,2.99,0,1.33,1.33,2.38,3.28,2.38,.54,0,1.76-.11,2.74-.72,1.19-.72,1.19-1.58,1.19-2.3v-2.34Z"/><path d="M261.52,230.49v-24.98h2.66v24.98h-2.66Z"/><path d="M297.8,230.49l-2.66-7.31h-10.15l-2.63,7.31h-2.66l9.07-24.98h3.17l9.07,24.98h-3.2Zm-7.74-22.39l-4.28,13.07h8.6l-4.32-13.07Z"/><path d="M304.83,230.49v-24.98h2.66v24.98h-2.66Z"/><path d="M312.89,210.05v-3.1h3.1v3.1h-3.1Zm.22,20.45v-15.98h2.66v15.98h-2.66Z"/><path d="M333.84,216.27c-1.33,0-2.12,.11-2.88,.18-.04-.07-.11-.14-.11-.14,.72,1.01,1.19,2.34,1.19,3.64,0,3.28-2.56,5.83-5.65,5.83-1.44,0-2.63-.61-3.24-1.04-.22,.32-.36,.54-.36,1.33,0,1.91,1.55,1.91,2.05,1.91h3.06c1.48,0,7.31,0,7.31,5.04,0,2.74-3.46,4.86-7.85,4.86s-7.81-2.2-7.81-4.82c0-1.01,.43-2.56,2.27-3.74-.4-.47-.9-1.37-.9-2.7,0-.86,.22-1.94,1.04-3.1-.79-1.08-1.19-2.27-1.19-3.56,0-3.17,2.52-5.79,5.65-5.79,.72,0,2.16,.18,3.35,1.19,2.38-1.15,4.82-1.19,5.51-1.19l.4,2.2c-.9-.07-1.73-.07-1.84-.07Zm-5.9,14.29h-3.13c-2.74,0-2.74,2.34-2.74,2.45,0,1.76,2.52,2.88,5.33,2.88s5.29-1.19,5.29-2.84c0-2.48-3.96-2.48-4.75-2.48Zm-1.55-14.43c-1.12,0-3.13,.65-3.13,3.85,0,2.74,1.58,3.82,3.17,3.82,1.12,0,3.13-.65,3.13-3.85,0-2.74-1.58-3.82-3.17-3.82Z"/><path d="M348.74,230.49v-10.58c0-1.26-.11-3.6-3.46-3.6-2.74,0-3.56,2.99-3.56,5.22v8.96h-2.74v-16.16h2.56v2.45c1.37-1.73,3.1-2.63,5.11-2.63,4.36,0,4.82,3.31,4.82,5.51v10.83h-2.74Z"/><path d="M376.64,230.49v-10.58c0-1.33-.18-3.6-3.49-3.6-2.63,0-3.56,2.84-3.56,5.22v8.96h-2.74v-10.58c0-1.33-.18-3.6-3.49-3.6-2.63,0-3.56,2.84-3.56,5.22v8.96h-2.74v-16.16h2.56v2.48c.61-.76,2.16-2.66,5.11-2.66,1.87,0,3.85,.65,4.5,2.92,.54-.79,2.23-2.92,5.29-2.92,4.21,0,4.86,3.02,4.86,5.51v10.83h-2.74Z"/><path d="M385.82,222.39c.07,3.82,2.45,6.3,5.22,6.3,1.08,0,3.2-.25,5.33-2.05,0,.14,.11,.97,.11,.97,0,0,.11,1.19,.11,1.33-1.98,1.44-3.96,1.91-5.62,1.91-4.18,0-7.63-3.71-7.63-8.46s3.24-8.42,7.13-8.42c1.04,0,3.56,.29,5.04,2.77,1.15,1.91,1.3,4.1,1.3,5.65h-10.98Zm4.64-6.26c-2.12,0-3.82,1.91-4.43,4.32h8.64c-.61-3.82-3.1-4.32-4.21-4.32Z"/><path d="M410.34,230.49v-10.58c0-1.26-.11-3.6-3.46-3.6-2.74,0-3.56,2.99-3.56,5.22v8.96h-2.74v-16.16h2.56v2.45c1.37-1.73,3.1-2.63,5.11-2.63,4.36,0,4.82,3.31,4.82,5.51v10.83h-2.74Z"/><path d="M422.43,230.85c-2.48,0-2.95-2.48-2.95-4.57v-9.68h-2.95v-2.09h3.02v-4.57h2.48v4.57h4.97v2.09h-4.97v9.07c0,1.26,.22,2.95,1.8,2.95,.65,0,1.98-.14,3.24-1.26l.54,2.09c-1.12,.58-2.77,1.4-5.18,1.4Z"/></g><g><line class="cls-4" y1="469.83" x2="200" y2="469.83"/><line class="cls-4" x1="320.44" y1="469.88" x2="470.44" y2="469.88"/><g><polyline class="cls-2" points="320 471.33 320 461.33 300 461.33"/><polyline class="cls-2" points="300 459.83 300 469.83 280 469.83"/><polyline class="cls-2" points="280 471.33 280 461.33 260 461.33"/><polyline class="cls-2" points="260 459.83 260 469.83 240 469.83"/><polyline class="cls-2" points="240 471.33 240 461.33 220 461.33"/><polyline class="cls-2" points="220 459.83 220 469.83 200 469.83"/></g><g><polyline class="cls-2" points="650.44 460.27 660.44 460.27 670.49 470.32"/><polyline class="cls-2" points="630.44 469.88 640.44 469.88 650.49 459.83"/><polyline class="cls-2" points="610.44 460.27 620.44 460.27 630.49 470.32"/><polyline class="cls-2" points="590.44 469.88 600.44 469.88 610.49 459.83"/><polyline class="cls-2" points="570.44 460.27 580.44 460.27 590.49 470.32"/><polyline class="cls-2" points="550.44 469.88 560.44 469.88 570.49 459.83"/><polyline class="cls-2" points="530.44 460.27 540.44 460.27 550.49 470.32"/><polyline class="cls-2" points="510.44 469.88 520.44 469.88 530.49 459.83"/><polyline class="cls-2" points="490.44 460.27 500.44 460.27 510.49 470.32"/><polyline class="cls-2" points="470.44 469.88 480.44 469.88 490.49 459.83"/></g><line class="cls-4" x1=".64" y1="521.73" x2="200.64" y2="521.73"/><line class="cls-4" x1="321.08" y1="521.75" x2="471.08" y2="521.75"/><g><path class="cls-2" d="M300.64,521.75s9.22-21.11,20,0"/><path class="cls-2" d="M280.64,521.75s9.22-21.11,20,0"/><path class="cls-2" d="M260.64,521.75s9.22-21.11,20,0"/><path class="cls-2" d="M240.64,521.75s9.22-21.11,20,0"/><path class="cls-2" d="M220.64,521.75s9.22-21.11,20,0"/><path class="cls-2" d="M200.64,521.75s9.22-21.11,20,0"/></g><g><path class="cls-2" d="M649.85,521.75c14.08,0,20-18.93,20,0"/><path class="cls-2" d="M629.85,521.75c14.08,0,20-18.93,20,0"/><path class="cls-2" d="M609.85,521.75c14.08,0,20-18.93,20,0"/><path class="cls-2" d="M589.85,521.75c14.08,0,20-18.93,20,0"/><path class="cls-2" d="M569.85,521.75c14.08,0,20-18.93,20,0"/><path class="cls-2" d="M549.85,521.75c14.08,0,20-18.93,20,0"/><path class="cls-2" d="M529.85,521.75c14.08,0,20-18.93,20,0"/><path class="cls-2" d="M509.85,521.75c14.08,0,20-18.93,20,0"/><path class="cls-2" d="M489.85,521.75c14.08,0,20-18.93,20,0"/><path class="cls-2" d="M469.85,521.75c14.08,0,20-18.93,20,0"/></g><g><line class="cls-3" x1="100" y1="476.78" x2="100" y2="508.81"/><path d="M100,513.34c-.79-2.13-2.14-4.77-3.57-6.41l3.57,1.29,3.57-1.29c-1.43,1.64-2.78,4.28-3.57,6.41Z"/></g><g><line class="cls-3" x1="396.08" y1="476.78" x2="396.08" y2="508.81"/><path d="M396.08,513.34c-.79-2.13-2.14-4.77-3.57-6.41l3.57,1.29,3.57-1.29c-1.43,1.64-2.78,4.28-3.57,6.41Z"/></g></g><g><path d="M143.1,430.49v-24.98h3.1v22.75h1.73l9.47-.07v2.3h-14.29Z"/><path d="M167.68,430.85c-4.1,0-7.7-3.56-7.7-8.28s3.49-8.6,7.74-8.6,7.7,3.74,7.7,8.6-3.49,8.28-7.74,8.28Zm0-14.72c-2.27,0-4.97,1.73-4.97,6.08s2.41,6.41,5,6.41c2.41,0,4.97-1.98,4.97-6.41s-2.52-6.08-5-6.08Z"/><path d="M186.4,430.85c-4.32,0-7.63-3.78-7.63-8.39,0-4.1,2.81-8.5,7.77-8.5,2.12,0,3.31,.29,5.4,1.51l-.43,2.34c-1.55-1.04-2.56-1.62-4.97-1.62-3.6,0-5.04,3.28-5.04,6.26,0,3.49,1.94,6.16,4.93,6.16,2.02,0,3.85-.68,5.51-2.02l.07,1.01c.04,.14,.14,1.26,.14,1.37-1.98,1.44-4,1.87-5.76,1.87Z"/><path d="M204.94,430.49v-1.33c-1.33,1.12-3.85,1.69-5.83,1.69-3.06,0-4-2.92-4-4.5,0-1.8,1.4-3.13,3.82-3.96,2.16-.72,4.32-.83,5.94-.9v-1.48c0-2.63-1.44-3.96-3.1-3.96-2.09,0-3.74,.65-5.33,1.8l-.22-2.38c1.76-1.01,3.38-1.51,5.54-1.51,3.35,0,5.83,2.52,5.83,5.98v10.55h-2.66Zm-.07-7.16c-2.2,0-7.2,.54-7.2,2.99,0,1.33,1.33,2.38,3.28,2.38,.54,0,1.76-.11,2.74-.72,1.19-.72,1.19-1.58,1.19-2.3v-2.34Z"/><path d="M212.86,430.49v-24.98h2.66v24.98h-2.66Z"/><path d="M249.15,430.49l-2.66-7.31h-10.15l-2.63,7.31h-2.66l9.07-24.98h3.17l9.07,24.98h-3.2Zm-7.74-22.39l-4.28,13.07h8.6l-4.32-13.07Z"/><path d="M256.17,430.49v-24.98h2.66v24.98h-2.66Z"/><path d="M264.24,410.05v-3.1h3.1v3.1h-3.1Zm.22,20.45v-15.98h2.66v15.98h-2.66Z"/><path d="M285.19,416.27c-1.33,0-2.12,.11-2.88,.18-.04-.07-.11-.14-.11-.14,.72,1.01,1.19,2.34,1.19,3.64,0,3.28-2.56,5.83-5.65,5.83-1.44,0-2.63-.61-3.24-1.04-.22,.32-.36,.54-.36,1.33,0,1.91,1.55,1.91,2.05,1.91h3.06c1.48,0,7.31,0,7.31,5.04,0,2.74-3.46,4.86-7.85,4.86s-7.81-2.2-7.81-4.82c0-1.01,.43-2.56,2.27-3.74-.4-.47-.9-1.37-.9-2.7,0-.86,.22-1.94,1.04-3.1-.79-1.08-1.19-2.27-1.19-3.56,0-3.17,2.52-5.79,5.65-5.79,.72,0,2.16,.18,3.35,1.19,2.38-1.15,4.82-1.19,5.51-1.19l.4,2.2c-.9-.07-1.73-.07-1.84-.07Zm-5.9,14.29h-3.13c-2.74,0-2.74,2.34-2.74,2.45,0,1.76,2.52,2.88,5.33,2.88s5.29-1.19,5.29-2.84c0-2.48-3.96-2.48-4.75-2.48Zm-1.55-14.43c-1.12,0-3.13,.65-3.13,3.85,0,2.74,1.58,3.82,3.17,3.82,1.12,0,3.13-.65,3.13-3.85,0-2.74-1.58-3.82-3.17-3.82Z"/><path d="M300.09,430.49v-10.58c0-1.26-.11-3.6-3.46-3.6-2.74,0-3.56,2.99-3.56,5.22v8.96h-2.74v-16.16h2.56v2.45c1.37-1.73,3.1-2.63,5.11-2.63,4.36,0,4.82,3.31,4.82,5.51v10.83h-2.74Z"/><path d="M327.99,430.49v-10.58c0-1.33-.18-3.6-3.49-3.6-2.63,0-3.56,2.84-3.56,5.22v8.96h-2.74v-10.58c0-1.33-.18-3.6-3.49-3.6-2.63,0-3.56,2.84-3.56,5.22v8.96h-2.74v-16.16h2.56v2.48c.61-.76,2.16-2.66,5.11-2.66,1.87,0,3.85,.65,4.5,2.92,.54-.79,2.23-2.92,5.29-2.92,4.21,0,4.86,3.02,4.86,5.51v10.83h-2.74Z"/><path d="M337.17,422.39c.07,3.82,2.45,6.3,5.22,6.3,1.08,0,3.2-.25,5.33-2.05,0,.14,.11,.97,.11,.97,0,0,.11,1.19,.11,1.33-1.98,1.44-3.96,1.91-5.62,1.91-4.18,0-7.63-3.71-7.63-8.46s3.24-8.42,7.13-8.42c1.04,0,3.56,.29,5.04,2.77,1.15,1.91,1.3,4.1,1.3,5.65h-10.98Zm4.64-6.26c-2.12,0-3.82,1.91-4.43,4.32h8.64c-.61-3.82-3.1-4.32-4.21-4.32Z"/><path d="M361.69,430.49v-10.58c0-1.26-.11-3.6-3.46-3.6-2.74,0-3.56,2.99-3.56,5.22v8.96h-2.74v-16.16h2.56v2.45c1.37-1.73,3.1-2.63,5.11-2.63,4.36,0,4.82,3.31,4.82,5.51v10.83h-2.74Z"/><path d="M373.78,430.85c-2.48,0-2.95-2.48-2.95-4.57v-9.68h-2.95v-2.09h3.02v-4.57h2.48v4.57h4.97v2.09h-4.97v9.07c0,1.26,.22,2.95,1.8,2.95,.65,0,1.98-.14,3.24-1.26l.54,2.09c-1.12,.58-2.77,1.4-5.18,1.4Z"/></g></svg>