<?xml version="1.0" encoding="UTF-8"?><svg id="Layer_1" xmlns="http://www.w3.org/2000/svg" viewBox="0 0 1000 562.5"><defs><style>.cls-1{stroke-dasharray:0 0 4.93 4.93;}.cls-1,.cls-2,.cls-3,.cls-4,.cls-5,.cls-6,.cls-7,.cls-8{stroke-miterlimit:10;}.cls-1,.cls-2,.cls-4,.cls-6,.cls-7,.cls-8{fill:none;}.cls-1,.cls-2,.cls-7,.cls-8{stroke:#bbb;}.cls-2{stroke-dasharray:0 0 5.05 5.05;}.cls-9{fill:#999;}.cls-3{stroke-width:5px;}.cls-3,.cls-4,.cls-5,.cls-6{stroke:#000;}.cls-4,.cls-5{stroke-width:2px;}.cls-8{stroke-dasharray:0 0 4.98 4.98;}</style></defs><g><g><line class="cls-7" x1="520.81" y1="164.95" x2="522.58" y2="166.72"/><line class="cls-8" x1="526.1" y1="170.24" x2="721.49" y2="365.63"/><line class="cls-7" x1="723.25" y1="367.39" x2="725.02" y2="369.16"/></g><line class="cls-4" x1="542.71" y1="186.85" x2="709.22" y2="353.36"/><line class="cls-3" x1="563.74" y1="207.88" x2="599.09" y2="243.23"/></g><g><path d="M455.25,61.92l-5.66-10.14h-4.7v10.14h-2.62v-22.21h7.17c4.61,0,7.68,2.91,7.68,5.95,0,.61-.03,4.06-5.02,5.79l-.06,.03,5.92,10.43h-2.69Zm-6.18-20.41h-4.19v8.32h4.19c4.22,0,5.5-2.43,5.5-4.16,0-1.86-1.44-4.16-5.5-4.16Z"/><path d="M462.03,54.91c.1,3.58,2.3,5.31,4.35,5.31,1.28,0,3.04-.42,4.58-1.66,0,.13,.1,1.18,.1,1.18,0,0,.1,.74,.1,.86-1.6,1.15-3.36,1.57-4.8,1.57-3.68,0-6.59-3.23-6.59-7.2s2.82-7.2,6.14-7.2c1.38,0,3.2,.51,4.32,2.33,1.02,1.7,1.09,3.74,1.09,4.8h-9.28Zm3.87-5.18c-1.79,0-3.2,1.66-3.62,3.42h6.91c-.58-3.36-2.82-3.42-3.3-3.42Z"/><path d="M480.21,41.41c-.99,0-2.72,.38-2.72,2.66v4.1h3.3v1.86h-3.23v11.9h-2.37v-11.9h-2.21v-1.86h2.21v-3.1c0-3.17,2.08-5.6,5.06-5.6,.7,0,1.6,.1,2.34,.26v2.11c-1.15-.42-2.05-.42-2.37-.42Z"/><path d="M484.59,54.91c.1,3.58,2.3,5.31,4.35,5.31,1.28,0,3.04-.42,4.58-1.66,0,.13,.1,1.18,.1,1.18,0,0,.1,.74,.1,.86-1.6,1.15-3.36,1.57-4.8,1.57-3.68,0-6.59-3.23-6.59-7.2s2.82-7.2,6.14-7.2c1.38,0,3.2,.51,4.32,2.33,1.02,1.7,1.09,3.74,1.09,4.8h-9.28Zm3.87-5.18c-1.79,0-3.2,1.66-3.62,3.42h6.91c-.58-3.36-2.82-3.42-3.3-3.42Z"/><path d="M499.5,55.11v6.82h-2.37v-13.86h2.27v2.56c1.15-1.66,3.07-2.69,5.12-2.72v2.11c-2.82,.06-5.02,2.08-5.02,5.09Z"/><path d="M508.21,54.91c.1,3.58,2.3,5.31,4.35,5.31,1.28,0,3.04-.42,4.58-1.66,0,.13,.1,1.18,.1,1.18,0,0,.1,.74,.1,.86-1.6,1.15-3.36,1.57-4.8,1.57-3.68,0-6.59-3.23-6.59-7.2s2.82-7.2,6.14-7.2c1.38,0,3.2,.51,4.32,2.33,1.02,1.7,1.09,3.74,1.09,4.8h-9.28Zm3.87-5.18c-1.79,0-3.2,1.66-3.62,3.42h6.91c-.58-3.36-2.82-3.42-3.3-3.42Z"/><path d="M529.01,61.92v-9.09c0-1.09-.1-2.98-2.91-2.98-2.18,0-2.94,2.3-2.94,4.32v7.74h-2.43v-13.86h2.34v1.98c.9-1.09,2.24-2.14,4.29-2.14,3.62,0,4.1,2.66,4.1,4.67v9.34h-2.43Z"/><path d="M541.42,62.18c-3.74,0-6.53-3.3-6.53-7.14s2.5-7.26,6.66-7.26c.35,0,1.7,0,2.75,.38,.38,.13,1.86,.77,1.86,.99l-.35,1.98c-1.47-.99-2.46-1.34-4.22-1.34-3.2,0-4.26,2.91-4.26,5.22,0,2.98,1.63,5.15,4.13,5.15,1.73,0,3.33-.58,4.7-1.63l.19,2.11c-1.25,.83-2.78,1.54-4.93,1.54Z"/><path d="M550.45,54.91c.1,3.58,2.3,5.31,4.35,5.31,1.28,0,3.04-.42,4.58-1.66,0,.13,.1,1.18,.1,1.18,0,0,.1,.74,.1,.86-1.6,1.15-3.36,1.57-4.8,1.57-3.68,0-6.59-3.23-6.59-7.2s2.82-7.2,6.14-7.2c1.38,0,3.2,.51,4.32,2.33,1.02,1.7,1.09,3.74,1.09,4.8h-9.28Zm3.87-5.18c-1.79,0-3.2,1.66-3.62,3.42h6.91c-.58-3.36-2.82-3.42-3.3-3.42Z"/></g><g><path d="M77.49,302.8l5.18-3.65v3.14l-4,2.69c.26,.67,.51,1.63,.51,2.75,0,4.96-4.9,9.41-11.58,9.41s-11.65-4.38-11.65-9.41,4.99-9.41,11.65-9.41c2.43,0,6.72,.58,9.89,4.48Zm-19.52,4.93c0,3.49,3.71,6.78,9.63,6.78s9.57-3.33,9.57-6.78c0-.58-.1-1.12-.26-1.57l-4.45,2.94v-2.75l3.23-2.3c-2.62-2.78-6.05-3.1-8.1-3.1-5.89,0-9.63,3.26-9.63,6.78Z"/><path d="M78.67,285.91h-1.6c1.6,1.73,1.86,4.19,1.86,5.28,0,2.21-1.22,3.07-3.71,3.07h-10.3v-2.43h10.14c1.31,0,2.02-.19,2.02-2.3,0-1.82-.96-3.55-3.33-3.55h-8.83v-2.43h13.76v2.37Z"/><path d="M71.66,277.91c3.58-.1,5.31-2.3,5.31-4.35,0-1.28-.42-3.04-1.66-4.58,.13,0,1.18-.1,1.18-.1,0,0,.74-.1,.86-.1,1.15,1.6,1.57,3.36,1.57,4.8,0,3.68-3.23,6.59-7.2,6.59s-7.2-2.82-7.2-6.14c0-1.38,.51-3.2,2.33-4.32,1.7-1.02,3.74-1.09,4.8-1.09v9.28Zm-5.18-3.87c0,1.79,1.66,3.2,3.42,3.62v-6.91c-3.36,.58-3.42,2.82-3.42,3.3Z"/><path d="M71.86,262.99h6.82v2.37h-13.86v-2.27h2.56c-1.66-1.15-2.69-3.07-2.72-5.12h2.11c.06,2.82,2.08,5.02,5.09,5.02Z"/><path d="M81.23,250.23c3.94,1.47,3.94,3.07,3.94,3.87,0,.58-.1,1.38-.26,2.18l-2.11,.19c.35-1.15,.38-2.18,.38-2.3,0-.51,0-.99-1.79-1.7-.32-.16-1.76-.67-2.72-1.02l-13.76,5.66v-2.59l3.74-1.5c2.75-1.12,6.59-2.53,8.16-2.62v-.03c-1.6-.06-4.58-.99-11.9-3.71v-2.5l16.32,6.08Z"/></g><g><polyline class="cls-4" points="100 469.18 100 81.25 887.93 81.25"/><path d="M100,481.25c2.11-5.68,5.7-12.73,9.51-17.09l-9.51,3.44-9.51-3.44c3.81,4.37,7.4,11.42,9.51,17.09Z"/><path d="M900,81.25c-5.68,2.11-12.73,5.7-17.09,9.51l3.44-9.51-3.44-9.51c4.37,3.81,11.42,7.4,17.09,9.51Z"/></g><g><line class="cls-7" x1="154.96" y1="124.99" x2="156.73" y2="126.75"/><line class="cls-2" x1="160.3" y1="130.33" x2="301.41" y2="271.43"/><line class="cls-7" x1="303.2" y1="273.22" x2="304.96" y2="274.99"/></g><line class="cls-5" x1="183.9" y1="153.92" x2="289.96" y2="259.99"/><line class="cls-3" x1="201.58" y1="171.6" x2="236.93" y2="206.95"/><line class="cls-3" x1="673.87" y1="153.92" x2="709.22" y2="189.27"/><line class="cls-3" x1="463.28" y1="319.85" x2="498.63" y2="355.21"/><line class="cls-3" x1="550.75" y1="355.96" x2="586.11" y2="391.31"/><g><g><line class="cls-7" x1="201.58" y1="297.55" x2="203.34" y2="299.32"/><line class="cls-2" x1="206.92" y1="302.89" x2="348.02" y2="444"/><line class="cls-7" x1="349.81" y1="445.78" x2="351.58" y2="447.55"/></g><line class="cls-5" x1="220.9" y1="316.87" x2="326.96" y2="422.94"/><line class="cls-3" x1="241.93" y1="337.9" x2="277.28" y2="373.26"/></g><g><g><line class="cls-7" x1="351.94" y1="164.95" x2="353.71" y2="166.72"/><line class="cls-1" x1="357.19" y1="170.21" x2="481.03" y2="294.04"/><line class="cls-7" x1="482.77" y1="295.78" x2="484.54" y2="297.55"/></g><line class="cls-5" x1="391.48" y1="204.5" x2="474.97" y2="287.98"/><line class="cls-3" x1="427.92" y1="240.94" x2="463.28" y2="276.29"/></g><g><path d="M480.03,415.97c-1.9,0-2.98-.77-3.62-1.75l-1.08,1.44c-.24,.29-.26,.31-.36,.31,0,0-.24,0-.24-.22,0-.07,.05-.26,.07-.34l1.25-4.99c.1-.38,.14-.41,.41-.41,.12,0,.31,0,.31,.22l-.02,.19c-.14,.58-.19,1.22-.19,1.46,0,2.45,1.7,3.38,3.55,3.38,2.18,0,4.06-2.47,4.06-4.66,0-1.08-.43-2.02-1.44-2.35l-1.46-.43c-1.66-.48-2.09-.6-2.59-1.15-.86-.94-.91-1.92-.91-2.45,0-2.88,2.64-5.67,5.45-5.67,.43,0,2.21,0,3.1,1.7l1.08-1.44c.19-.26,.26-.26,.34-.26,0,0,.24,0,.24,.22,0,.07-.05,.26-.07,.34l-1.25,4.99c-.1,.38-.14,.41-.41,.41-.17,0-.34,0-.34-.24,0,0,0-.07,.05-.22,.1-.7,.1-1.1,.1-1.42,0-.74,0-3.43-2.88-3.43-2.02,0-3.91,2.09-3.91,4.15,0,1.8,1.13,2.14,1.9,2.35l2.33,.7c1.2,.38,2.16,1.46,2.16,3.36,0,3.12-2.69,6.19-5.59,6.19Z"/><path d="M492.23,415.71c-2.04,0-3.29-1.73-3.29-4.15,0-4.22,3.34-6.67,5.83-6.67,1.42,0,2.3,.91,2.3,1.99,0,3.02-4.51,3.02-5.35,3.02h-.86c-.24,.94-.41,1.61-.41,2.66,0,.77,.22,2.66,1.8,2.66,1.22,0,3.02-.67,4.3-2.4,.19-.22,.22-.24,.29-.24,.14,0,.34,.19,.34,.36,0,.34-1.97,2.76-4.94,2.76Zm2.52-10.34c-.43,0-2.78,.24-3.74,4.06h.5c.77,0,4.75,0,4.75-2.57,0-.82-.55-1.49-1.51-1.49Z"/><path d="M501.82,415.71c-2.04,0-3.29-1.73-3.29-4.15,0-4.22,3.34-6.67,5.83-6.67,1.42,0,2.3,.91,2.3,1.99,0,3.02-4.51,3.02-5.35,3.02h-.86c-.24,.94-.41,1.61-.41,2.66,0,.77,.22,2.66,1.8,2.66,1.22,0,3.02-.67,4.3-2.4,.19-.22,.22-.24,.29-.24,.14,0,.34,.19,.34,.36,0,.34-1.97,2.76-4.94,2.76Zm2.52-10.34c-.43,0-2.78,.24-3.74,4.06h.5c.77,0,4.75,0,4.75-2.57,0-.82-.55-1.49-1.51-1.49Z"/><path d="M517.26,414.31c-.31,.7-.79,1.39-1.73,1.39-.55,0-1.63-.24-1.9-1.7-.91,1.08-1.9,1.7-2.88,1.7-1.63,0-2.76-1.51-2.76-3.65,0-3.5,2.76-7.18,5.38-7.18,1.03,0,1.63,.7,1.97,1.46l1.42-5.71c.02-.1,.07-.29,.07-.41,0-.24,0-.46-1.2-.46-.34,0-.53,0-.53-.24,0-.43,.22-.46,.55-.48l2.4-.22c.38-.02,.55,0,.55,.22,0,.07-.05,.17-.07,.31l-3.41,13.61c-.07,.31-.19,.98-.19,1.3,0,.46,.12,.96,.65,.96,.67,0,1.13-.84,1.61-2.83,.14-.55,.17-.58,.46-.58,.1,0,.31,0,.31,.22,0,.07-.29,1.44-.7,2.28Zm-2.35-6.31l.07-.34c0-.07-.14-2.3-1.61-2.3-1.03,0-2.11,1.22-2.74,2.71-.38,.96-1.15,3.79-1.15,4.99,0,.29,.05,2.16,1.32,2.16,1.39,0,2.83-2.06,3-2.71l1.1-4.51Z"/><path d="M522.2,415.71c-1.66,0-3.02-.84-3.02-2.3,0-1.32,.94-1.42,1.13-1.42,.31,0,.74,.19,.74,.7,0,0,0,1.03-1.15,1.08,.26,1.13,1.46,1.46,2.33,1.46,2.64,0,3.22-2.11,3.22-2.76,0-1.32-1.22-1.61-1.82-1.73-1.03-.24-1.49-.36-1.9-.74-.22-.24-.67-.74-.67-1.63,0-1.03,.84-3.48,3.72-3.48,1.54,0,2.5,.91,2.5,2.02,0,.82-.41,1.25-.96,1.25-.48,0-.65-.34-.65-.6,0-.1,.05-.82,.91-.91-.17-.77-.86-1.27-1.85-1.27-1.94,0-2.47,1.63-2.47,2.26,0,1.08,.86,1.27,1.51,1.42,1.15,.26,2.86,.65,2.86,2.71,0,1.3-1.06,3.96-4.42,3.96Z"/></g><g><path d="M469.59,443.45c-.26,0-2.23-1.56-3.65-4.44-1.25-2.57-1.58-5.42-1.58-7.56,0-2.95,.55-5.52,1.78-7.94,1.18-2.35,3.14-4.08,3.46-4.08,.1,0,.22,.05,.22,.19,0,.07,0,.12-.24,.34-2.78,2.83-3.91,6.84-3.91,11.5,0,4.9,1.34,8.86,3.74,11.28,.41,.41,.41,.46,.41,.53,0,.14-.12,.19-.22,.19Z"/><path d="M481.73,436.28c-.41,.77-.98,1.39-1.87,1.39s-1.94-.58-1.94-2.28c0-.34,0-.46,.12-.94,.05-.24,.05-.36,.05-.48,0-1.61-1.85-1.99-2.42-2.06l-1.25,4.97c-.05,.17-.19,.79-.86,.79-.41,0-.62-.29-.62-.6,0-.07,.02-.12,.1-.43l3.5-14.02c.02-.1,.07-.34,.07-.43,0-.24,0-.46-1.2-.46-.34,0-.53,0-.53-.24,0-.43,.22-.46,.55-.48l2.4-.22c.38-.02,.55,0,.55,.22,0,.07-.02,.17-.07,.31l-2.47,9.89c.43-.19,.91-.38,2.26-1.99,.94-1.1,1.99-2.38,3.41-2.38,1.06,0,1.51,.72,1.51,1.34,0,.77-.55,1.22-1.1,1.22-.36,0-.74-.19-.74-.7,0-.36,.19-.96,1.01-1.08-.02-.05-.24-.31-.72-.31-1.1,0-2.06,1.01-2.93,2.06-.96,1.13-1.44,1.68-2.14,2.06,1.1,.19,3.14,.7,3.14,2.5,0,.26,0,.36-.12,.82-.22,.84-.22,.89-.22,1.42,0,.74,.29,1.01,.72,1.01,1.03,0,1.49-1.46,1.82-2.83,.14-.55,.17-.58,.46-.58,.1,0,.31,0,.31,.22,0,.12-.31,1.46-.77,2.28Z"/><path d="M482.21,432.89v-1.3h6.24v1.3h-6.24Z"/><path d="M506.19,437.38c-.67,0-1.97,0-2.59,.05v-.7c1.56,0,1.82,0,1.82-1.08v-5.64c0-1.46-.34-2.69-1.82-2.69s-3.14,1.34-3.14,3.86v4.46c0,1.08,.29,1.08,1.82,1.08v.7c-.62-.05-1.92-.05-2.62-.05s-1.97,0-2.59,.05v-.7c1.56,0,1.82,0,1.82-1.08v-5.64c0-1.46-.34-2.69-1.82-2.69s-3.14,1.34-3.14,3.86v4.46c0,1.08,.29,1.08,1.82,1.08v.7c-.62-.05-1.92-.05-2.62-.05s-1.97,0-2.59,.05v-.7c1.56,0,1.82,0,1.82-1.08v-6.5c0-1.18-.19-1.34-1.82-1.34v-.7l3.26-.26v2.47h.02c.19-.48,1.1-2.47,3.43-2.47,1.51,0,2.81,.53,3.14,2.38,.38-.94,1.39-2.38,3.38-2.38,.82,0,1.94,.14,2.64,1.08,.55,.77,.55,1.44,.55,3.67v4.42c.02,.72,.62,.72,1.82,.72v.7c-.62-.05-1.92-.05-2.62-.05Z"/><path d="M515.19,437.67c-2.66,0-5.11-2.33-5.11-5.5,0-2.98,2.11-5.45,4.85-5.45,2.9,0,4.2,2.26,4.2,4.68,0,.46-.05,.46-.58,.46h-6.65v.46c0,4.15,2.42,4.82,3.43,4.82s2.62-.55,3.24-2.57c.05-.12,.1-.24,.29-.24,.14,0,.26,.1,.26,.24,0,.5-1.08,3.1-3.94,3.1Zm-.29-10.46c-.67,0-2.79,.43-2.98,4.2h5.71c-.02-.82-.17-4.2-2.74-4.2Z"/><path d="M527.31,429.2c-.38,0-.94-.26-.94-.96,0-.65,.38-.79,.58-.89-.1-.02-.14-.02-.34-.02-1.85,0-2.81,2.18-2.81,4.51v3.77c0,.86,.05,1.13,1.8,1.13h.48v.7c-.55-.05-2.26-.05-2.9-.05-.72,0-2.04,0-2.71,.05v-.7c1.56,0,1.82,0,1.82-1.08v-6.5c0-1.18-.19-1.34-1.82-1.34v-.7l3.22-.26v2.66h.02c.14-.46,.84-2.66,2.88-2.66,1.03,0,1.68,.67,1.68,1.39,0,.65-.48,.96-.96,.96Z"/><path d="M533.93,439.37c-1.18,2.35-3.14,4.08-3.46,4.08-.1,0-.22-.05-.22-.19,0-.07,0-.12,.24-.34,2.78-2.83,3.91-6.84,3.91-11.5,0-4.9-1.34-8.86-3.74-11.28-.41-.41-.41-.46-.41-.53,0-.14,.12-.19,.22-.19,.26,0,2.23,1.56,3.65,4.44,1.34,2.78,1.58,5.76,1.58,7.58,0,2.88-.55,5.47-1.78,7.92Z"/></g><g><path class="cls-6" d="M531.52,409.87c18.73-.59,32.74-6.43,36.14-17.34"/><path d="M568.43,388.07c.39,2.24,1.23,5.08,2.34,6.95l-3.27-1.92-3.74,.62c1.7-1.35,3.51-3.7,4.68-5.65Z"/></g><g><path class="cls-6" d="M471.41,409.87c-20.28,0-30.83-43.79-3.64-66.01"/><path d="M471.41,341.17c-1.22,1.91-2.52,4.58-2.97,6.71l-1.12-3.62-3.18-2.07c2.17,.15,5.09-.36,7.26-1.02Z"/></g><g><path class="cls-6" d="M716.49,343.65c10.74-10.74-89.1-77.42-73.92-92.6"/><path class="cls-6" d="M549.97,177.13c10.74-10.74,77.42,89.1,92.6,73.92"/></g><g><path d="M658.39,246.24c-.77,0-1.58-.05-2.38-.05s-1.68,.05-2.47,.05c-.1,0-.34,0-.34-.24,0-.46,.22-.46,.55-.46,1.49-.02,1.44-.67,1.42-1.06l-.26-3.86h-5.57l-1.75,3.1c-.22,.38-.41,.7-.41,1.03,0,.46,.34,.74,.91,.79,.14,0,.34,.02,.34,.24,0,.46-.26,.46-.43,.46-.62,0-1.32-.05-1.97-.05-.6,0-1.25,.05-1.82,.05,0,0-.29,0-.29-.24,0-.41,.19-.43,.46-.46,1.2-.12,1.87-.67,2.62-1.99l7.99-14.02c.17-.29,.24-.43,.58-.43s.36,.07,.38,.58l1.06,15.07c.05,.62,.17,.79,1.34,.79,.31,0,.48,0,.48,.26,0,.43-.29,.43-.43,.43Zm-4.08-14.31l-4.56,7.99h5.11l-.55-7.99Z"/><path d="M664.89,245.26c-.34,.67-.82,1.22-1.63,1.22-1.1,0-1.92-.84-1.92-2.11,0-.36,.07-.62,.12-.84l3.02-12.1c.02-.1,.07-.34,.07-.43,0-.24,0-.46-1.2-.46-.34,0-.53,0-.53-.24,0-.43,.22-.46,.55-.48l2.4-.22c.38-.02,.55,0,.55,.22,0,.07-.05,.17-.07,.31l-3.41,13.61c-.07,.31-.19,.98-.19,1.3,0,.46,.12,.96,.65,.96,.82,0,1.22-1.44,1.54-2.62,.07-.22,.17-.58,.19-.65,.05-.14,.22-.14,.31-.14,.12,0,.31,0,.31,.24,0,.07-.34,1.63-.77,2.42Z"/><path d="M669.88,246.48c-.79,0-1.73-.5-1.73-1.9,0-.22,0-.53,.19-1.06l1.92-5.21c.17-.43,.31-.84,.31-1.46,0-.26,0-.72-.53-.72-1.39,0-2.02,2.23-2.21,3-.1,.34-.12,.41-.41,.41-.12,0-.34,0-.34-.22,0-.12,.79-3.67,3-3.67,.94,0,1.73,.65,1.73,1.87,0,.43-.05,.62-.26,1.22l-1.42,3.89c-.43,1.18-.77,2.04-.77,2.66,0,.58,.29,.7,.55,.7,1.37,0,1.99-2.16,2.21-2.98,.1-.36,.12-.43,.41-.43,.1,0,.31,0,.31,.22,0,.1-.77,3.67-2.98,3.67Zm2.21-13.51c-.46,0-.96-.31-.96-.96,0-.7,.7-1.37,1.42-1.37,.48,0,.96,.29,.96,.96,0,.72-.7,1.37-1.42,1.37Z"/><path d="M676.34,251.14c-1.85,0-2.78-.38-2.78-1.3,0-.77,.6-1.18,1.08-1.18,.55,0,.77,.38,.77,.7,0,.34-.22,.82-.74,1.03,.62,.26,1.44,.29,1.7,.29,1.94,0,2.86-1.85,3.12-2.59l.77-3.12c-.17,.17-1.25,1.27-2.52,1.27-1.58,0-2.78-1.39-2.78-3.6,0-3.5,2.78-6.98,5.33-6.98,1.1,0,1.7,.82,1.94,1.37h.02c.05-.41,.36-.91,.91-.91,.43,0,.62,.31,.62,.58,0,0,0,.12-.07,.38l-2.64,10.61c-.48,1.9-2.28,3.46-4.73,3.46Zm5.57-12.79c0-.14-.19-2.23-1.63-2.23-1.06,0-2.14,1.25-2.74,2.74-.38,.91-1.1,3.62-1.1,4.78,0,.29,.05,2.16,1.34,2.16s2.76-1.87,2.95-2.66l1.1-4.39c.05-.22,.07-.38,.07-.38Z"/><path d="M693.86,246.48c-.98,0-1.73-.72-1.73-1.87,0-.5,.1-.72,.31-1.32,.41-1.18,1.46-4.06,1.46-5.54,0-.41,0-1.61-1.1-1.61-2.3,0-3.6,3.07-3.75,3.6l-1.46,5.9c-.1,.41-.34,.84-.89,.84-.43,0-.62-.29-.62-.58,0-.1,0-.12,.1-.46l1.75-7.01c.1-.34,.19-.86,.19-1.32,0-.29,0-.98-.62-.98-.82,0-1.27,1.42-1.63,2.83-.14,.55-.17,.58-.43,.58-.22,0-.34-.05-.34-.24,0,0,.31-1.49,.77-2.38,.5-1.03,1.13-1.27,1.68-1.27,1.1,0,1.85,.86,1.92,1.94,.79-1.08,1.92-1.94,3.41-1.94,1.85,0,2.4,1.18,2.4,2.45,0,1.39-.82,3.62-1.44,5.38-.19,.48-.46,1.22-.46,1.8s.19,.72,.55,.72c1.34,0,1.99-2.16,2.21-2.98,.1-.36,.12-.43,.41-.43,.1,0,.31,0,.31,.22,0,.1-.77,3.67-3,3.67Z"/><path d="M713.06,246.48c-.98,0-1.73-.72-1.73-1.87,0-.5,.1-.72,.31-1.32,.41-1.18,1.46-4.06,1.46-5.54,0-.41,0-1.61-1.1-1.61-2.3,0-3.6,3.05-3.74,3.6l-1.46,5.9c-.1,.41-.34,.84-.89,.84-.43,0-.62-.31-.62-.58,0,0,0-.12,.07-.38l1.58-6.34c.1-.43,.19-.96,.19-1.44,0-.38,0-1.61-1.1-1.61-2.23,0-3.55,2.81-3.79,3.7-.12,.53-.26,1.03-.38,1.56l-1.1,4.44c-.17,.48-.55,.65-.84,.65-.43,0-.62-.29-.62-.58,0-.1,0-.12,.1-.46l1.75-7.01c.1-.34,.19-.86,.19-1.32,0-.29,0-.98-.62-.98-.82,0-1.27,1.42-1.63,2.83-.14,.55-.17,.58-.43,.58-.22,0-.34-.05-.34-.24,0,0,.31-1.49,.77-2.38,.5-1.03,1.13-1.27,1.68-1.27,1.1,0,1.85,.86,1.92,1.94,.86-1.2,2.04-1.94,3.43-1.94,1.15,0,2.28,.55,2.42,2.18,.86-1.32,2.06-2.18,3.55-2.18,1.85,0,2.4,1.18,2.4,2.45,0,1.39-.82,3.62-1.44,5.38-.19,.48-.46,1.22-.46,1.8s.19,.72,.55,.72c1.34,0,1.99-2.16,2.21-2.98,.1-.36,.12-.43,.41-.43,.1,0,.31,0,.31,.22,0,.1-.77,3.67-3,3.67Z"/><path d="M721.53,246.48c-2.04,0-3.29-1.73-3.29-4.15,0-4.22,3.34-6.67,5.83-6.67,1.42,0,2.3,.91,2.3,1.99,0,3.02-4.51,3.02-5.35,3.02h-.86c-.24,.94-.41,1.61-.41,2.66,0,.77,.22,2.66,1.8,2.66,1.22,0,3.02-.67,4.3-2.4,.19-.22,.22-.24,.29-.24,.14,0,.34,.19,.34,.36,0,.34-1.97,2.76-4.94,2.76Zm2.52-10.35c-.43,0-2.78,.24-3.74,4.06h.5c.77,0,4.75,0,4.75-2.57,0-.82-.55-1.49-1.51-1.49Z"/><path d="M737.06,246.48c-.98,0-1.73-.72-1.73-1.87,0-.5,.1-.72,.31-1.32,.41-1.18,1.46-4.06,1.46-5.54,0-.41,0-1.61-1.1-1.61-2.3,0-3.6,3.07-3.75,3.6l-1.46,5.9c-.1,.41-.34,.84-.89,.84-.43,0-.62-.29-.62-.58,0-.1,0-.12,.1-.46l1.75-7.01c.1-.34,.19-.86,.19-1.32,0-.29,0-.98-.62-.98-.82,0-1.27,1.42-1.63,2.83-.14,.55-.17,.58-.43,.58-.22,0-.34-.05-.34-.24,0,0,.31-1.49,.77-2.38,.5-1.03,1.13-1.27,1.68-1.27,1.1,0,1.85,.86,1.92,1.94,.79-1.08,1.92-1.94,3.41-1.94,1.85,0,2.4,1.18,2.4,2.45,0,1.39-.82,3.62-1.44,5.38-.19,.48-.46,1.22-.46,1.8s.19,.72,.55,.72c1.34,0,1.99-2.16,2.21-2.98,.1-.36,.12-.43,.41-.43,.1,0,.31,0,.31,.22,0,.1-.77,3.67-3,3.67Z"/><path d="M744.31,246.48c-1.32,0-1.97-1.01-1.97-2.11,0-.1,0-.38,.12-.86l1.73-6.91h-1.94c-.38,0-.58,0-.58-.24,0-.46,.22-.46,.65-.46h2.04l.94-3.77c.1-.36,.31-.89,.91-.89,.46,0,.62,.36,.62,.58,0,0-.02,.26-.05,.31l-.96,3.77h1.9c.41,0,.58,0,.58,.26,0,.43-.24,.43-.65,.43h-1.99l-1.8,7.18c-.1,.36-.19,.91-.19,1.27,0,.79,.34,.96,.7,.96,1.56,0,2.5-2.35,2.78-3.1,.12-.26,.14-.31,.41-.31,.1,0,.31,0,.31,.22,0,.12-1.2,3.67-3.55,3.67Z"/><path d="M762.71,252.26c-.26,0-2.23-1.56-3.65-4.44-1.25-2.57-1.58-5.42-1.58-7.56,0-2.95,.55-5.52,1.78-7.94,1.18-2.35,3.14-4.08,3.46-4.08,.1,0,.22,.05,.22,.19,0,.07,0,.12-.24,.34-2.78,2.83-3.91,6.84-3.91,11.5,0,4.9,1.34,8.86,3.74,11.28,.41,.41,.41,.46,.41,.53,0,.14-.12,.19-.22,.19Z"/><path d="M776.73,245.09c-.31,.7-.79,1.39-1.73,1.39-.84,0-1.58-.5-1.85-1.44-.77,.96-1.61,1.44-2.62,1.44-1.18,0-2.59-.58-2.59-2.74,0-.94,.31-2.16,1.08-4.3,.5-1.39,.74-2.02,.74-2.62s-.26-.7-.55-.7c-1.39,0-2.02,2.28-2.21,3-.1,.34-.12,.41-.41,.41-.12,0-.34,0-.34-.22,0-.14,.82-3.67,3-3.67,1.18,0,1.75,.91,1.75,1.87,0,.48-.12,.79-.31,1.34-.55,1.54-1.39,3.82-1.39,5.26,0,.79,.22,1.87,1.3,1.87s1.99-.84,2.47-1.85c.05-.12,.05-.38,.05-.38l1.73-6.94c.07-.34,.26-.94,.94-.94,.31,0,.6,.22,.6,.58,0,.1,0,.14-.1,.48l-1.7,6.82c-.1,.36-.19,.91-.19,1.27,0,.46,.12,.96,.65,.96,.67,0,1.13-.84,1.61-2.83,.14-.55,.17-.58,.46-.58,.1,0,.31,0,.31,.22,0,.07-.29,1.44-.7,2.28Z"/><path d="M787.63,246.48c-.98,0-1.73-.72-1.73-1.87,0-.5,.1-.72,.31-1.32,.41-1.18,1.46-4.06,1.46-5.54,0-.41,0-1.61-1.1-1.61-2.3,0-3.6,3.07-3.75,3.6l-1.46,5.9c-.1,.41-.34,.84-.89,.84-.43,0-.62-.29-.62-.58,0-.1,0-.12,.1-.46l1.75-7.01c.1-.34,.19-.86,.19-1.32,0-.29,0-.98-.62-.98-.82,0-1.27,1.42-1.63,2.83-.14,.55-.17,.58-.43,.58-.22,0-.34-.05-.34-.24,0,0,.31-1.49,.77-2.38,.5-1.03,1.13-1.27,1.68-1.27,1.1,0,1.85,.86,1.92,1.94,.79-1.08,1.92-1.94,3.41-1.94,1.85,0,2.4,1.18,2.4,2.45,0,1.39-.82,3.62-1.44,5.38-.19,.48-.46,1.22-.46,1.8s.19,.72,.55,.72c1.34,0,1.99-2.16,2.21-2.98,.1-.36,.12-.43,.41-.43,.1,0,.31,0,.31,.22,0,.1-.77,3.67-3,3.67Z"/><path d="M794.11,251.14c-1.85,0-2.78-.38-2.78-1.3,0-.77,.6-1.18,1.08-1.18,.55,0,.77,.38,.77,.7,0,.34-.22,.82-.74,1.03,.62,.26,1.44,.29,1.7,.29,1.94,0,2.86-1.85,3.12-2.59l.77-3.12c-.17,.17-1.25,1.27-2.52,1.27-1.58,0-2.78-1.39-2.78-3.6,0-3.5,2.78-6.98,5.33-6.98,1.1,0,1.7,.82,1.94,1.37h.02c.05-.41,.36-.91,.91-.91,.43,0,.62,.31,.62,.58,0,0,0,.12-.07,.38l-2.64,10.61c-.48,1.9-2.28,3.46-4.73,3.46Zm5.57-12.79c0-.14-.19-2.23-1.63-2.23-1.06,0-2.14,1.25-2.74,2.74-.38,.91-1.1,3.62-1.1,4.78,0,.29,.05,2.16,1.34,2.16s2.76-1.87,2.95-2.66l1.1-4.39c.05-.22,.07-.38,.07-.38Z"/><path d="M812.49,245.09c-.31,.7-.79,1.39-1.73,1.39-.55,0-1.63-.24-1.9-1.7-.91,1.08-1.9,1.7-2.88,1.7-1.63,0-2.76-1.51-2.76-3.65,0-3.5,2.76-7.18,5.38-7.18,.65,0,1.46,.29,1.92,1.42l.02-.02s.17-.94,.94-.94c.43,0,.62,.31,.62,.58,0,0,0,.12-.07,.38l-1.68,6.7c-.1,.36-.19,.91-.19,1.27,0,.46,.12,.96,.65,.96,.67,0,1.13-.84,1.61-2.83,.14-.55,.17-.58,.46-.58,.1,0,.31,0,.31,.22,0,.07-.29,1.44-.7,2.28Zm-2.35-6.31l.07-.34c0-.17-.17-2.3-1.61-2.3-1.03,0-2.11,1.22-2.74,2.71-.38,.96-1.15,3.79-1.15,4.99,0,.29,.05,2.16,1.32,2.16,1.39,0,2.83-2.04,2.98-2.66l1.13-4.56Z"/><path d="M819.47,246.48c-1.13,0-1.73-.84-1.97-1.44-1.13,4.42-1.15,4.58-1.15,4.8,0,.36,.62,.36,1.15,.36,.43,0,.58,0,.58,.26,0,.43-.29,.43-.43,.43-.7,0-1.46-.05-2.18-.05-.65,0-1.34,.05-1.97,.05-.12,0-.29-.05-.29-.24,0-.46,.24-.46,.5-.46,.91,0,1.08-.14,1.27-.89l2.71-10.87c.1-.36,.19-.86,.19-1.32,0-.29,0-.98-.62-.98-.82,0-1.27,1.42-1.63,2.83-.14,.55-.17,.58-.43,.58-.22,0-.34-.05-.34-.24,0,0,.31-1.49,.77-2.38,.5-1.03,1.13-1.27,1.68-1.27,.82,0,1.68,.53,1.9,1.7,.12-.17,1.37-1.7,2.88-1.7,1.66,0,2.76,1.56,2.76,3.65,0,3.48-2.76,7.18-5.38,7.18Zm3.86-8.19c0-1.27-.46-2.16-1.32-2.16-1.32,0-2.78,1.97-2.98,2.71l-1.13,4.54c-.05,.19-.07,.26-.07,.34,0,0,.14,2.28,1.63,2.28,.74,0,1.73-.67,2.57-2.35,.48-1.01,1.3-4.01,1.3-5.35Z"/><path d="M831.47,246.48c-1.13,0-1.73-.84-1.97-1.44-1.13,4.42-1.15,4.58-1.15,4.8,0,.36,.62,.36,1.15,.36,.43,0,.58,0,.58,.26,0,.43-.29,.43-.43,.43-.7,0-1.46-.05-2.18-.05-.65,0-1.34,.05-1.97,.05-.12,0-.29-.05-.29-.24,0-.46,.24-.46,.5-.46,.91,0,1.08-.14,1.27-.89l2.71-10.87c.1-.36,.19-.86,.19-1.32,0-.29,0-.98-.62-.98-.82,0-1.27,1.42-1.63,2.83-.14,.55-.17,.58-.43,.58-.22,0-.34-.05-.34-.24,0,0,.31-1.49,.77-2.38,.5-1.03,1.13-1.27,1.68-1.27,.82,0,1.68,.53,1.9,1.7,.12-.17,1.37-1.7,2.88-1.7,1.66,0,2.76,1.56,2.76,3.65,0,3.48-2.76,7.18-5.38,7.18Zm3.86-8.19c0-1.27-.46-2.16-1.32-2.16-1.32,0-2.78,1.97-2.98,2.71l-1.13,4.54c-.05,.19-.07,.26-.07,.34,0,0,.14,2.28,1.63,2.28,.74,0,1.73-.67,2.57-2.35,.48-1.01,1.3-4.01,1.3-5.35Z"/><path d="M841.7,246.48c-2.04,0-3.29-1.73-3.29-4.15,0-4.22,3.34-6.67,5.83-6.67,1.42,0,2.3,.91,2.3,1.99,0,3.02-4.51,3.02-5.35,3.02h-.86c-.24,.94-.41,1.61-.41,2.66,0,.77,.22,2.66,1.8,2.66,1.22,0,3.02-.67,4.3-2.4,.19-.22,.22-.24,.29-.24,.14,0,.34,.19,.34,.36,0,.34-1.97,2.76-4.94,2.76Zm2.52-10.35c-.43,0-2.78,.24-3.74,4.06h.5c.77,0,4.75,0,4.75-2.57,0-.82-.55-1.49-1.51-1.49Z"/><path d="M857.13,245.09c-.31,.7-.79,1.39-1.73,1.39-.55,0-1.63-.24-1.9-1.7-.91,1.08-1.9,1.7-2.88,1.7-1.63,0-2.76-1.51-2.76-3.65,0-3.5,2.76-7.18,5.38-7.18,1.03,0,1.63,.7,1.97,1.46l1.42-5.71c.02-.1,.07-.29,.07-.41,0-.24,0-.46-1.2-.46-.34,0-.53,0-.53-.24,0-.43,.22-.46,.55-.48l2.4-.22c.38-.02,.55,0,.55,.22,0,.07-.05,.17-.07,.31l-3.41,13.61c-.07,.31-.19,.98-.19,1.3,0,.46,.12,.96,.65,.96,.67,0,1.13-.84,1.61-2.83,.14-.55,.17-.58,.46-.58,.1,0,.31,0,.31,.22,0,.07-.29,1.44-.7,2.28Zm-2.35-6.31l.07-.34c0-.07-.14-2.3-1.61-2.3-1.03,0-2.11,1.22-2.74,2.71-.38,.96-1.15,3.79-1.15,4.99,0,.29,.05,2.16,1.32,2.16,1.39,0,2.83-2.06,3-2.71l1.1-4.51Z"/><path d="M862.27,248.18c-1.18,2.35-3.14,4.08-3.46,4.08-.1,0-.22-.05-.22-.19,0-.07,0-.12,.24-.34,2.78-2.83,3.91-6.84,3.91-11.5,0-4.9-1.34-8.86-3.74-11.28-.41-.41-.41-.46-.41-.53,0-.14,.12-.19,.22-.19,.26,0,2.23,1.56,3.65,4.44,1.34,2.78,1.58,5.76,1.58,7.58,0,2.88-.55,5.47-1.78,7.92Z"/></g><g><path class="cls-7" d="M394.85,199.99c6.31-6.31-20.19-18.79-13.89-25.1"/><path class="cls-7" d="M355.87,161c6.31-6.31,18.79,20.19,25.1,13.89"/></g><g><path class="cls-9" d="M397,167.95c-.77,0-1.61-.05-2.38-.05-.82,0-1.68,.05-2.47,.05-.1,0-.34,0-.34-.24,0-.22,.07-.43,.31-.46,1.06-.12,1.27-.6,1.27-.72,0-.07-.05-.24-.07-.29l-2.21-5.88-4.56,5.21c-.17,.19-.53,.6-.53,.98,0,.6,.58,.67,.77,.7,0,0,.24,.02,.24,.24,0,.46-.26,.46-.43,.46-.7,0-1.49-.05-2.21-.05-.65,0-1.37,.05-1.99,.05-.12,0-.29-.02-.29-.26,0-.41,.22-.41,.46-.43,.53-.05,1.85-.14,3.26-1.75l5.06-5.76-2.52-6.74c-.17-.46-.26-.74-1.46-.74-.41,0-.58,0-.58-.24,0-.46,.26-.46,.43-.46,.74,0,1.58,.05,2.35,.05,.82,0,1.68-.05,2.5-.05,.1,0,.34,0,.34,.24,0,.41-.22,.43-.41,.46-.53,.05-.98,.24-1.22,.7l1.94,5.23,3.72-4.22c.24-.26,.53-.65,.53-1.03,0-.29-.19-.6-.7-.67-.17-.02-.31-.02-.31-.26,0-.43,.29-.43,.43-.43l2.21,.05c.65,0,1.37-.05,1.99-.05,.07,0,.29,.02,.29,.24s-.07,.43-.26,.46c-.86,.05-2.06,.14-3.65,1.94l-4.01,4.61,2.88,7.73c.17,.48,.26,.72,1.56,.72,.24,0,.46,0,.46,.24,0,.46-.26,.46-.41,.46Z"/><path class="cls-9" d="M410.8,161.8h-9.6c-.38,0-.58,0-.58-.24s.22-.24,.58-.24h9.6c.38,0,.58,0,.58,.24s-.22,.24-.58,.24Z"/><path class="cls-9" d="M422.27,166.79c-.31,.7-.79,1.39-1.73,1.39-.55,0-1.63-.24-1.9-1.7-.91,1.08-1.9,1.7-2.88,1.7-1.63,0-2.76-1.51-2.76-3.65,0-3.5,2.76-7.18,5.38-7.18,1.03,0,1.63,.7,1.97,1.46l1.42-5.71c.02-.1,.07-.29,.07-.41,0-.24,0-.46-1.2-.46-.34,0-.53,0-.53-.24,0-.43,.22-.46,.55-.48l2.4-.22c.38-.02,.55,0,.55,.22,0,.07-.05,.17-.07,.31l-3.41,13.61c-.07,.31-.19,.98-.19,1.3,0,.46,.12,.96,.65,.96,.67,0,1.13-.84,1.61-2.83,.14-.55,.17-.58,.46-.58,.1,0,.31,0,.31,.22,0,.07-.29,1.44-.7,2.28Zm-2.35-6.31l.07-.34c0-.07-.14-2.3-1.61-2.3-1.03,0-2.11,1.22-2.74,2.71-.38,.96-1.15,3.79-1.15,4.99,0,.29,.05,2.16,1.32,2.16,1.39,0,2.83-2.06,3-2.71l1.1-4.51Z"/><path class="cls-9" d="M432.88,159.93c-.36,0-.74-.19-.74-.7,0-.6,.46-.96,.82-1.06-.53-.34-1.2-.34-1.32-.34-2.02,0-3.1,2.95-3.17,3.24l-1.56,6.26c-.1,.38-.34,.84-.89,.84-.43,0-.62-.29-.62-.58,0-.1,0-.12,.1-.46l1.75-7.01c.1-.34,.19-.86,.19-1.32,0-.29,0-.98-.62-.98-.82,0-1.27,1.42-1.63,2.83-.14,.55-.17,.58-.43,.58-.22,0-.34-.05-.34-.24,0,0,.31-1.49,.77-2.38,.5-1.03,1.13-1.27,1.68-1.27,.65,0,1.68,.36,1.9,1.78,.89-1.25,1.8-1.78,2.9-1.78,.67,0,2.3,.17,2.3,1.39,0,.86-.65,1.18-1.08,1.18Z"/><path class="cls-9" d="M437.1,168.19c-1.73,0-3.34-1.3-3.34-3.89,0-3.55,3.02-6.94,5.95-6.94,1.8,0,3.34,1.39,3.34,3.89,0,3.5-3.02,6.94-5.95,6.94Zm2.57-10.35c-.89,0-2.11,.72-3,2.26-.79,1.37-1.37,4.01-1.37,5.11,0,1.63,.82,2.5,1.82,2.5,.84,0,2.06-.6,3.05-2.3,.77-1.32,1.34-4.03,1.34-5.06,0-1.37-.62-2.5-1.85-2.5Z"/><path class="cls-9" d="M449.73,168.19c-1.13,0-1.73-.84-1.97-1.44-1.13,4.42-1.15,4.58-1.15,4.8,0,.36,.62,.36,1.15,.36,.43,0,.58,0,.58,.26,0,.43-.29,.43-.43,.43-.7,0-1.46-.05-2.18-.05-.65,0-1.34,.05-1.97,.05-.12,0-.29-.05-.29-.24,0-.46,.24-.46,.5-.46,.91,0,1.08-.14,1.27-.89l2.71-10.87c.1-.36,.19-.86,.19-1.32,0-.29,0-.98-.62-.98-.82,0-1.27,1.42-1.63,2.83-.14,.55-.17,.58-.43,.58-.22,0-.34-.05-.34-.24,0,0,.31-1.49,.77-2.38,.5-1.03,1.13-1.27,1.68-1.27,.82,0,1.68,.53,1.9,1.7,.12-.17,1.37-1.7,2.88-1.7,1.66,0,2.76,1.56,2.76,3.65,0,3.48-2.76,7.18-5.38,7.18Zm3.86-8.19c0-1.27-.46-2.16-1.32-2.16-1.32,0-2.78,1.97-2.98,2.71l-1.13,4.54c-.05,.19-.07,.26-.07,.34,0,0,.14,2.28,1.63,2.28,.74,0,1.73-.67,2.57-2.35,.48-1.01,1.3-4.01,1.3-5.35Z"/><path class="cls-9" d="M461.73,168.19c-1.13,0-1.73-.84-1.97-1.44-1.13,4.42-1.15,4.58-1.15,4.8,0,.36,.62,.36,1.15,.36,.43,0,.58,0,.58,.26,0,.43-.29,.43-.43,.43-.7,0-1.46-.05-2.18-.05-.65,0-1.34,.05-1.97,.05-.12,0-.29-.05-.29-.24,0-.46,.24-.46,.5-.46,.91,0,1.08-.14,1.27-.89l2.71-10.87c.1-.36,.19-.86,.19-1.32,0-.29,0-.98-.62-.98-.82,0-1.27,1.42-1.63,2.83-.14,.55-.17,.58-.43,.58-.22,0-.34-.05-.34-.24,0,0,.31-1.49,.77-2.38,.5-1.03,1.13-1.27,1.68-1.27,.82,0,1.68,.53,1.9,1.7,.12-.17,1.37-1.7,2.88-1.7,1.66,0,2.76,1.56,2.76,3.65,0,3.48-2.76,7.18-5.38,7.18Zm3.86-8.19c0-1.27-.46-2.16-1.32-2.16-1.32,0-2.78,1.97-2.98,2.71l-1.13,4.54c-.05,.19-.07,.26-.07,.34,0,0,.14,2.28,1.63,2.28,.74,0,1.73-.67,2.57-2.35,.48-1.01,1.3-4.01,1.3-5.35Z"/><path class="cls-9" d="M471.95,168.19c-2.04,0-3.29-1.73-3.29-4.15,0-4.22,3.34-6.67,5.83-6.67,1.42,0,2.3,.91,2.3,1.99,0,3.02-4.51,3.02-5.35,3.02h-.86c-.24,.94-.41,1.61-.41,2.66,0,.77,.22,2.66,1.8,2.66,1.22,0,3.02-.67,4.3-2.4,.19-.22,.22-.24,.29-.24,.14,0,.34,.19,.34,.36,0,.34-1.97,2.76-4.94,2.76Zm2.52-10.35c-.43,0-2.78,.24-3.74,4.06h.5c.77,0,4.75,0,4.75-2.57,0-.82-.55-1.49-1.51-1.49Z"/><path class="cls-9" d="M487.38,166.79c-.31,.7-.79,1.39-1.73,1.39-.55,0-1.63-.24-1.9-1.7-.91,1.08-1.9,1.7-2.88,1.7-1.63,0-2.76-1.51-2.76-3.65,0-3.5,2.76-7.18,5.38-7.18,1.03,0,1.63,.7,1.97,1.46l1.42-5.71c.02-.1,.07-.29,.07-.41,0-.24,0-.46-1.2-.46-.34,0-.53,0-.53-.24,0-.43,.22-.46,.55-.48l2.4-.22c.38-.02,.55,0,.55,.22,0,.07-.05,.17-.07,.31l-3.41,13.61c-.07,.31-.19,.98-.19,1.3,0,.46,.12,.96,.65,.96,.67,0,1.13-.84,1.61-2.83,.14-.55,.17-.58,.46-.58,.1,0,.31,0,.31,.22,0,.07-.29,1.44-.7,2.28Zm-2.35-6.31l.07-.34c0-.07-.14-2.3-1.61-2.3-1.03,0-2.11,1.22-2.74,2.71-.38,.96-1.15,3.79-1.15,4.99,0,.29,.05,2.16,1.32,2.16,1.39,0,2.83-2.06,3-2.71l1.1-4.51Z"/></g></svg>