<?xml version="1.0" encoding="UTF-8"?><svg id="Layer_1" xmlns="http://www.w3.org/2000/svg" viewBox="0 0 848.43 446.43"><defs><style>.cls-1,.cls-2,.cls-3,.cls-4,.cls-5,.cls-6{fill:none;stroke:#000;stroke-miterlimit:10;}.cls-1,.cls-2,.cls-3,.cls-5{stroke-width:3px;}.cls-7{fill:#bbb;}.cls-2{stroke-dasharray:0 0 5.05 5.05;}.cls-3{stroke-dasharray:0 0 4.81 4.81;}.cls-4{stroke-width:2px;}.cls-5{stroke-dasharray:0 0 5.86 5.86;}</style></defs><g><rect class="cls-7" x="237.81" y="168.8" width="106.88" height="106.88"/><rect class="cls-7" x="130.93" y="61.91" width="106.88" height="106.88" transform="translate(368.74 230.71) rotate(-180)"/></g><g><rect class="cls-7" x="529.14" y="189.24" width="116.77" height="116.77"/><rect class="cls-7" x="412.37" y="72.47" width="116.77" height="116.77" transform="translate(941.51 261.71) rotate(-180)"/></g><polyline class="cls-4" points="643.59 302.73 631.58 290.72 624.08 290.72 610.78 277.42 610.78 269.96 591.23 250.41 591.23 244.18 574.12 227.07 566.18 227.07 493.51 154.4 487.08 154.4 478.78 146.1 478.78 140.21 471.21 132.64"/><g><line x1="517.02" y1="177.91" x2="541.26" y2="202.15"/><g><line class="cls-1" x1="517.02" y1="177.91" x2="518.78" y2="179.67"/><line class="cls-5" x1="522.93" y1="183.82" x2="537.43" y2="198.32"/><line class="cls-1" x1="539.5" y1="200.39" x2="541.26" y2="202.15"/></g></g><g><path d="M403.68,27.1l-5.66-10.14h-4.7v10.14h-2.62V4.9h7.17c4.61,0,7.68,2.91,7.68,5.95,0,.61-.03,4.06-5.02,5.79l-.06,.03,5.92,10.43h-2.69Zm-6.18-20.41h-4.19V15.01h4.19c4.22,0,5.5-2.43,5.5-4.16,0-1.86-1.44-4.16-5.5-4.16Z"/><path d="M410.46,20.1c.1,3.58,2.3,5.31,4.35,5.31,1.28,0,3.04-.42,4.58-1.66,0,.13,.1,1.18,.1,1.18,0,0,.1,.74,.1,.86-1.6,1.15-3.36,1.57-4.8,1.57-3.68,0-6.59-3.23-6.59-7.2s2.82-7.2,6.14-7.2c1.38,0,3.2,.51,4.32,2.33,1.02,1.7,1.09,3.74,1.09,4.8h-9.28Zm3.87-5.18c-1.79,0-3.2,1.66-3.62,3.42h6.91c-.58-3.36-2.82-3.42-3.3-3.42Z"/><path d="M428.64,6.59c-.99,0-2.72,.38-2.72,2.66v4.1h3.3v1.86h-3.23v11.9h-2.37V15.2h-2.21v-1.86h2.21v-3.1c0-3.17,2.08-5.6,5.06-5.6,.7,0,1.6,.1,2.34,.26v2.11c-1.15-.42-2.05-.42-2.37-.42Z"/><path d="M433.02,20.1c.1,3.58,2.3,5.31,4.35,5.31,1.28,0,3.04-.42,4.58-1.66,0,.13,.1,1.18,.1,1.18,0,0,.1,.74,.1,.86-1.6,1.15-3.36,1.57-4.8,1.57-3.68,0-6.59-3.23-6.59-7.2s2.82-7.2,6.14-7.2c1.38,0,3.2,.51,4.32,2.33,1.02,1.7,1.09,3.74,1.09,4.8h-9.28Zm3.87-5.18c-1.79,0-3.2,1.66-3.62,3.42h6.91c-.58-3.36-2.82-3.42-3.3-3.42Z"/><path d="M447.94,20.29v6.82h-2.37V13.25h2.27v2.56c1.15-1.66,3.07-2.69,5.12-2.72v2.11c-2.82,.06-5.02,2.08-5.02,5.09Z"/><path d="M456.64,20.1c.1,3.58,2.3,5.31,4.35,5.31,1.28,0,3.04-.42,4.58-1.66,0,.13,.1,1.18,.1,1.18,0,0,.1,.74,.1,.86-1.6,1.15-3.36,1.57-4.8,1.57-3.68,0-6.59-3.23-6.59-7.2s2.82-7.2,6.14-7.2c1.38,0,3.2,.51,4.32,2.33,1.02,1.7,1.09,3.74,1.09,4.8h-9.28Zm3.87-5.18c-1.79,0-3.2,1.66-3.62,3.42h6.91c-.58-3.36-2.82-3.42-3.3-3.42Z"/><path d="M477.44,27.1v-9.09c0-1.09-.1-2.98-2.91-2.98-2.18,0-2.94,2.3-2.94,4.32v7.74h-2.43V13.25h2.34v1.98c.9-1.09,2.24-2.14,4.29-2.14,3.62,0,4.1,2.66,4.1,4.67v9.34h-2.43Z"/><path d="M489.85,27.36c-3.74,0-6.53-3.3-6.53-7.14s2.5-7.26,6.66-7.26c.35,0,1.7,0,2.75,.38,.38,.13,1.86,.77,1.86,.99l-.35,1.98c-1.47-.99-2.46-1.34-4.22-1.34-3.2,0-4.26,2.91-4.26,5.22,0,2.98,1.63,5.15,4.13,5.15,1.73,0,3.33-.58,4.7-1.63l.19,2.11c-1.25,.83-2.78,1.54-4.93,1.54Z"/><path d="M498.88,20.1c.1,3.58,2.3,5.31,4.35,5.31,1.28,0,3.04-.42,4.58-1.66,0,.13,.1,1.18,.1,1.18,0,0,.1,.74,.1,.86-1.6,1.15-3.36,1.57-4.8,1.57-3.68,0-6.59-3.23-6.59-7.2s2.82-7.2,6.14-7.2c1.38,0,3.2,.51,4.32,2.33,1.02,1.7,1.09,3.74,1.09,4.8h-9.28Zm3.87-5.18c-1.79,0-3.2,1.66-3.62,3.42h6.91c-.58-3.36-2.82-3.42-3.3-3.42Z"/></g><g><path d="M25.92,267.98l5.18-3.65v3.14l-4,2.69c.26,.67,.51,1.63,.51,2.75,0,4.96-4.9,9.41-11.58,9.41s-11.65-4.38-11.65-9.41,4.99-9.41,11.65-9.41c2.43,0,6.72,.58,9.89,4.48Zm-19.52,4.93c0,3.49,3.71,6.78,9.63,6.78s9.57-3.33,9.57-6.78c0-.58-.1-1.12-.26-1.57l-4.45,2.94v-2.75l3.23-2.3c-2.62-2.78-6.05-3.1-8.1-3.1-5.89,0-9.63,3.26-9.63,6.78Z"/><path d="M27.1,251.09h-1.6c1.6,1.73,1.86,4.19,1.86,5.28,0,2.21-1.22,3.07-3.71,3.07H13.34v-2.43h10.14c1.31,0,2.02-.19,2.02-2.3,0-1.82-.96-3.55-3.33-3.55H13.34v-2.43h13.76v2.37Z"/><path d="M20.1,243.09c3.58-.1,5.31-2.3,5.31-4.35,0-1.28-.42-3.04-1.66-4.58,.13,0,1.18-.1,1.18-.1,0,0,.74-.1,.86-.1,1.15,1.6,1.57,3.36,1.57,4.8,0,3.68-3.23,6.59-7.2,6.59s-7.2-2.82-7.2-6.14c0-1.38,.51-3.2,2.33-4.32,1.7-1.02,3.74-1.09,4.8-1.09v9.28Zm-5.18-3.87c0,1.79,1.66,3.2,3.42,3.62v-6.91c-3.36,.58-3.42,2.82-3.42,3.3Z"/><path d="M20.29,228.18h6.82v2.37H13.25v-2.27h2.56c-1.66-1.15-2.69-3.07-2.72-5.12h2.11c.06,2.82,2.08,5.02,5.09,5.02Z"/><path d="M29.66,215.41c3.94,1.47,3.94,3.07,3.94,3.87,0,.58-.1,1.38-.26,2.18l-2.11,.19c.35-1.15,.38-2.18,.38-2.3,0-.51,0-.99-1.79-1.7-.32-.16-1.76-.67-2.72-1.02l-13.76,5.66v-2.59l3.74-1.5c2.75-1.12,6.59-2.53,8.16-2.62v-.03c-1.6-.06-4.58-.99-11.9-3.71v-2.5l16.32,6.08Z"/></g><g><polyline class="cls-4" points="48.43 434.36 48.43 46.43 836.36 46.43"/><path d="M48.43,446.43c2.11-5.68,5.7-12.73,9.51-17.09l-9.51,3.44-9.51-3.44c3.81,4.37,7.4,11.42,9.51,17.09Z"/><path d="M848.43,46.43c-5.68,2.11-12.73,5.7-17.09,9.51l3.44-9.51-3.44-9.51c4.37,3.81,11.42,7.4,17.09,9.51Z"/></g><polyline class="cls-4" points="312.79 253.29 300.56 241.06 294.28 241.06 278.23 225.01 278.23 218.38 267 207.15 267 197.99 208.54 139.53 208.54 131.78 196.44 119.67 187.56 119.67 170.12 102.23 164.85 102.23 157.16 94.54"/><g><line x1="223.55" y1="154.53" x2="252.08" y2="183.06"/><g><line class="cls-1" x1="223.55" y1="154.53" x2="225.32" y2="156.3"/><line class="cls-2" x1="228.89" y1="159.87" x2="248.52" y2="179.51"/><line class="cls-1" x1="250.31" y1="181.29" x2="252.08" y2="183.06"/></g></g><g><path d="M428.46,381.15c-1.9,0-2.98-.77-3.62-1.75l-1.08,1.44c-.24,.29-.26,.31-.36,.31,0,0-.24,0-.24-.22,0-.07,.05-.26,.07-.34l1.25-4.99c.1-.38,.14-.41,.41-.41,.12,0,.31,0,.31,.22l-.02,.19c-.14,.58-.19,1.22-.19,1.46,0,2.45,1.7,3.38,3.55,3.38,2.18,0,4.06-2.47,4.06-4.66,0-1.08-.43-2.02-1.44-2.35l-1.46-.43c-1.66-.48-2.09-.6-2.59-1.15-.86-.94-.91-1.92-.91-2.45,0-2.88,2.64-5.67,5.45-5.67,.43,0,2.21,0,3.1,1.7l1.08-1.44c.19-.26,.26-.26,.34-.26,0,0,.24,0,.24,.22,0,.07-.05,.26-.07,.34l-1.25,4.99c-.1,.38-.14,.41-.41,.41-.17,0-.34,0-.34-.24,0,0,0-.07,.05-.22,.1-.7,.1-1.1,.1-1.42,0-.74,0-3.43-2.88-3.43-2.02,0-3.91,2.09-3.91,4.15,0,1.8,1.13,2.14,1.9,2.35l2.33,.7c1.2,.38,2.16,1.46,2.16,3.36,0,3.12-2.69,6.19-5.59,6.19Z"/><path d="M440.66,380.89c-2.04,0-3.29-1.73-3.29-4.15,0-4.22,3.34-6.67,5.83-6.67,1.42,0,2.3,.91,2.3,1.99,0,3.02-4.51,3.02-5.35,3.02h-.86c-.24,.94-.41,1.61-.41,2.66,0,.77,.22,2.66,1.8,2.66,1.22,0,3.02-.67,4.3-2.4,.19-.22,.22-.24,.29-.24,.14,0,.34,.19,.34,.36,0,.34-1.97,2.76-4.94,2.76Zm2.52-10.34c-.43,0-2.78,.24-3.74,4.06h.5c.77,0,4.75,0,4.75-2.57,0-.82-.55-1.49-1.51-1.49Z"/><path d="M450.26,380.89c-2.04,0-3.29-1.73-3.29-4.15,0-4.22,3.34-6.67,5.83-6.67,1.42,0,2.3,.91,2.3,1.99,0,3.02-4.51,3.02-5.35,3.02h-.86c-.24,.94-.41,1.61-.41,2.66,0,.77,.22,2.66,1.8,2.66,1.22,0,3.02-.67,4.3-2.4,.19-.22,.22-.24,.29-.24,.14,0,.34,.19,.34,.36,0,.34-1.97,2.76-4.94,2.76Zm2.52-10.34c-.43,0-2.78,.24-3.74,4.06h.5c.77,0,4.75,0,4.75-2.57,0-.82-.55-1.49-1.51-1.49Z"/><path d="M465.69,379.5c-.31,.7-.79,1.39-1.73,1.39-.55,0-1.63-.24-1.9-1.7-.91,1.08-1.9,1.7-2.88,1.7-1.63,0-2.76-1.51-2.76-3.65,0-3.5,2.76-7.18,5.38-7.18,1.03,0,1.63,.7,1.97,1.46l1.42-5.71c.02-.1,.07-.29,.07-.41,0-.24,0-.46-1.2-.46-.34,0-.53,0-.53-.24,0-.43,.22-.46,.55-.48l2.4-.22c.38-.02,.55,0,.55,.22,0,.07-.05,.17-.07,.31l-3.41,13.61c-.07,.31-.19,.98-.19,1.3,0,.46,.12,.96,.65,.96,.67,0,1.13-.84,1.61-2.83,.14-.55,.17-.58,.46-.58,.1,0,.31,0,.31,.22,0,.07-.29,1.44-.7,2.28Zm-2.35-6.31l.07-.34c0-.07-.14-2.3-1.61-2.3-1.03,0-2.11,1.22-2.74,2.71-.38,.96-1.15,3.79-1.15,4.99,0,.29,.05,2.16,1.32,2.16,1.39,0,2.83-2.06,3-2.71l1.1-4.51Z"/><path d="M470.63,380.89c-1.66,0-3.02-.84-3.02-2.3,0-1.32,.94-1.42,1.13-1.42,.31,0,.74,.19,.74,.7,0,0,0,1.03-1.15,1.08,.26,1.13,1.46,1.46,2.33,1.46,2.64,0,3.22-2.11,3.22-2.76,0-1.32-1.22-1.61-1.82-1.73-1.03-.24-1.49-.36-1.9-.74-.22-.24-.67-.74-.67-1.63,0-1.03,.84-3.48,3.72-3.48,1.54,0,2.5,.91,2.5,2.02,0,.82-.41,1.25-.96,1.25-.48,0-.65-.34-.65-.6,0-.1,.05-.82,.91-.91-.17-.77-.86-1.27-1.85-1.27-1.94,0-2.47,1.63-2.47,2.26,0,1.08,.86,1.27,1.51,1.42,1.15,.26,2.86,.65,2.86,2.71,0,1.3-1.06,3.96-4.42,3.96Z"/></g><g><path d="M216.29,351.7c-1.49,0-1.63,.19-1.85,1.01l-3.31,13.23s-.05,.17-.05,.36c0,.22,0,.41,1.34,.41,.36,0,.55,0,.55,.24,0,.46-.26,.46-.46,.46-.84,0-1.78-.05-2.64-.05s-1.75,.05-2.59,.05c-.1,0-.34,0-.34-.24,0-.46,.22-.46,.65-.46,1.46,0,1.61-.19,1.82-1.03l1.61-6.46h-6.6l-1.7,6.72-.05,.36c0,.22,0,.41,1.34,.41,.36,0,.55,0,.55,.24,0,.46-.26,.46-.46,.46-.84,0-1.78-.05-2.64-.05s-1.75,.05-2.59,.05c-.1,0-.34,0-.34-.24,0-.46,.22-.46,.65-.46,1.46,0,1.61-.19,1.82-1.03l3.29-13.23c.05-.14,.05-.22,.05-.36,0-.38-.67-.38-1.27-.38-.46,0-.62,0-.62-.24,0-.46,.26-.46,.46-.46,.86,0,1.78,.05,2.67,.05s1.75-.05,2.59-.05c.12,0,.34,0,.34,.26,0,.43-.22,.43-.62,.43-1.49,0-1.63,.19-1.85,1.01l-1.44,5.81h6.6l1.51-6.07c.05-.14,.05-.22,.05-.36,0-.38-.67-.38-1.27-.38-.46,0-.62,0-.62-.24,0-.46,.26-.46,.46-.46,.86,0,1.78,.05,2.66,.05s1.75-.05,2.59-.05c.12,0,.34,0,.34,.26,0,.43-.22,.43-.62,.43Z"/><path d="M221.45,367.9c-1.9,0-2.98-.77-3.62-1.75l-1.08,1.44c-.24,.29-.26,.31-.36,.31,0,0-.24,0-.24-.21,0-.07,.05-.26,.07-.34l1.25-4.99c.1-.38,.14-.41,.41-.41,.12,0,.31,0,.31,.21l-.02,.19c-.14,.58-.19,1.22-.19,1.46,0,2.45,1.7,3.38,3.55,3.38,2.18,0,4.06-2.47,4.06-4.66,0-1.08-.43-2.02-1.44-2.35l-1.46-.43c-1.66-.48-2.09-.6-2.59-1.15-.86-.94-.91-1.92-.91-2.45,0-2.88,2.64-5.66,5.45-5.66,.43,0,2.21,0,3.1,1.7l1.08-1.44c.19-.26,.26-.26,.34-.26,0,0,.24,0,.24,.21,0,.07-.05,.26-.07,.34l-1.25,4.99c-.1,.38-.14,.41-.41,.41-.17,0-.34,0-.34-.24,0,0,0-.07,.05-.22,.1-.7,.1-1.1,.1-1.42,0-.74,0-3.43-2.88-3.43-2.02,0-3.91,2.09-3.91,4.15,0,1.8,1.13,2.14,1.9,2.35l2.33,.7c1.2,.38,2.16,1.46,2.16,3.36,0,3.12-2.69,6.19-5.59,6.19Z"/><path d="M238.64,359.76h-3.67l-1.56,6.17-.05,.36c0,.22,0,.41,1.34,.41,.36,0,.55,0,.55,.24,0,.46-.26,.46-.46,.46-.84,0-1.78-.05-2.64-.05s-1.75,.05-2.59,.05c-.1,0-.34,0-.34-.24,0-.46,.22-.46,.65-.46,1.46,0,1.61-.19,1.82-1.03l3.29-13.23c.05-.14,.05-.22,.05-.36,0-.38-.67-.38-1.27-.38-.46,0-.62,0-.62-.24,0-.46,.22-.46,.65-.46h6.86c2.57,0,4.15,1.51,4.15,3.5,0,2.83-3.17,5.26-6.17,5.26Zm1.32-8.06h-2.09c-.79,0-.96,0-1.18,.91l-1.63,6.58h3.02c2.18,0,3.24-1.15,3.34-1.22,1.22-1.34,1.44-3.6,1.44-4.03,0-1.44-.94-2.23-2.9-2.23Z"/></g><g><path d="M418.02,408.63c-.26,0-2.23-1.56-3.65-4.44-1.25-2.57-1.58-5.42-1.58-7.56,0-2.95,.55-5.52,1.78-7.94,1.18-2.35,3.14-4.08,3.46-4.08,.1,0,.22,.05,.22,.19,0,.07,0,.12-.24,.34-2.78,2.83-3.91,6.84-3.91,11.5,0,4.9,1.34,8.86,3.74,11.28,.41,.41,.41,.46,.41,.53,0,.14-.12,.19-.22,.19Z"/><path d="M430.17,401.46c-.41,.77-.98,1.39-1.87,1.39s-1.94-.58-1.94-2.28c0-.34,0-.46,.12-.94,.05-.24,.05-.36,.05-.48,0-1.61-1.85-1.99-2.42-2.06l-1.25,4.97c-.05,.17-.19,.79-.86,.79-.41,0-.62-.29-.62-.6,0-.07,.02-.12,.1-.43l3.5-14.02c.02-.1,.07-.34,.07-.43,0-.24,0-.46-1.2-.46-.34,0-.53,0-.53-.24,0-.43,.22-.46,.55-.48l2.4-.22c.38-.02,.55,0,.55,.22,0,.07-.02,.17-.07,.31l-2.47,9.89c.43-.19,.91-.38,2.26-1.99,.94-1.1,1.99-2.38,3.41-2.38,1.06,0,1.51,.72,1.51,1.34,0,.77-.55,1.22-1.1,1.22-.36,0-.74-.19-.74-.7,0-.36,.19-.96,1.01-1.08-.02-.05-.24-.31-.72-.31-1.1,0-2.06,1.01-2.93,2.06-.96,1.13-1.44,1.68-2.14,2.06,1.1,.19,3.14,.7,3.14,2.5,0,.26,0,.36-.12,.82-.22,.84-.22,.89-.22,1.42,0,.74,.29,1.01,.72,1.01,1.03,0,1.49-1.46,1.82-2.83,.14-.55,.17-.58,.46-.58,.1,0,.31,0,.31,.22,0,.12-.31,1.46-.77,2.28Z"/><path d="M430.64,398.07v-1.3h6.24v1.3h-6.24Z"/><path d="M454.62,402.56c-.67,0-1.97,0-2.59,.05v-.7c1.56,0,1.82,0,1.82-1.08v-5.64c0-1.46-.34-2.69-1.82-2.69s-3.14,1.34-3.14,3.86v4.46c0,1.08,.29,1.08,1.82,1.08v.7c-.62-.05-1.92-.05-2.62-.05s-1.97,0-2.59,.05v-.7c1.56,0,1.82,0,1.82-1.08v-5.64c0-1.46-.34-2.69-1.82-2.69s-3.14,1.34-3.14,3.86v4.46c0,1.08,.29,1.08,1.82,1.08v.7c-.62-.05-1.92-.05-2.62-.05s-1.97,0-2.59,.05v-.7c1.56,0,1.82,0,1.82-1.08v-6.5c0-1.18-.19-1.34-1.82-1.34v-.7l3.26-.26v2.47h.02c.19-.48,1.1-2.47,3.43-2.47,1.51,0,2.81,.53,3.14,2.38,.38-.94,1.39-2.38,3.38-2.38,.82,0,1.94,.14,2.64,1.08,.55,.77,.55,1.44,.55,3.67v4.42c.02,.72,.62,.72,1.82,.72v.7c-.62-.05-1.92-.05-2.62-.05Z"/><path d="M463.62,402.85c-2.66,0-5.11-2.33-5.11-5.5,0-2.98,2.11-5.45,4.85-5.45,2.9,0,4.2,2.26,4.2,4.68,0,.46-.05,.46-.58,.46h-6.65v.46c0,4.15,2.42,4.82,3.43,4.82s2.62-.55,3.24-2.57c.05-.12,.1-.24,.29-.24,.14,0,.26,.1,.26,.24,0,.5-1.08,3.1-3.94,3.1Zm-.29-10.46c-.67,0-2.79,.43-2.98,4.2h5.71c-.02-.82-.17-4.2-2.74-4.2Z"/><path d="M475.74,394.38c-.38,0-.94-.26-.94-.96,0-.65,.38-.79,.58-.89-.1-.02-.14-.02-.34-.02-1.85,0-2.81,2.18-2.81,4.51v3.77c0,.86,.05,1.13,1.8,1.13h.48v.7c-.55-.05-2.26-.05-2.9-.05-.72,0-2.04,0-2.71,.05v-.7c1.56,0,1.82,0,1.82-1.08v-6.5c0-1.18-.19-1.34-1.82-1.34v-.7l3.22-.26v2.66h.02c.14-.46,.84-2.66,2.88-2.66,1.03,0,1.68,.67,1.68,1.39,0,.65-.48,.96-.96,.96Z"/><path d="M482.36,404.55c-1.18,2.35-3.14,4.08-3.46,4.08-.1,0-.22-.05-.22-.19,0-.07,0-.12,.24-.34,2.78-2.83,3.91-6.84,3.91-11.5,0-4.9-1.34-8.86-3.74-11.28-.41-.41-.41-.46-.41-.53,0-.14,.12-.19,.22-.19,.26,0,2.23,1.56,3.65,4.44,1.34,2.78,1.58,5.76,1.58,7.58,0,2.88-.55,5.47-1.78,7.92Z"/></g><g><path class="cls-6" d="M479.95,375.05c18.73-.59,32.74-6.43,36.14-17.34"/><path d="M516.86,353.25c.39,2.24,1.23,5.08,2.34,6.95l-3.27-1.92-3.74,.62c1.7-1.35,3.51-3.7,4.68-5.65Z"/></g><g><path class="cls-6" d="M419.84,375.05c-20.28,0-30.83-43.79-3.64-66.01"/><path d="M419.84,306.35c-1.22,1.91-2.52,4.58-2.97,6.71l-1.12-3.62-3.18-2.07c2.17,.15,5.09-.36,7.26-1.02Z"/></g><g><path d="M552.08,173.06c-.77,0-1.58-.05-2.38-.05s-1.68,.05-2.47,.05c-.1,0-.34,0-.34-.24,0-.46,.22-.46,.55-.46,1.49-.02,1.44-.67,1.42-1.06l-.26-3.86h-5.57l-1.75,3.1c-.22,.38-.41,.7-.41,1.03,0,.46,.34,.74,.91,.79,.14,0,.34,.02,.34,.24,0,.46-.26,.46-.43,.46-.62,0-1.32-.05-1.97-.05-.6,0-1.25,.05-1.82,.05,0,0-.29,0-.29-.24,0-.41,.19-.43,.46-.46,1.2-.12,1.87-.67,2.62-1.99l7.99-14.02c.17-.29,.24-.43,.58-.43s.36,.07,.38,.58l1.06,15.07c.05,.62,.17,.79,1.34,.79,.31,0,.48,0,.48,.26,0,.43-.29,.43-.43,.43Zm-4.08-14.31l-4.56,7.99h5.11l-.55-7.99Z"/><path d="M558.58,172.08c-.34,.67-.82,1.22-1.63,1.22-1.1,0-1.92-.84-1.92-2.11,0-.36,.07-.62,.12-.84l3.02-12.1c.02-.1,.07-.34,.07-.43,0-.24,0-.46-1.2-.46-.34,0-.53,0-.53-.24,0-.43,.22-.46,.55-.48l2.4-.22c.38-.02,.55,0,.55,.22,0,.07-.05,.17-.07,.31l-3.41,13.61c-.07,.31-.19,.98-.19,1.3,0,.46,.12,.96,.65,.96,.82,0,1.22-1.44,1.54-2.62,.07-.22,.17-.58,.19-.65,.05-.14,.22-.14,.31-.14,.12,0,.31,0,.31,.24,0,.07-.34,1.63-.77,2.42Z"/><path d="M563.58,173.3c-.79,0-1.73-.5-1.73-1.9,0-.22,0-.53,.19-1.06l1.92-5.21c.17-.43,.31-.84,.31-1.46,0-.26,0-.72-.53-.72-1.39,0-2.02,2.23-2.21,3-.1,.34-.12,.41-.41,.41-.12,0-.34,0-.34-.22,0-.12,.79-3.67,3-3.67,.94,0,1.73,.65,1.73,1.87,0,.43-.05,.62-.26,1.22l-1.42,3.89c-.43,1.18-.77,2.04-.77,2.66,0,.58,.29,.7,.55,.7,1.37,0,1.99-2.16,2.21-2.98,.1-.36,.12-.43,.41-.43,.1,0,.31,0,.31,.22,0,.1-.77,3.67-2.98,3.67Zm2.21-13.51c-.46,0-.96-.31-.96-.96,0-.7,.7-1.37,1.42-1.37,.48,0,.96,.29,.96,.96,0,.72-.7,1.37-1.42,1.37Z"/><path d="M570.03,177.96c-1.85,0-2.78-.38-2.78-1.3,0-.77,.6-1.18,1.08-1.18,.55,0,.77,.38,.77,.7,0,.34-.22,.82-.74,1.03,.62,.26,1.44,.29,1.7,.29,1.94,0,2.86-1.85,3.12-2.59l.77-3.12c-.17,.17-1.25,1.27-2.52,1.27-1.58,0-2.78-1.39-2.78-3.6,0-3.5,2.78-6.98,5.33-6.98,1.1,0,1.7,.82,1.94,1.37h.02c.05-.41,.36-.91,.91-.91,.43,0,.62,.31,.62,.58,0,0,0,.12-.07,.38l-2.64,10.61c-.48,1.9-2.28,3.46-4.73,3.46Zm5.57-12.79c0-.14-.19-2.23-1.63-2.23-1.06,0-2.14,1.25-2.74,2.74-.38,.91-1.1,3.62-1.1,4.78,0,.29,.05,2.16,1.34,2.16s2.76-1.87,2.95-2.66l1.1-4.39c.05-.22,.07-.38,.07-.38Z"/><path d="M587.55,173.3c-.98,0-1.73-.72-1.73-1.87,0-.5,.1-.72,.31-1.32,.41-1.18,1.46-4.06,1.46-5.54,0-.41,0-1.61-1.1-1.61-2.3,0-3.6,3.07-3.75,3.6l-1.46,5.9c-.1,.41-.34,.84-.89,.84-.43,0-.62-.29-.62-.58,0-.1,0-.12,.1-.46l1.75-7.01c.1-.34,.19-.86,.19-1.32,0-.29,0-.98-.62-.98-.82,0-1.27,1.42-1.63,2.83-.14,.55-.17,.58-.43,.58-.22,0-.34-.05-.34-.24,0,0,.31-1.49,.77-2.38,.5-1.03,1.13-1.27,1.68-1.27,1.1,0,1.85,.86,1.92,1.94,.79-1.08,1.92-1.94,3.41-1.94,1.85,0,2.4,1.18,2.4,2.45,0,1.39-.82,3.62-1.44,5.38-.19,.48-.46,1.22-.46,1.8s.19,.72,.55,.72c1.34,0,1.99-2.16,2.21-2.98,.1-.36,.12-.43,.41-.43,.1,0,.31,0,.31,.22,0,.1-.77,3.67-3,3.67Z"/><path d="M606.75,173.3c-.98,0-1.73-.72-1.73-1.87,0-.5,.1-.72,.31-1.32,.41-1.18,1.46-4.06,1.46-5.54,0-.41,0-1.61-1.1-1.61-2.3,0-3.6,3.05-3.74,3.6l-1.46,5.9c-.1,.41-.34,.84-.89,.84-.43,0-.62-.31-.62-.58,0,0,0-.12,.07-.38l1.58-6.34c.1-.43,.19-.96,.19-1.44,0-.38,0-1.61-1.1-1.61-2.23,0-3.55,2.81-3.79,3.7-.12,.53-.26,1.03-.38,1.56l-1.1,4.44c-.17,.48-.55,.65-.84,.65-.43,0-.62-.29-.62-.58,0-.1,0-.12,.1-.46l1.75-7.01c.1-.34,.19-.86,.19-1.32,0-.29,0-.98-.62-.98-.82,0-1.27,1.42-1.63,2.83-.14,.55-.17,.58-.43,.58-.22,0-.34-.05-.34-.24,0,0,.31-1.49,.77-2.38,.5-1.03,1.13-1.27,1.68-1.27,1.1,0,1.85,.86,1.92,1.94,.86-1.2,2.04-1.94,3.43-1.94,1.15,0,2.28,.55,2.42,2.18,.86-1.32,2.06-2.18,3.55-2.18,1.85,0,2.4,1.18,2.4,2.45,0,1.39-.82,3.62-1.44,5.38-.19,.48-.46,1.22-.46,1.8s.19,.72,.55,.72c1.34,0,1.99-2.16,2.21-2.98,.1-.36,.12-.43,.41-.43,.1,0,.31,0,.31,.22,0,.1-.77,3.67-3,3.67Z"/><path d="M615.22,173.3c-2.04,0-3.29-1.73-3.29-4.15,0-4.22,3.34-6.67,5.83-6.67,1.42,0,2.3,.91,2.3,1.99,0,3.02-4.51,3.02-5.35,3.02h-.86c-.24,.94-.41,1.61-.41,2.66,0,.77,.22,2.66,1.8,2.66,1.22,0,3.02-.67,4.3-2.4,.19-.22,.22-.24,.29-.24,.14,0,.34,.19,.34,.36,0,.34-1.97,2.76-4.94,2.76Zm2.52-10.35c-.43,0-2.78,.24-3.74,4.06h.5c.77,0,4.75,0,4.75-2.57,0-.82-.55-1.49-1.51-1.49Z"/><path d="M630.75,173.3c-.98,0-1.73-.72-1.73-1.87,0-.5,.1-.72,.31-1.32,.41-1.18,1.46-4.06,1.46-5.54,0-.41,0-1.61-1.1-1.61-2.3,0-3.6,3.07-3.75,3.6l-1.46,5.9c-.1,.41-.34,.84-.89,.84-.43,0-.62-.29-.62-.58,0-.1,0-.12,.1-.46l1.75-7.01c.1-.34,.19-.86,.19-1.32,0-.29,0-.98-.62-.98-.82,0-1.27,1.42-1.63,2.83-.14,.55-.17,.58-.43,.58-.22,0-.34-.05-.34-.24,0,0,.31-1.49,.77-2.38,.5-1.03,1.13-1.27,1.68-1.27,1.1,0,1.85,.86,1.92,1.94,.79-1.08,1.92-1.94,3.41-1.94,1.85,0,2.4,1.18,2.4,2.45,0,1.39-.82,3.62-1.44,5.38-.19,.48-.46,1.22-.46,1.8s.19,.72,.55,.72c1.34,0,1.99-2.16,2.21-2.98,.1-.36,.12-.43,.41-.43,.1,0,.31,0,.31,.22,0,.1-.77,3.67-3,3.67Z"/><path d="M638,173.3c-1.32,0-1.97-1.01-1.97-2.11,0-.1,0-.38,.12-.86l1.73-6.91h-1.94c-.38,0-.58,0-.58-.24,0-.46,.22-.46,.65-.46h2.04l.94-3.77c.1-.36,.31-.89,.91-.89,.46,0,.62,.36,.62,.58,0,0-.02,.26-.05,.31l-.96,3.77h1.9c.41,0,.58,0,.58,.26,0,.43-.24,.43-.65,.43h-1.99l-1.8,7.18c-.1,.36-.19,.91-.19,1.27,0,.79,.34,.96,.7,.96,1.56,0,2.5-2.35,2.78-3.1,.12-.26,.14-.31,.41-.31,.1,0,.31,0,.31,.22,0,.12-1.2,3.67-3.55,3.67Z"/><path d="M656.41,179.08c-.26,0-2.23-1.56-3.65-4.44-1.25-2.57-1.58-5.42-1.58-7.56,0-2.95,.55-5.52,1.78-7.94,1.18-2.35,3.14-4.08,3.46-4.08,.1,0,.22,.05,.22,.19,0,.07,0,.12-.24,.34-2.78,2.83-3.91,6.84-3.91,11.5,0,4.9,1.34,8.86,3.74,11.28,.41,.41,.41,.46,.41,.53,0,.14-.12,.19-.22,.19Z"/><path d="M662,177.96c-1.85,0-2.78-.38-2.78-1.3,0-.77,.6-1.18,1.08-1.18,.55,0,.77,.38,.77,.7,0,.34-.22,.82-.74,1.03,.62,.26,1.44,.29,1.7,.29,1.94,0,2.86-1.85,3.12-2.59l.77-3.12c-.17,.17-1.25,1.27-2.52,1.27-1.58,0-2.78-1.39-2.78-3.6,0-3.5,2.78-6.98,5.33-6.98,1.1,0,1.7,.82,1.94,1.37h.02c.05-.41,.36-.91,.91-.91,.43,0,.62,.31,.62,.58,0,0,0,.12-.07,.38l-2.64,10.61c-.48,1.9-2.28,3.46-4.73,3.46Zm5.57-12.79c0-.14-.19-2.23-1.63-2.23-1.06,0-2.14,1.25-2.74,2.74-.38,.91-1.1,3.62-1.1,4.78,0,.29,.05,2.16,1.34,2.16s2.76-1.87,2.95-2.66l1.1-4.39c.05-.22,.07-.38,.07-.38Z"/><path d="M680.38,171.91c-.31,.7-.79,1.39-1.73,1.39-.55,0-1.63-.24-1.9-1.7-.91,1.08-1.9,1.7-2.88,1.7-1.63,0-2.76-1.51-2.76-3.65,0-3.5,2.76-7.18,5.38-7.18,.65,0,1.46,.29,1.92,1.42l.02-.02s.17-.94,.94-.94c.43,0,.62,.31,.62,.58,0,0,0,.12-.07,.38l-1.68,6.7c-.1,.36-.19,.91-.19,1.27,0,.46,.12,.96,.65,.96,.67,0,1.13-.84,1.61-2.83,.14-.55,.17-.58,.46-.58,.1,0,.31,0,.31,.22,0,.07-.29,1.44-.7,2.28Zm-2.35-6.31l.07-.34c0-.17-.17-2.3-1.61-2.3-1.03,0-2.11,1.22-2.74,2.71-.38,.96-1.15,3.79-1.15,4.99,0,.29,.05,2.16,1.32,2.16,1.39,0,2.83-2.04,2.98-2.66l1.13-4.56Z"/><path d="M687.37,173.3c-1.13,0-1.73-.84-1.97-1.44-1.13,4.42-1.15,4.58-1.15,4.8,0,.36,.62,.36,1.15,.36,.43,0,.58,0,.58,.26,0,.43-.29,.43-.43,.43-.7,0-1.46-.05-2.18-.05-.65,0-1.34,.05-1.97,.05-.12,0-.29-.05-.29-.24,0-.46,.24-.46,.5-.46,.91,0,1.08-.14,1.27-.89l2.71-10.87c.1-.36,.19-.86,.19-1.32,0-.29,0-.98-.62-.98-.82,0-1.27,1.42-1.63,2.83-.14,.55-.17,.58-.43,.58-.22,0-.34-.05-.34-.24,0,0,.31-1.49,.77-2.38,.5-1.03,1.13-1.27,1.68-1.27,.82,0,1.68,.53,1.9,1.7,.12-.17,1.37-1.7,2.88-1.7,1.66,0,2.76,1.56,2.76,3.65,0,3.48-2.76,7.18-5.38,7.18Zm3.86-8.19c0-1.27-.46-2.16-1.32-2.16-1.32,0-2.78,1.97-2.98,2.71l-1.13,4.54c-.05,.19-.07,.26-.07,.34,0,0,.14,2.28,1.63,2.28,.74,0,1.73-.67,2.57-2.35,.48-1.01,1.3-4.01,1.3-5.35Z"/><path d="M699.37,173.3c-1.13,0-1.73-.84-1.97-1.44-1.13,4.42-1.15,4.58-1.15,4.8,0,.36,.62,.36,1.15,.36,.43,0,.58,0,.58,.26,0,.43-.29,.43-.43,.43-.7,0-1.46-.05-2.18-.05-.65,0-1.34,.05-1.97,.05-.12,0-.29-.05-.29-.24,0-.46,.24-.46,.5-.46,.91,0,1.08-.14,1.27-.89l2.71-10.87c.1-.36,.19-.86,.19-1.32,0-.29,0-.98-.62-.98-.82,0-1.27,1.42-1.63,2.83-.14,.55-.17,.58-.43,.58-.22,0-.34-.05-.34-.24,0,0,.31-1.49,.77-2.38,.5-1.03,1.13-1.27,1.68-1.27,.82,0,1.68,.53,1.9,1.7,.12-.17,1.37-1.7,2.88-1.7,1.66,0,2.76,1.56,2.76,3.65,0,3.48-2.76,7.18-5.38,7.18Zm3.86-8.19c0-1.27-.46-2.16-1.32-2.16-1.32,0-2.78,1.97-2.98,2.71l-1.13,4.54c-.05,.19-.07,.26-.07,.34,0,0,.14,2.28,1.63,2.28,.74,0,1.73-.67,2.57-2.35,.48-1.01,1.3-4.01,1.3-5.35Z"/><path d="M709.59,173.3c-2.04,0-3.29-1.73-3.29-4.15,0-4.22,3.34-6.67,5.83-6.67,1.42,0,2.3,.91,2.3,1.99,0,3.02-4.51,3.02-5.35,3.02h-.86c-.24,.94-.41,1.61-.41,2.66,0,.77,.22,2.66,1.8,2.66,1.22,0,3.02-.67,4.3-2.4,.19-.22,.22-.24,.29-.24,.14,0,.34,.19,.34,.36,0,.34-1.97,2.76-4.94,2.76Zm2.52-10.35c-.43,0-2.78,.24-3.74,4.06h.5c.77,0,4.75,0,4.75-2.57,0-.82-.55-1.49-1.51-1.49Z"/><path d="M725.02,171.91c-.31,.7-.79,1.39-1.73,1.39-.55,0-1.63-.24-1.9-1.7-.91,1.08-1.9,1.7-2.88,1.7-1.63,0-2.76-1.51-2.76-3.65,0-3.5,2.76-7.18,5.38-7.18,1.03,0,1.63,.7,1.97,1.46l1.42-5.71c.02-.1,.07-.29,.07-.41,0-.24,0-.46-1.2-.46-.34,0-.53,0-.53-.24,0-.43,.22-.46,.55-.48l2.4-.22c.38-.02,.55,0,.55,.22,0,.07-.05,.17-.07,.31l-3.41,13.61c-.07,.31-.19,.98-.19,1.3,0,.46,.12,.96,.65,.96,.67,0,1.13-.84,1.61-2.83,.14-.55,.17-.58,.46-.58,.1,0,.31,0,.31,.22,0,.07-.29,1.44-.7,2.28Zm-2.35-6.31l.07-.34c0-.07-.14-2.3-1.61-2.3-1.03,0-2.11,1.22-2.74,2.71-.38,.96-1.15,3.79-1.15,4.99,0,.29,.05,2.16,1.32,2.16,1.39,0,2.83-2.06,3-2.71l1.1-4.51Z"/><path d="M730.16,175c-1.18,2.35-3.14,4.08-3.46,4.08-.1,0-.22-.05-.22-.19,0-.07,0-.12,.24-.34,2.78-2.83,3.91-6.84,3.91-11.5,0-4.9-1.34-8.86-3.74-11.28-.41-.41-.41-.46-.41-.53,0-.14,.12-.19,.22-.19,.26,0,2.23,1.56,3.65,4.44,1.34,2.78,1.58,5.76,1.58,7.58,0,2.88-.55,5.47-1.78,7.92Z"/></g><circle cx="541.26" cy="202.15" r="5"/><circle cx="517.17" cy="343.79" r="5"/><circle cx="141.62" cy="197.99" r="5"/><circle cx="596.63" cy="256.75" r="5"/><circle cx="650.91" cy="104.65" r="5"/><circle cx="182.56" cy="241.43" r="5"/><circle cx="518.19" cy="178.06" r="5"/><circle cx="424.84" cy="301.35" r="5"/><circle cx="392.15" cy="181.37" r="5"/><circle cx="252.08" cy="183.06" r="5"/><circle cx="224.72" cy="155.7" r="5"/><g><line x1="261.54" y1="320.82" x2="288.9" y2="348.19"/><g><line class="cls-1" x1="261.54" y1="320.82" x2="263.31" y2="322.59"/><line class="cls-3" x1="266.71" y1="325.99" x2="285.43" y2="344.72"/><line class="cls-1" x1="287.14" y1="346.42" x2="288.9" y2="348.19"/></g></g><circle cx="288.9" cy="348.19" r="5"/><circle cx="261.54" cy="320.82" r="5"/><g><path class="cls-6" d="M244.8,362.37c11.4,.29,16.66-5.01,21.56-13.02"/><path d="M268.64,345.43c-.4,2.24-.58,5.2-.18,7.33l-2.42-2.92-3.73-.7c2.06-.69,4.56-2.28,6.33-3.71Z"/></g></svg>