<?xml version="1.0" encoding="UTF-8" standalone="no"?>
<svg xmlns:dc="http://purl.org/dc/elements/1.1/" xmlns:cc="http://creativecommons.org/ns#" xmlns:rdf="http://www.w3.org/1999/02/22-rdf-syntax-ns#" xmlns:svg="http://www.w3.org/2000/svg" xmlns="http://www.w3.org/2000/svg" xmlns:xlink="http://www.w3.org/1999/xlink" xmlns:sodipodi="http://sodipodi.sourceforge.net/DTD/sodipodi-0.dtd" xmlns:inkscape="http://www.inkscape.org/namespaces/inkscape" id="svg193" height="127.43297mm" width="200mm" version="1.0" inkscape:version="0.91 r13725" sodipodi:docname="Homology2.svg">
  <sodipodi:namedview pagecolor="#ffffff" bordercolor="#666666" borderopacity="1" objecttolerance="10" gridtolerance="10" guidetolerance="10" inkscape:pageopacity="0" inkscape:pageshadow="2" inkscape:window-width="1857" inkscape:window-height="1057" id="namedview100" showgrid="false" fit-margin-top="5" fit-margin-left="5" fit-margin-right="5" fit-margin-bottom="5" inkscape:zoom="1.2526948" inkscape:cx="115.0064" inkscape:cy="359.10404" inkscape:window-x="55" inkscape:window-y="-8" inkscape:window-maximized="1" inkscape:current-layer="svg193"/>
  <metadata id="metadata197">
    <rdf:RDF>
      <cc:Work rdf:about="">
        <dc:format>image/svg+xml</dc:format>
        <dc:type rdf:resource="http://purl.org/dc/dcmitype/StillImage"/>
        <dc:title/>
      </cc:Work>
    </rdf:RDF>
  </metadata>
  <defs id="defs3">
    <pattern y="0" x="0" height="6" width="6" patternUnits="userSpaceOnUse" id="EMFhbasepattern"/>
    <linearGradient gradientTransform="translate(-153.20379,-364.8985)" inkscape:collect="always" xlink:href="#linearGradient4392" id="linearGradient4402" x1="259.53488" y1="719.96954" x2="588.47522" y2="719.96954" gradientUnits="userSpaceOnUse"/>
    <linearGradient inkscape:collect="always" id="linearGradient4392">
      <stop style="stop-color:#aaaaaa;stop-opacity:0" offset="0" id="stop4394"/>
      <stop id="stop4410" offset="0.16073722" style="stop-color:#d2d2d2;stop-opacity:1"/>
      <stop style="stop-color:#d2d2d2;stop-opacity:1" offset="0.82663912" id="stop4412"/>
      <stop style="stop-color:#aaaaaa;stop-opacity:0" offset="1" id="stop4396"/>
    </linearGradient>
    <linearGradient gradientTransform="translate(-153.20379,-364.8985)" inkscape:collect="always" xlink:href="#linearGradient4392" id="linearGradient4402-0" x1="152.56445" y1="173.14844" x2="481.50586" y2="173.14844" gradientUnits="userSpaceOnUse"/>
  </defs>
  <path id="path5" d="m 318.34273,137.16414 0,71.95639 -212.3513,0 0,-71.95639 z" style="fill:url(#linearGradient4402);fill-opacity:1;fill-rule:evenodd;stroke:none;color:#000000;clip-rule:nonzero;display:inline;overflow:visible;visibility:visible;opacity:1;isolation:auto;mix-blend-mode:normal;color-interpolation:sRGB;color-interpolation-filters:linearRGB;solid-color:#000000;solid-opacity:1;stroke-width:1;stroke-linecap:butt;stroke-linejoin:miter;stroke-miterlimit:4;stroke-dasharray:none;stroke-dashoffset:0;stroke-opacity:1;filter-blend-mode:normal;filter-gaussianBlur-deviation:0;color-rendering:auto;image-rendering:auto;shape-rendering:auto;text-rendering:auto;enable-background:accumulate" inkscape:connector-curvature="0"/>
  <path id="path7" d="m 300.27368,136.04482 134.3186,120.60691 0,71.75651 -134.3186,-120.56693 z" style="fill:url(#linearGradient4402);fill-opacity:1;fill-rule:evenodd;stroke:none;color:#000000;clip-rule:nonzero;display:inline;overflow:visible;visibility:visible;opacity:1;isolation:auto;mix-blend-mode:normal;color-interpolation:sRGB;color-interpolation-filters:linearRGB;solid-color:#000000;solid-opacity:1;stroke-width:1;stroke-linecap:butt;stroke-linejoin:miter;stroke-miterlimit:4;stroke-dasharray:none;stroke-dashoffset:0;stroke-opacity:1;filter-blend-mode:normal;filter-gaussianBlur-deviation:0;color-rendering:auto;image-rendering:auto;shape-rendering:auto;text-rendering:auto;enable-background:accumulate" inkscape:connector-curvature="0"/>
  <path id="path9" d="m 299.63407,210.07995 134.4785,-120.686855 0,-71.67656 -134.4785,120.726835 z" style="fill:url(#linearGradient4402);fill-opacity:1;fill-rule:evenodd;stroke:none;color:#000000;clip-rule:nonzero;display:inline;overflow:visible;visibility:visible;opacity:1;isolation:auto;mix-blend-mode:normal;color-interpolation:sRGB;color-interpolation-filters:linearRGB;solid-color:#000000;solid-opacity:1;stroke-width:1;stroke-linecap:butt;stroke-linejoin:miter;stroke-miterlimit:4;stroke-dasharray:none;stroke-dashoffset:0;stroke-opacity:1;filter-blend-mode:normal;filter-gaussianBlur-deviation:0;color-rendering:auto;image-rendering:auto;shape-rendering:auto;text-rendering:auto;enable-background:accumulate" inkscape:connector-curvature="0"/>
  <text id="text15" y="48.207245" x="190.73869" style="font-style:normal;font-variant:normal;font-weight:400;font-size:24px;line-height:125%;font-family:Calibri;text-align:start;letter-spacing:0px;word-spacing:0px;text-anchor:start;fill:#000000;fill-opacity:1;stroke:none" xml:space="preserve" sodipodi:linespacing="125%"><tspan id="tspan13" y="48.207245" x="190.73869"><tspan id="tspan11" style="font-style:normal;font-variant:normal;font-weight:400;font-size:24px;font-family:Calibri;fill:#000000" dy="0" dx="0">Speciation</tspan></tspan></text>
  <path id="path17" d="m 297.03564,157.31193 -126.44336,0" style="fill:none;stroke:#c00000;stroke-width:7.99515438px;stroke-linecap:round;stroke-linejoin:miter;stroke-miterlimit:8;stroke-dasharray:none;stroke-opacity:1" inkscape:connector-curvature="0"/>
  <path id="path19" d="m 297.03564,190.25197 -126.44336,0" style="fill:none;stroke:#1c7fc6;stroke-width:7.99515438px;stroke-linecap:round;stroke-linejoin:miter;stroke-miterlimit:8;stroke-dasharray:none;stroke-opacity:1" inkscape:connector-curvature="0"/>
  <path id="path21" d="m 143.72856,173.62205 26.36402,16.29013" style="fill:none;stroke:#1c7fc6;stroke-width:7.99515438px;stroke-linecap:round;stroke-linejoin:miter;stroke-miterlimit:8;stroke-dasharray:none;stroke-opacity:1" inkscape:connector-curvature="0"/>
  <path id="path23" d="m 143.72856,173.60206 26.34403,-16.29013" style="fill:none;stroke:#c00000;stroke-width:7.99515438px;stroke-linecap:round;stroke-linejoin:miter;stroke-miterlimit:8;stroke-dasharray:none;stroke-opacity:1" inkscape:connector-curvature="0"/>
  <path id="path25" d="m 112.06775,173.62205 31.62083,0" style="fill:none;stroke:#000000;stroke-width:7.99515438px;stroke-linecap:round;stroke-linejoin:miter;stroke-miterlimit:8;stroke-dasharray:none;stroke-opacity:1" inkscape:connector-curvature="0"/>
  <path id="path27" d="M 300.43358,189.97214 422.91935,80.558449" style="fill:none;stroke:#1c7fc6;stroke-width:7.99515438px;stroke-linecap:round;stroke-linejoin:miter;stroke-miterlimit:8;stroke-dasharray:none;stroke-opacity:1" inkscape:connector-curvature="0"/>
  <path id="path29" d="M 300.43358,157.39189 422.75945,48.098122" style="fill:none;stroke:#c00000;stroke-width:7.99515438px;stroke-linecap:round;stroke-linejoin:miter;stroke-miterlimit:8;stroke-dasharray:none;stroke-opacity:1" inkscape:connector-curvature="0"/>
  <path id="path31" d="M 422.91935,299.34585 300.43358,189.93216" style="fill:none;stroke:#1c7fc6;stroke-width:7.99515438px;stroke-linecap:round;stroke-linejoin:miter;stroke-miterlimit:8;stroke-dasharray:none;stroke-opacity:1" inkscape:connector-curvature="0"/>
  <path id="path33" d="M 422.91935,266.72562 300.43358,157.31193" style="fill:none;stroke:#c00000;stroke-width:7.99515438px;stroke-linecap:round;stroke-linejoin:miter;stroke-miterlimit:8;stroke-dasharray:none;stroke-opacity:1" inkscape:connector-curvature="0"/>
  <path id="path35" d="m 434.59228,364.70624 0,41.255 -327.96124,0 0,-41.255 z" style="fill:url(#linearGradient4402);fill-opacity:1;fill-rule:evenodd;stroke:none;color:#000000;clip-rule:nonzero;display:inline;overflow:visible;visibility:visible;opacity:1;isolation:auto;mix-blend-mode:normal;color-interpolation:sRGB;color-interpolation-filters:linearRGB;solid-color:#000000;solid-opacity:1;stroke-width:1;stroke-linecap:butt;stroke-linejoin:miter;stroke-miterlimit:4;stroke-dasharray:none;stroke-dashoffset:0;stroke-opacity:1;filter-blend-mode:normal;filter-gaussianBlur-deviation:0;color-rendering:auto;image-rendering:auto;shape-rendering:auto;text-rendering:auto;enable-background:accumulate" inkscape:connector-curvature="0"/>
  <path id="path37" d="m 113.50687,385.33374 307.8934,0" style="fill:none;stroke:#404040;stroke-width:7.99515438px;stroke-linecap:round;stroke-linejoin:miter;stroke-miterlimit:8;stroke-dasharray:none;stroke-opacity:1" inkscape:connector-curvature="0"/>
  <path id="path39" d="m 342.36817,83.796487 c 0.43973,0.519685 0.75954,1.079346 0.91944,1.678982 0.19988,0.599637 0.23986,1.199273 0.11993,1.758934 -0.0799,0.599637 -0.27983,1.199273 -0.63961,1.758934 -0.35979,0.559661 -0.79952,1.079346 -1.3192,1.559055 -0.39976,0.319806 -0.79952,0.599637 -1.1593,0.839491 -0.39976,0.199879 -0.75954,0.399758 -1.07935,0.519685 -0.35978,0.119928 -0.63961,0.239855 -0.91944,0.279831 -0.23985,0.03998 -0.43973,0.07995 -0.55966,0.03998 -0.11993,0 -0.27983,-0.03998 -0.39976,-0.119928 -0.11993,-0.07995 -0.27983,-0.199879 -0.43973,-0.399757 -0.0799,-0.119928 -0.19988,-0.239855 -0.23986,-0.319807 -0.0799,-0.119927 -0.11992,-0.199878 -0.11992,-0.27983 -0.04,-0.03998 -0.04,-0.119927 -0.04,-0.159903 0.04,-0.03998 0.0799,-0.119927 0.11993,-0.159903 0.0799,-0.03998 0.23985,-0.119927 0.47971,-0.159903 0.23985,0 0.51968,-0.07995 0.83949,-0.159903 0.35978,-0.07995 0.71956,-0.239855 1.1593,-0.439734 0.39975,-0.159903 0.83949,-0.439733 1.27922,-0.839491 0.31981,-0.27983 0.59964,-0.599637 0.79952,-0.919443 0.1599,-0.319806 0.3198,-0.639612 0.35978,-0.999394 0.04,-0.319806 0.04,-0.639612 -0.0799,-0.999394 -0.08,-0.319807 -0.27983,-0.639613 -0.51969,-0.919443 -0.27983,-0.319806 -0.59964,-0.559661 -0.95942,-0.639613 -0.35978,-0.119927 -0.71956,-0.119927 -1.11932,-0.07995 -0.39976,0.03998 -0.79951,0.119927 -1.23925,0.239855 -0.43973,0.119927 -0.87946,0.239854 -1.3192,0.399757 -0.47971,0.119928 -0.91944,0.239855 -1.39915,0.319806 -0.43973,0.07995 -0.91944,0.119928 -1.35918,0.07995 -0.47971,-0.03998 -0.91944,-0.159903 -1.35917,-0.359782 -0.43974,-0.199879 -0.87947,-0.519685 -1.27923,-0.999394 -0.39976,-0.47971 -0.67959,-0.959419 -0.83949,-1.479104 -0.1599,-0.559661 -0.19988,-1.079346 -0.11993,-1.599031 0.08,-0.519685 0.27983,-1.03937 0.59964,-1.519079 0.31981,-0.519685 0.71956,-0.999394 1.19927,-1.439128 0.27983,-0.199879 0.51969,-0.399758 0.83949,-0.599636 0.27984,-0.159904 0.55967,-0.319807 0.87947,-0.439734 0.27983,-0.119927 0.55966,-0.239855 0.79952,-0.27983 0.23985,-0.07995 0.43973,-0.07995 0.55966,-0.07995 0.0799,0 0.1599,0 0.19988,0.03998 0.04,0 0.11992,0.03998 0.1599,0.07995 0.04,0.03998 0.11993,0.07995 0.19988,0.159903 0.04,0.03998 0.11993,0.159904 0.23985,0.239855 0.08,0.119927 0.15991,0.199879 0.23986,0.319806 0.04,0.07995 0.11993,0.159903 0.11993,0.239855 0.04,0.03998 0.04,0.119927 0.04,0.159903 0,0.07995 -0.04,0.119927 -0.0799,0.159903 -0.04,0.03998 -0.19988,0.07995 -0.39976,0.119927 -0.19988,0.03998 -0.47971,0.119928 -0.75954,0.199879 -0.27983,0.03998 -0.59963,0.159903 -0.95942,0.319806 -0.3198,0.159904 -0.67958,0.399758 -0.99939,0.679589 -0.31981,0.27983 -0.55966,0.55966 -0.71956,0.879467 -0.15991,0.27983 -0.27983,0.55966 -0.27983,0.839491 -0.04,0.27983 0,0.519685 0.0799,0.799515 0.08,0.239855 0.23985,0.47971 0.43973,0.719564 0.27983,0.319806 0.55966,0.519685 0.91944,0.599637 0.35978,0.119927 0.71957,0.159903 1.11932,0.119927 0.39976,-0.03998 0.8395,-0.119927 1.27923,-0.239855 0.43973,-0.159903 0.87947,-0.27983 1.3192,-0.399757 0.43973,-0.159903 0.91944,-0.239855 1.39915,-0.359782 0.43974,-0.07995 0.91944,-0.119928 1.35918,-0.07995 0.47971,0.03998 0.91944,0.119928 1.35917,0.319806 0.43974,0.199879 0.87947,0.559661 1.27923,0.999395 z m 8.31496,-9.274379 c 0.59964,0.679588 1.07935,1.359176 1.39915,2.07874 0.31981,0.679588 0.51969,1.3192 0.55966,1.958813 0.0799,0.639612 -0.04,1.239248 -0.27983,1.838885 -0.23985,0.599637 -0.63961,1.119322 -1.19927,1.599031 -0.23986,0.199879 -0.47971,0.359782 -0.71956,0.519685 -0.23986,0.119927 -0.47971,0.199879 -0.75954,0.27983 -0.27984,0.07995 -0.59964,0.119928 -0.91945,0.119928 -0.3198,0 -0.67959,0 -1.07934,0 l 3.47789,3.957601 c 0.04,0.03998 0.0799,0.07995 0.0799,0.159903 0,0.03998 0,0.119928 -0.04,0.159903 0,0.07995 -0.0799,0.159903 -0.1599,0.279831 -0.0799,0.07995 -0.19988,0.199879 -0.35978,0.319806 -0.11993,0.119927 -0.23985,0.199879 -0.35978,0.27983 -0.0799,0.07995 -0.19988,0.119928 -0.27983,0.159903 -0.0799,0 -0.11993,0.03998 -0.15991,0 -0.0799,0 -0.11992,-0.03997 -0.1599,-0.07995 l -9.71411,-11.073289 c -0.04,-0.03998 -0.0799,-0.119927 -0.0799,-0.159903 0,-0.03998 0,-0.07995 0.04,-0.159903 0.04,-0.07995 0.0799,-0.159903 0.15991,-0.239855 0.0799,-0.07995 0.1599,-0.159903 0.27983,-0.27983 0.11992,-0.07995 0.23985,-0.199879 0.3198,-0.239855 0.0799,-0.07995 0.15991,-0.119927 0.23986,-0.119927 0.08,-0.03998 0.11992,-0.03998 0.1599,0 0.0799,0 0.11993,0.03998 0.1599,0.07995 l 0.91945,1.079346 c 0.04,-0.479709 0.0799,-0.879467 0.1599,-1.279225 0.04,-0.359781 0.1599,-0.719563 0.27983,-1.03937 0.11993,-0.319806 0.23985,-0.599636 0.43973,-0.879467 0.19988,-0.27983 0.39976,-0.519685 0.67959,-0.759539 0.55966,-0.47971 1.1593,-0.799516 1.75894,-0.959419 0.59963,-0.119927 1.19927,-0.119927 1.7989,0.03998 0.59964,0.199879 1.1593,0.479709 1.71896,0.879467 0.59964,0.399758 1.11932,0.919443 1.63901,1.479104 z m -1.35918,1.479103 c -0.35978,-0.399758 -0.75954,-0.75954 -1.11932,-1.079346 -0.39976,-0.319806 -0.79951,-0.559661 -1.23925,-0.719564 -0.39975,-0.159903 -0.79951,-0.239854 -1.19927,-0.199879 -0.39976,0.07995 -0.79952,0.239855 -1.19927,0.599637 -0.15991,0.159903 -0.31981,0.359782 -0.47971,0.559661 -0.11993,0.199879 -0.23986,0.479709 -0.31981,0.75954 -0.0799,0.27983 -0.1599,0.599636 -0.1599,0.999394 -0.04,0.359782 -0.04,0.799515 -0.04,1.279225 l 2.75833,3.158086 c 0.83949,0.119927 1.55906,0.159903 2.15869,0.119927 0.55966,-0.07995 1.03937,-0.279831 1.43913,-0.599637 0.39976,-0.319806 0.59964,-0.679588 0.71956,-1.119321 0.11993,-0.399758 0.11993,-0.799516 0.04,-1.239249 -0.11993,-0.439734 -0.27983,-0.879467 -0.51969,-1.319201 -0.23985,-0.439733 -0.51968,-0.839491 -0.83949,-1.199273 z m 10.11387,-9.594185 c 0.19988,0.239854 0.27983,0.479709 0.23986,0.639612 0,0.199879 -0.11993,0.399758 -0.23986,0.519685 l -5.23682,4.557238 c 0.39976,0.439734 0.79951,0.799516 1.19927,1.079346 0.39976,0.27983 0.79952,0.439734 1.23925,0.519685 0.39976,0.07995 0.83949,0.03998 1.3192,-0.119927 0.43973,-0.159903 0.87947,-0.439734 1.35918,-0.879467 0.39975,-0.319806 0.67958,-0.639613 0.95942,-0.959419 0.23985,-0.319806 0.39975,-0.599636 0.55966,-0.879467 0.1599,-0.27983 0.27983,-0.479709 0.35978,-0.679588 0.0799,-0.159903 0.1599,-0.319806 0.23985,-0.359782 0.04,-0.03998 0.0799,-0.07995 0.11993,-0.07995 0.04,0 0.11993,0 0.1599,0.03997 0.04,0.03998 0.11993,0.07995 0.19988,0.119928 0.0799,0.07995 0.1599,0.159903 0.23986,0.27983 0.0799,0.07995 0.11992,0.119927 0.1599,0.199879 0.04,0.03998 0.08,0.119927 0.11993,0.159903 0.04,0.03998 0.04,0.119927 0.04,0.159903 0.04,0.03998 0.04,0.119927 0.04,0.159903 0,0.07995 -0.0799,0.199879 -0.1599,0.439734 -0.08,0.199879 -0.23986,0.439733 -0.43974,0.759539 -0.1599,0.279831 -0.39976,0.599637 -0.67959,0.919443 -0.3198,0.359782 -0.63961,0.719564 -0.99939,1.03937 -0.63961,0.559661 -1.3192,0.959419 -1.95881,1.239249 -0.63962,0.239855 -1.27923,0.319806 -1.95882,0.279831 -0.63961,-0.07995 -1.27922,-0.319807 -1.91883,-0.679589 -0.63962,-0.399757 -1.27923,-0.959418 -1.91884,-1.678982 -0.59964,-0.679588 -1.03937,-1.359176 -1.35918,-2.07874 -0.27983,-0.679588 -0.43973,-1.359176 -0.43973,-2.038764 0,-0.679589 0.1599,-1.319201 0.43973,-1.918838 0.27983,-0.599636 0.71957,-1.199273 1.3192,-1.678982 0.59964,-0.559661 1.23925,-0.919443 1.83889,-1.119322 0.59964,-0.159903 1.19927,-0.239854 1.79891,-0.119927 0.55966,0.07995 1.11932,0.27983 1.63901,0.639612 0.55966,0.319807 1.03937,0.75954 1.4791,1.279225 z m -1.83888,0.879467 c -0.63961,-0.799516 -1.35918,-1.239249 -2.07874,-1.359177 -0.75954,-0.119927 -1.47911,0.119928 -2.15869,0.75954 -0.35979,0.319806 -0.63962,0.639613 -0.79952,1.03937 -0.11993,0.359782 -0.19988,0.719564 -0.19988,1.119322 0.04,0.399758 0.11993,0.75954 0.27983,1.159297 0.15991,0.359782 0.35978,0.719564 0.63961,1.079346 z m 12.51242,-4.757117 c 0.0799,0.119927 0.1599,0.199879 0.19987,0.27983 0.08,0.07995 0.11993,0.159903 0.15991,0.199879 0,0.07995 0.04,0.119927 0.04,0.199879 0,0.03998 0.04,0.159903 0,0.27983 0,0.159903 -0.04,0.359782 -0.11992,0.599637 -0.08,0.27983 -0.19988,0.519685 -0.35979,0.799515 -0.11992,0.279831 -0.3198,0.559661 -0.51968,0.839492 -0.19988,0.27983 -0.43974,0.55966 -0.71957,0.799515 -0.55966,0.479709 -1.15929,0.839491 -1.75893,1.03937 -0.59964,0.199879 -1.23925,0.239855 -1.83888,0.159903 -0.59964,-0.119927 -1.23925,-0.359782 -1.83889,-0.759539 -0.63961,-0.359782 -1.23925,-0.919443 -1.83889,-1.599031 -0.67958,-0.75954 -1.15929,-1.51908 -1.4791,-2.238644 -0.27983,-0.759539 -0.43973,-1.439127 -0.43973,-2.07874 0.04,-0.639612 0.19988,-1.279224 0.47971,-1.838885 0.3198,-0.559661 0.71956,-1.079346 1.23925,-1.51908 0.23985,-0.239854 0.51968,-0.439733 0.79951,-0.599636 0.27983,-0.159903 0.55966,-0.279831 0.79952,-0.359782 0.27983,-0.119927 0.51968,-0.199879 0.75954,-0.199879 0.27983,-0.03998 0.43973,-0.07995 0.59963,-0.07995 0.11993,0.03998 0.19988,0.03998 0.27983,0.03998 0.04,0.03998 0.11993,0.07995 0.19988,0.119928 0.04,0.03998 0.11993,0.07995 0.19988,0.159903 0.04,0.03998 0.11993,0.119927 0.23986,0.239854 0.19987,0.239855 0.3198,0.399758 0.3198,0.559661 0.04,0.119927 0,0.239855 -0.08,0.27983 -0.0799,0.07995 -0.19988,0.119928 -0.39976,0.119928 -0.19988,0.03998 -0.43973,0.03998 -0.71956,0.07995 -0.27983,0.03998 -0.59964,0.119928 -0.91944,0.239855 -0.35979,0.119927 -0.67959,0.319806 -1.03937,0.639612 -0.67959,0.599637 -0.9994,1.359177 -0.87947,2.198668 0.0799,0.879467 0.59963,1.79891 1.4791,2.83828 0.43974,0.519685 0.91944,0.919442 1.3192,1.199273 0.43974,0.319806 0.87947,0.519685 1.27923,0.599636 0.43973,0.07995 0.83949,0.07995 1.19927,-0.03997 0.39976,-0.119928 0.75954,-0.319807 1.11932,-0.639613 0.31981,-0.27983 0.55966,-0.599636 0.71957,-0.919442 0.1599,-0.319807 0.27983,-0.639613 0.35978,-0.919443 0.0799,-0.279831 0.11992,-0.519685 0.1599,-0.75954 0.04,-0.199879 0.0799,-0.359782 0.1599,-0.399758 0.04,-0.03997 0.08,-0.07995 0.15991,-0.07995 0.04,0 0.0799,0.03998 0.1599,0.07995 0.0799,0.03998 0.1599,0.07995 0.23985,0.159903 0.08,0.07995 0.15991,0.159904 0.27984,0.279831 z m 4.39733,-1.718958 c 0.04,0.07995 0.04,0.119927 0.04,0.159903 0,0.03998 0,0.119927 -0.04,0.199879 -0.04,0.03997 -0.0799,0.159903 -0.1599,0.239854 -0.0799,0.07995 -0.19988,0.199879 -0.35979,0.319806 -0.11992,0.119928 -0.23985,0.239855 -0.35978,0.319807 -0.11992,0.03997 -0.19988,0.119927 -0.27983,0.119927 -0.0799,0.03998 -0.11992,0.03998 -0.1599,0.03998 -0.0799,-0.03998 -0.11993,-0.07995 -0.1599,-0.119928 l -6.95579,-7.915203 c -0.04,-0.03997 -0.04,-0.07995 -0.0799,-0.119927 0,-0.07995 0,-0.119927 0.04,-0.199879 0.04,-0.07995 0.11992,-0.159903 0.19988,-0.239854 0.0799,-0.119928 0.19987,-0.199879 0.3198,-0.319807 0.1599,-0.159903 0.27983,-0.239854 0.39976,-0.319806 0.0799,-0.07995 0.1599,-0.119927 0.23985,-0.119927 0.08,-0.03998 0.15991,-0.03998 0.19988,-0.03998 0.04,0.03998 0.11993,0.03998 0.15991,0.07995 z m -9.15445,-10.713507 c 0.27983,0.319806 0.43973,0.599636 0.39976,0.839491 0,0.239855 -0.19988,0.519685 -0.51969,0.839491 -0.35978,0.279831 -0.63961,0.439734 -0.87947,0.399758 -0.23985,0 -0.47971,-0.159903 -0.79951,-0.479709 -0.27983,-0.359782 -0.43974,-0.639613 -0.39976,-0.879467 0,-0.239855 0.19988,-0.519685 0.55966,-0.799516 0.31981,-0.319806 0.59964,-0.439733 0.83949,-0.439733 0.23986,0 0.51969,0.159903 0.79952,0.519685 z m 14.75106,-1.838886 c 0.19988,0.239855 0.27983,0.439734 0.23985,0.639613 0,0.199878 -0.11992,0.359781 -0.23985,0.519685 l -5.23683,4.557238 c 0.39976,0.439733 0.79952,0.799515 1.19928,1.079345 0.39975,0.279831 0.79951,0.439734 1.23924,0.519685 0.39976,0.07995 0.8395,0.03998 1.27923,-0.119927 0.47971,-0.159903 0.91944,-0.439733 1.39915,-0.879467 0.39976,-0.319806 0.67959,-0.639612 0.91944,-0.959418 0.23986,-0.319807 0.43974,-0.599637 0.59964,-0.879467 0.1599,-0.279831 0.27983,-0.47971 0.35978,-0.679588 0.0799,-0.199879 0.15991,-0.319807 0.23986,-0.359782 0.04,-0.03998 0.0799,-0.07995 0.11992,-0.07995 0.04,0 0.11993,0 0.15991,0.03998 0.04,0 0.11992,0.07995 0.19988,0.119927 0.04,0.07995 0.1599,0.159903 0.23985,0.279831 0.0799,0.07995 0.11993,0.119927 0.1599,0.199878 0.04,0.03998 0.08,0.119928 0.11993,0.159903 0,0.03998 0.04,0.119928 0.04,0.159904 0.04,0.03997 0.04,0.119927 0.04,0.159903 -0.04,0.07995 -0.0799,0.199879 -0.1599,0.439733 -0.11993,0.199879 -0.23986,0.439734 -0.43973,0.719564 -0.19988,0.319806 -0.43974,0.639612 -0.71957,0.959419 -0.27983,0.359782 -0.59963,0.719563 -0.95942,1.03937 -0.67958,0.55966 -1.3192,0.959418 -1.95881,1.239249 -0.63961,0.239854 -1.3192,0.319806 -1.95881,0.27983 -0.63961,-0.07995 -1.27923,-0.319806 -1.91884,-0.719564 -0.63961,-0.359782 -1.27922,-0.919443 -1.91884,-1.639007 -0.59963,-0.679588 -1.03937,-1.359176 -1.35917,-2.07874 -0.27983,-0.679588 -0.43974,-1.359176 -0.43974,-2.038764 0,-0.679588 0.15991,-1.319201 0.43974,-1.918837 0.27983,-0.639613 0.71956,-1.199273 1.3192,-1.678983 0.59963,-0.55966 1.23925,-0.919442 1.83888,-1.119321 0.59964,-0.159903 1.19928,-0.239855 1.75894,-0.119928 0.59963,0.07995 1.15929,0.279831 1.67898,0.639613 0.51968,0.319806 1.03937,0.759539 1.4791,1.279225 z m -1.83889,0.879467 c -0.63961,-0.799515 -1.35917,-1.239249 -2.07874,-1.359176 -0.75954,-0.119927 -1.4791,0.119927 -2.15869,0.75954 -0.35978,0.319806 -0.63961,0.639612 -0.79951,1.03937 -0.11993,0.359782 -0.19988,0.719564 -0.19988,1.119321 0,0.399758 0.11992,0.75954 0.27983,1.159298 0.1599,0.359782 0.35978,0.719564 0.63961,1.079346 z m 10.95336,-5.076923 c 0.35979,0.399758 0.59964,0.839491 0.71957,1.279225 0.11993,0.479709 0.1599,0.919443 0.0799,1.359176 -0.11993,0.479709 -0.27983,0.919443 -0.55966,1.359176 -0.27983,0.47971 -0.67959,0.879467 -1.11932,1.279225 -0.27983,0.239855 -0.55966,0.479709 -0.87947,0.639612 -0.27983,0.199879 -0.55966,0.319807 -0.79952,0.439734 -0.27983,0.119927 -0.51968,0.199879 -0.71956,0.239854 -0.19988,0.03998 -0.35978,0.07995 -0.47971,0.07995 -0.11993,0 -0.23985,-0.03998 -0.35978,-0.119927 -0.11993,-0.07995 -0.27983,-0.199879 -0.43973,-0.399758 -0.08,-0.119927 -0.15991,-0.199879 -0.19988,-0.27983 -0.0799,-0.07995 -0.11993,-0.159904 -0.11993,-0.239855 -0.04,-0.03998 -0.04,-0.119927 -0.04,-0.159903 0.04,-0.03998 0.04,-0.07995 0.08,-0.119927 0.0799,-0.07995 0.19987,-0.119928 0.39975,-0.159904 0.19988,0 0.43974,-0.07995 0.71957,-0.119927 0.23985,-0.07995 0.55966,-0.199879 0.87946,-0.319806 0.31981,-0.159903 0.63962,-0.359782 0.95942,-0.639612 0.23986,-0.239855 0.43974,-0.439734 0.59964,-0.679589 0.1599,-0.239854 0.27983,-0.479709 0.31981,-0.679588 0.04,-0.239854 0.04,-0.479709 0,-0.719564 -0.08,-0.199878 -0.19988,-0.439733 -0.39976,-0.639612 -0.19988,-0.239855 -0.39976,-0.359782 -0.63961,-0.439733 -0.23986,-0.03998 -0.51969,-0.03998 -0.8395,0 -0.27983,0.03998 -0.55966,0.119927 -0.87946,0.239854 -0.31981,0.119928 -0.63962,0.239855 -0.9994,0.359782 -0.3198,0.119928 -0.67959,0.239855 -0.99939,0.319806 -0.35978,0.07995 -0.71957,0.119928 -1.03937,0.07995 -0.35978,0 -0.71957,-0.07995 -1.03937,-0.239855 -0.35978,-0.159903 -0.67959,-0.399757 -0.95942,-0.759539 -0.27983,-0.319807 -0.47971,-0.679589 -0.59964,-1.03937 -0.1599,-0.399758 -0.19988,-0.799516 -0.11992,-1.239249 0.04,-0.439734 0.19987,-0.839492 0.43973,-1.319201 0.23985,-0.439733 0.59964,-0.879467 1.07935,-1.279225 0.23985,-0.199878 0.43973,-0.359782 0.67958,-0.519685 0.23986,-0.159903 0.47971,-0.27983 0.67959,-0.359782 0.23986,-0.07995 0.43974,-0.159903 0.59964,-0.199878 0.1599,-0.03998 0.3198,-0.07995 0.43973,-0.07995 0.08,0 0.1599,0 0.19988,0 0.0799,0.03998 0.11993,0.03998 0.1599,0.07995 0.04,0.03997 0.11993,0.07995 0.15991,0.159903 0.0799,0.03997 0.1599,0.119927 0.23985,0.199878 0.0799,0.119928 0.1599,0.199879 0.19988,0.279831 0.0799,0.07995 0.11993,0.159903 0.11993,0.239855 0.04,0.03998 0.04,0.119927 0,0.159903 0,0.03998 0,0.07995 -0.04,0.119927 -0.0799,0.03998 -0.1599,0.07995 -0.3198,0.07995 -0.15991,0.03998 -0.35979,0.07995 -0.55967,0.159904 -0.23985,0.03997 -0.4797,0.159903 -0.75953,0.27983 -0.27984,0.119927 -0.55967,0.27983 -0.79952,0.519685 -0.27983,0.239855 -0.43973,0.439734 -0.59964,0.679588 -0.11992,0.199879 -0.19988,0.439734 -0.23985,0.639612 -0.04,0.199879 -0.04,0.399758 0.04,0.599637 0.08,0.199879 0.15991,0.359782 0.31981,0.519685 0.19988,0.239855 0.39976,0.399758 0.67959,0.439734 0.23985,0.03997 0.51968,0.03997 0.79951,0 0.27983,-0.03998 0.59964,-0.119928 0.91945,-0.239855 0.3198,-0.119927 0.67958,-0.239855 0.99939,-0.359782 0.31981,-0.119927 0.67959,-0.239855 1.03937,-0.319806 0.35978,-0.07995 0.67959,-0.119927 1.03937,-0.119927 0.31981,0.03998 0.67959,0.07995 0.9994,0.239854 0.3198,0.159903 0.63961,0.399758 0.95941,0.719564 z m 14.67111,-9.754088 c 0.11993,0.119927 0.19988,0.239854 0.23986,0.319806 0.04,0.07995 0.0799,0.159903 0.0799,0.239854 0,0.07995 0,0.119928 0,0.199879 -0.04,0.03998 -0.04,0.07995 -0.0799,0.119928 l -5.95639,5.236826 c -0.04,0.03998 -0.0799,0.03998 -0.15991,0.07995 -0.04,0 -0.11992,0 -0.19987,-0.03997 -0.04,0 -0.11993,-0.03998 -0.19988,-0.119928 -0.11993,-0.03998 -0.19988,-0.119927 -0.27983,-0.239854 -0.11993,-0.119928 -0.15991,-0.199879 -0.23986,-0.319807 -0.04,-0.07995 -0.0799,-0.159903 -0.0799,-0.239854 -0.04,-0.07995 -0.04,-0.119928 0,-0.199879 0,-0.03998 0.04,-0.07995 0.0799,-0.119927 l 2.35857,-2.118716 -7.59539,-8.634767 -1.03937,3.238037 c -0.08,0.159904 -0.11993,0.279831 -0.15991,0.319807 -0.0799,0.07995 -0.11993,0.119927 -0.19988,0.119927 -0.0799,0 -0.1599,-0.03998 -0.27983,-0.119927 -0.0799,-0.07995 -0.19988,-0.159903 -0.27983,-0.319807 -0.11993,-0.07995 -0.1599,-0.159903 -0.23985,-0.239854 -0.04,-0.07995 -0.0799,-0.159903 -0.11993,-0.239855 0,-0.03998 -0.04,-0.119927 0,-0.159903 0,-0.07995 0,-0.159903 0,-0.239855 l 1.1593,-3.997577 c 0,-0.03998 0.04,-0.07995 0.04,-0.119927 0.04,-0.03998 0.08,-0.07995 0.11993,-0.119927 0.04,-0.07995 0.0799,-0.119928 0.1599,-0.199879 0.08,-0.07995 0.15991,-0.159903 0.23986,-0.239855 0.1599,-0.119927 0.27983,-0.199879 0.39976,-0.27983 0.0799,-0.07995 0.1599,-0.119928 0.23985,-0.159903 0.0799,0 0.11993,-0.03998 0.19988,0 0.04,0 0.0799,0.03998 0.0799,0.07995 l 8.79467,9.993943 2.07874,-1.79891 c 0.04,-0.03997 0.0799,-0.07995 0.1599,-0.07995 0.08,0 0.11993,0 0.19988,0.03998 0.0799,0 0.15991,0.03997 0.23986,0.119927 0.0799,0.07995 0.1599,0.159903 0.23985,0.239855 z" style="fill:#000000;fill-opacity:1;fill-rule:nonzero;stroke:none" inkscape:connector-curvature="0"/>
  <path id="path41" d="m 337.65103,266.68565 c -0.47971,0.51968 -0.9994,0.87946 -1.55906,1.11932 -0.55966,0.23985 -1.15929,0.35978 -1.75893,0.3198 -0.59964,0 -1.19927,-0.1599 -1.79891,-0.43973 -0.59964,-0.27983 -1.1593,-0.63961 -1.71896,-1.11932 -0.35978,-0.35978 -0.67959,-0.71956 -0.95942,-1.03937 -0.27983,-0.35978 -0.47971,-0.71956 -0.63961,-1.03937 -0.19988,-0.31981 -0.31981,-0.59964 -0.39976,-0.83949 -0.0799,-0.27983 -0.11993,-0.43974 -0.11993,-0.59964 0,-0.11993 0.04,-0.23985 0.08,-0.39976 0.08,-0.11992 0.19988,-0.27983 0.35978,-0.43973 0.11993,-0.1599 0.19988,-0.23985 0.27983,-0.31981 0.11993,-0.0799 0.19988,-0.11992 0.23985,-0.1599 0.08,-0.04 0.15991,-0.04 0.19988,-0.04 0.04,0.04 0.08,0.04 0.15991,0.0799 0.0799,0.0799 0.11992,0.23985 0.19987,0.47971 0.04,0.23985 0.15991,0.47971 0.27983,0.83949 0.11993,0.3198 0.31981,0.67959 0.55967,1.07934 0.23985,0.39976 0.55966,0.75954 0.99939,1.1593 0.31981,0.27983 0.63961,0.51969 0.99939,0.67959 0.35979,0.1599 0.67959,0.23985 1.03937,0.23985 0.31981,0.04 0.63962,-0.04 0.95942,-0.1599 0.31981,-0.1599 0.59964,-0.35978 0.87947,-0.67959 0.27983,-0.3198 0.43973,-0.63961 0.51968,-0.99939 0.04,-0.35978 0.04,-0.71957 -0.04,-1.11932 -0.0799,-0.35979 -0.23986,-0.75954 -0.39976,-1.19928 -0.1599,-0.39975 -0.35978,-0.83949 -0.55966,-1.27922 -0.1599,-0.43974 -0.31981,-0.87947 -0.47971,-1.3192 -0.11993,-0.43974 -0.19988,-0.91944 -0.23985,-1.35918 0,-0.47971 0.04,-0.91944 0.19988,-1.39915 0.1599,-0.43973 0.43973,-0.91944 0.83949,-1.35918 0.43973,-0.47971 0.87946,-0.83949 1.39915,-1.03937 0.47971,-0.19988 0.99939,-0.3198 1.55905,-0.27983 0.51969,0.04 1.03937,0.15991 1.59903,0.39976 0.51969,0.23986 1.03937,0.59964 1.51908,1.03937 0.23986,0.23986 0.47971,0.47971 0.67959,0.71956 0.23986,0.27983 0.39976,0.55967 0.55966,0.8395 0.15991,0.27983 0.27983,0.51968 0.39976,0.75954 0.0799,0.27983 0.11993,0.43973 0.1599,0.55966 0,0.0799 0,0.1599 -0.04,0.19988 0,0.0799 -0.04,0.11992 -0.04,0.1599 -0.04,0.0799 -0.0799,0.1599 -0.1599,0.19988 -0.04,0.0799 -0.11993,0.19988 -0.23986,0.27983 -0.0799,0.11992 -0.1599,0.19988 -0.23985,0.27983 -0.0799,0.0799 -0.1599,0.11993 -0.23985,0.1599 -0.04,0.04 -0.11993,0.0799 -0.15991,0.0799 -0.0799,0 -0.11993,-0.04 -0.1599,-0.0799 -0.0799,-0.04 -0.11993,-0.19988 -0.19988,-0.39976 -0.04,-0.19988 -0.11993,-0.43973 -0.23985,-0.71956 -0.11993,-0.27983 -0.23986,-0.55966 -0.43974,-0.87947 -0.19988,-0.35978 -0.47971,-0.67959 -0.79951,-0.95942 -0.31981,-0.27983 -0.63962,-0.47971 -0.95942,-0.59963 -0.27983,-0.11993 -0.59964,-0.19988 -0.83949,-0.19988 -0.27983,0 -0.55966,0.0799 -0.79952,0.19988 -0.23985,0.11992 -0.47971,0.27983 -0.67959,0.51968 -0.27983,0.27983 -0.43973,0.63961 -0.47971,0.9994 -0.0799,0.35978 -0.0799,0.71956 0,1.11932 0.11993,0.39976 0.23986,0.79951 0.39976,1.19927 0.19988,0.43973 0.35978,0.87947 0.55966,1.27923 0.19988,0.43973 0.35978,0.87946 0.47971,1.35917 0.1599,0.43974 0.23986,0.91944 0.27983,1.35918 0.04,0.43973 -0.04,0.91944 -0.19988,1.35917 -0.11992,0.47971 -0.39975,0.91945 -0.79951,1.39916 z m 10.15384,7.15566 c -0.59963,0.67959 -1.23924,1.23925 -1.87886,1.63901 -0.63961,0.43973 -1.27922,0.67958 -1.87886,0.79951 -0.63961,0.11993 -1.23925,0.11993 -1.87886,-0.0799 -0.59964,-0.1599 -1.1593,-0.47971 -1.71896,-0.99939 -0.23985,-0.19988 -0.43973,-0.39976 -0.59963,-0.63962 -0.11993,-0.23985 -0.27984,-0.47971 -0.35979,-0.71956 -0.11992,-0.27983 -0.19988,-0.59964 -0.23985,-0.87947 -0.04,-0.3198 -0.0799,-0.67959 -0.11993,-1.07934 l -3.51787,3.91762 c -0.04,0.04 -0.0799,0.0799 -0.11992,0.0799 -0.08,0.04 -0.11993,0 -0.19988,0 -0.0799,-0.04 -0.15991,-0.0799 -0.27983,-0.1599 -0.0799,-0.0799 -0.23986,-0.1599 -0.35978,-0.27983 -0.15991,-0.1599 -0.23986,-0.23985 -0.35979,-0.35978 -0.0799,-0.0799 -0.11992,-0.1599 -0.1599,-0.23986 -0.04,-0.08 -0.04,-0.11992 -0.04,-0.19987 0.04,-0.04 0.04,-0.08 0.08,-0.11993 l 9.87401,-10.95336 c 0.04,-0.04 0.0799,-0.08 0.11993,-0.11993 0.04,0 0.11993,0 0.1599,0.04 0.0799,0 0.1599,0.04 0.27983,0.11993 0.0799,0.04 0.15991,0.15991 0.27983,0.23986 0.11993,0.11992 0.23986,0.19988 0.31981,0.27983 0.04,0.08 0.11993,0.1599 0.11993,0.23985 0.04,0.0799 0.04,0.11993 0.04,0.15991 0,0.0799 -0.04,0.11992 -0.0799,0.1599 l -0.95942,1.07934 c 0.47971,-0.04 0.87947,-0.04 1.27923,-0.04 0.35978,0.04 0.71956,0.08 1.07934,0.1599 0.31981,0.0799 0.63961,0.19988 0.91945,0.35978 0.27983,0.11993 0.55966,0.31981 0.83949,0.55966 0.55966,0.51969 0.91944,1.07935 1.15929,1.63901 0.19988,0.59964 0.23986,1.19927 0.15991,1.79891 -0.11993,0.59964 -0.31981,1.19927 -0.67959,1.83889 -0.31981,0.59963 -0.75954,1.19927 -1.27923,1.75893 z m -1.639,-1.1593 c 0.35978,-0.39976 0.67959,-0.83949 0.95942,-1.27922 0.27983,-0.39976 0.47971,-0.83949 0.59963,-1.27923 0.11993,-0.39975 0.11993,-0.79951 0.04,-1.19927 -0.11993,-0.39976 -0.35978,-0.79952 -0.71957,-1.11932 -0.19987,-0.1599 -0.39975,-0.31981 -0.63961,-0.39976 -0.19988,-0.11993 -0.47971,-0.19988 -0.75954,-0.23985 -0.3198,-0.08 -0.63961,-0.08 -1.03937,-0.08 -0.35978,0 -0.79951,0.08 -1.27922,0.15991 l -2.79831,3.11811 c -0.04,0.83949 0,1.51908 0.11993,2.11871 0.11993,0.55966 0.39976,1.03937 0.79952,1.35918 0.35978,0.35978 0.71956,0.51969 1.15929,0.59964 0.39976,0.04 0.83949,0 1.23925,-0.11993 0.43974,-0.1599 0.83949,-0.35978 1.23925,-0.67959 0.39976,-0.27983 0.75954,-0.59964 1.07935,-0.95942 z m 10.7135,8.9146 c -0.19987,0.23985 -0.39975,0.35978 -0.59963,0.31981 -0.19988,0 -0.35978,-0.04 -0.51969,-0.19988 l -5.15687,-4.63719 c -0.39976,0.43973 -0.71957,0.87946 -0.91944,1.27922 -0.23986,0.43974 -0.35979,0.87947 -0.35979,1.3192 -0.04,0.43974 0.04,0.83949 0.27983,1.27923 0.19988,0.43973 0.51969,0.83949 0.9994,1.27922 0.35978,0.31981 0.71956,0.59964 1.07934,0.79952 0.35979,0.19988 0.67959,0.35978 0.95942,0.47971 0.27983,0.11992 0.51969,0.19988 0.67959,0.27983 0.19988,0.04 0.31981,0.11992 0.39976,0.1599 0.04,0.04 0.0799,0.0799 0.0799,0.1599 0.04,0.04 0,0.08 0,0.15991 0,0.04 -0.04,0.11992 -0.11993,0.19988 -0.04,0.0799 -0.11992,0.1599 -0.19988,0.27983 -0.0799,0.0799 -0.1599,0.11992 -0.19988,0.1599 -0.0799,0.0799 -0.11992,0.11993 -0.1599,0.1599 -0.04,0.04 -0.0799,0.04 -0.1599,0.0799 -0.04,0 -0.08,0 -0.1599,0 -0.04,0 -0.19988,0 -0.43974,-0.0799 -0.19988,-0.0799 -0.47971,-0.19988 -0.79951,-0.3198 -0.27983,-0.15991 -0.63962,-0.35979 -0.9994,-0.59964 -0.39976,-0.23986 -0.75954,-0.51969 -1.1593,-0.87947 -0.63961,-0.55966 -1.11932,-1.1593 -1.43912,-1.79891 -0.31981,-0.59963 -0.47971,-1.23925 -0.47971,-1.87886 -0.04,-0.67959 0.11993,-1.3192 0.43973,-1.99879 0.31981,-0.71956 0.75954,-1.39915 1.39915,-2.11871 0.63962,-0.67959 1.23925,-1.19928 1.91884,-1.55906 0.63961,-0.39976 1.3192,-0.63961 1.95881,-0.67959 0.67959,-0.0799 1.3192,-0.04 1.99879,0.19988 0.63961,0.19988 1.23925,0.55966 1.79891,1.07935 0.63961,0.55966 1.07935,1.11932 1.3192,1.71896 0.23986,0.59963 0.35978,1.15929 0.35978,1.75893 -0.04,0.59964 -0.19987,1.1593 -0.43973,1.71896 -0.27983,0.55966 -0.63961,1.11932 -1.11932,1.63901 z M 355.84,279.87765 c 0.67959,-0.75954 1.03937,-1.4791 1.07935,-2.23864 0.04,-0.75954 -0.27983,-1.43913 -0.99939,-2.03877 -0.35979,-0.3198 -0.71957,-0.55966 -1.11933,-0.63961 -0.39975,-0.11993 -0.75954,-0.1599 -1.15929,-0.0799 -0.35979,0.04 -0.71957,0.1599 -1.07935,0.39976 -0.39976,0.19988 -0.71956,0.43973 -0.99939,0.75954 z m 6.15627,11.87281 c -0.0799,0.08 -0.1599,0.1599 -0.23985,0.23985 -0.0799,0.0799 -0.1599,0.11993 -0.19988,0.1599 -0.04,0.04 -0.11993,0.04 -0.1599,0.08 -0.0799,0 -0.15991,0.04 -0.27983,0.04 -0.15991,0 -0.35979,0 -0.63962,-0.08 -0.27983,-0.04 -0.55966,-0.11993 -0.83949,-0.23986 -0.27983,-0.0799 -0.59963,-0.23985 -0.87946,-0.39975 -0.31981,-0.19988 -0.59964,-0.39976 -0.87947,-0.63962 -0.55966,-0.51968 -0.95942,-1.07934 -1.23925,-1.639 -0.27983,-0.55966 -0.39976,-1.1593 -0.35978,-1.79891 0.04,-0.63961 0.19988,-1.27923 0.51968,-1.91884 0.31981,-0.63961 0.75954,-1.3192 1.35918,-1.99879 0.71956,-0.75954 1.39915,-1.35917 2.07874,-1.75893 0.67959,-0.35978 1.35918,-0.59964 1.99879,-0.63961 0.63961,-0.08 1.27922,0 1.87886,0.23985 0.59964,0.23986 1.1593,0.59964 1.67898,1.03937 0.23986,0.23986 0.47971,0.47971 0.63961,0.71956 0.19988,0.27984 0.35979,0.51969 0.51969,0.75954 0.11993,0.27984 0.19988,0.51969 0.27983,0.75954 0.0799,0.23986 0.0799,0.39976 0.11993,0.55967 0,0.11992 0,0.19987 -0.04,0.27983 0,0.08 0,0.11992 -0.04,0.19987 -0.04,0.08 -0.08,0.15991 -0.11993,0.23986 -0.0799,0.04 -0.15991,0.1599 -0.23986,0.23985 -0.19988,0.23986 -0.35978,0.35979 -0.51968,0.39976 -0.11993,0.08 -0.23986,0.04 -0.31981,-0.04 -0.0799,-0.04 -0.11993,-0.19988 -0.1599,-0.39976 -0.04,-0.19988 -0.0799,-0.43974 -0.1599,-0.71957 -0.04,-0.23985 -0.15991,-0.55966 -0.31981,-0.87946 -0.1599,-0.31981 -0.39976,-0.59964 -0.75954,-0.91945 -0.67959,-0.59963 -1.43913,-0.83949 -2.27862,-0.63961 -0.87947,0.19988 -1.75893,0.79952 -2.6384,1.83889 -0.47971,0.47971 -0.79952,0.95942 -1.07935,1.43913 -0.23985,0.4797 -0.35978,0.91944 -0.43973,1.3192 -0.04,0.43973 0.04,0.83949 0.19988,1.19927 0.1599,0.35978 0.39976,0.71956 0.75954,1.03937 0.31981,0.27983 0.63961,0.47971 0.99939,0.59964 0.35979,0.11992 0.67959,0.19987 0.95942,0.23985 0.27983,0.04 0.55966,0.0799 0.75954,0.0799 0.23986,0 0.35978,0.04 0.43974,0.11993 0.04,0.04 0.0799,0.0799 0.0799,0.11993 0,0.04 0,0.11992 -0.04,0.19988 -0.04,0.0799 -0.08,0.1599 -0.1599,0.23985 -0.04,0.0799 -0.11993,0.19988 -0.23986,0.31981 z m 2.19867,4.15748 c -0.04,0.04 -0.0799,0.0799 -0.11993,0.0799 -0.04,0 -0.11992,0 -0.19988,-0.04 -0.0799,0 -0.1599,-0.04 -0.23985,-0.11993 -0.11993,-0.0799 -0.23985,-0.19987 -0.39976,-0.3198 -0.11993,-0.11993 -0.23985,-0.23986 -0.3198,-0.31981 -0.08,-0.0799 -0.15991,-0.19988 -0.15991,-0.23985 -0.04,-0.0799 -0.08,-0.15991 -0.04,-0.19988 0,-0.04 0,-0.0799 0.04,-0.1599 l 7.07571,-7.83526 c 0.04,-0.04 0.08,-0.04 0.11993,-0.0799 0.04,0 0.11993,0 0.19988,0.04 0.0799,0 0.1599,0.04 0.27983,0.11993 0.0799,0.0799 0.19988,0.19987 0.35978,0.3198 0.11993,0.11993 0.23986,0.23986 0.31981,0.31981 0.0799,0.11993 0.1599,0.19988 0.19988,0.23985 0,0.0799 0.04,0.15991 0,0.19988 0,0.04 0,0.11993 -0.04,0.1599 z m 9.59419,-10.35373 c -0.27983,0.35978 -0.55966,0.51969 -0.79952,0.51969 -0.23985,0 -0.51968,-0.15991 -0.87947,-0.43974 -0.3198,-0.3198 -0.47971,-0.55966 -0.51968,-0.79951 0,-0.23986 0.11993,-0.51969 0.43973,-0.83949 0.27983,-0.35979 0.55966,-0.51969 0.79952,-0.51969 0.23985,0 0.51968,0.11993 0.87946,0.43973 0.31981,0.31981 0.51969,0.55967 0.51969,0.79952 0,0.23985 -0.11993,0.51969 -0.43973,0.83949 z m 3.55784,14.43126 c -0.19988,0.23985 -0.39976,0.35978 -0.59964,0.35978 -0.19988,-0.04 -0.39975,-0.0799 -0.51968,-0.23986 l -5.19685,-4.63719 c -0.35978,0.43974 -0.67959,0.87947 -0.91944,1.3192 -0.19988,0.39976 -0.31981,0.83949 -0.35979,1.27923 0,0.43973 0.0799,0.83949 0.27983,1.27922 0.19988,0.43974 0.55966,0.87947 1.03937,1.27923 0.35979,0.35978 0.71957,0.59963 1.07935,0.79951 0.31981,0.19988 0.63961,0.35978 0.91944,0.47971 0.27983,0.11993 0.51969,0.19988 0.71957,0.27983 0.19987,0.04 0.3198,0.11993 0.39975,0.19988 0.04,0.04 0.04,0.0799 0.08,0.11993 0,0.04 0,0.0799 -0.04,0.1599 0,0.04 -0.04,0.11993 -0.08,0.19988 -0.0799,0.0799 -0.15991,0.1599 -0.23986,0.27983 -0.0799,0.0799 -0.11992,0.11993 -0.19988,0.19988 -0.04,0.04 -0.0799,0.0799 -0.1599,0.11993 -0.04,0.04 -0.0799,0.04 -0.11993,0.0799 -0.0799,0 -0.11992,0 -0.1599,0.04 -0.0799,0 -0.23985,-0.04 -0.43973,-0.11992 -0.23986,-0.0799 -0.47971,-0.15991 -0.79952,-0.31981 -0.3198,-0.1599 -0.67959,-0.35978 -1.03937,-0.59964 -0.35978,-0.23985 -0.75954,-0.51968 -1.11932,-0.87946 -0.63961,-0.55966 -1.11932,-1.1593 -1.43913,-1.79891 -0.3198,-0.59964 -0.51968,-1.23925 -0.51968,-1.87886 0,-0.63962 0.11992,-1.3192 0.43973,-1.99879 0.31981,-0.67959 0.79952,-1.39915 1.43913,-2.11872 0.59964,-0.63961 1.23925,-1.19927 1.87886,-1.55905 0.67959,-0.39976 1.3192,-0.59964 1.99879,-0.67959 0.67959,-0.0799 1.3192,-0.04 1.95881,0.19988 0.63961,0.19988 1.23925,0.55966 1.83889,1.07934 0.59963,0.55966 1.03937,1.11933 1.27922,1.71896 0.27983,0.59964 0.39976,1.1593 0.35978,1.75894 0,0.59963 -0.1599,1.15929 -0.43973,1.71895 -0.27983,0.59964 -0.63961,1.11933 -1.07935,1.63901 z m -1.07935,-1.71896 c 0.71957,-0.71957 1.07935,-1.47911 1.07935,-2.23865 0.04,-0.71956 -0.27983,-1.43912 -0.95942,-2.03876 -0.35978,-0.31981 -0.75954,-0.55966 -1.11932,-0.63961 -0.39976,-0.11993 -0.79952,-0.15991 -1.1593,-0.0799 -0.39976,0.04 -0.75954,0.19987 -1.11932,0.39975 -0.35978,0.19988 -0.67959,0.43974 -0.99939,0.75954 z m 6.31618,10.27377 c -0.35979,0.39976 -0.75954,0.71956 -1.19928,0.87947 -0.43973,0.19988 -0.87946,0.23985 -1.35917,0.23985 -0.43974,-0.04 -0.91945,-0.1599 -1.39916,-0.39976 -0.4797,-0.23985 -0.95941,-0.55966 -1.39915,-0.95941 -0.27983,-0.23986 -0.51968,-0.51969 -0.71956,-0.75954 -0.23986,-0.27983 -0.39976,-0.55966 -0.55966,-0.79952 -0.11993,-0.23985 -0.23986,-0.47971 -0.31981,-0.67959 -0.04,-0.19988 -0.11993,-0.3198 -0.11993,-0.43973 0,-0.11993 0.04,-0.23986 0.08,-0.39976 0.0799,-0.11993 0.19987,-0.27983 0.35978,-0.43973 0.0799,-0.11993 0.1599,-0.19988 0.23985,-0.27983 0.0799,-0.04 0.15991,-0.11993 0.23986,-0.11993 0.04,-0.04 0.0799,-0.04 0.1599,-0.04 0.04,0 0.0799,0.04 0.11993,0.04 0.0799,0.08 0.11992,0.19988 0.19988,0.39976 0.04,0.19988 0.11992,0.39976 0.19988,0.67959 0.11992,0.23985 0.23985,0.51968 0.43973,0.83949 0.1599,0.27983 0.43973,0.59963 0.75954,0.87946 0.23985,0.19988 0.47971,0.39976 0.71956,0.51969 0.23986,0.11993 0.47971,0.19988 0.71957,0.23985 0.23985,0 0.47971,0 0.67958,-0.0799 0.23986,-0.11993 0.43974,-0.23985 0.63962,-0.47971 0.19988,-0.19988 0.27983,-0.43973 0.3198,-0.71956 0,-0.23986 0,-0.51969 -0.0799,-0.79952 -0.0799,-0.27983 -0.19988,-0.55966 -0.35978,-0.83949 -0.1599,-0.3198 -0.31981,-0.63961 -0.47971,-0.95942 -0.1599,-0.3198 -0.27983,-0.63961 -0.39976,-0.95941 -0.11993,-0.35979 -0.19988,-0.67959 -0.23985,-1.03937 0,-0.35979 0.04,-0.67959 0.1599,-1.03937 0.0799,-0.35979 0.31981,-0.71957 0.63961,-1.03937 0.23986,-0.31981 0.59964,-0.55967 0.95942,-0.75954 0.35978,-0.15991 0.75954,-0.23986 1.19927,-0.23986 0.43974,0 0.87947,0.0799 1.35918,0.27983 0.47971,0.19988 0.91944,0.51969 1.39915,0.95942 0.23986,0.1599 0.39976,0.35978 0.59964,0.59964 0.1599,0.23985 0.31981,0.43973 0.43973,0.63961 0.11993,0.19988 0.19988,0.39976 0.27983,0.55966 0.08,0.1599 0.11993,0.31981 0.11993,0.39976 0.04,0.11992 0.04,0.19988 0,0.23985 0,0.04 0,0.11993 -0.04,0.1599 -0.04,0.04 -0.08,0.11993 -0.11993,0.15991 -0.04,0.0799 -0.11993,0.1599 -0.19988,0.27983 -0.0799,0.0799 -0.1599,0.1599 -0.23986,0.23985 -0.0799,0.04 -0.1599,0.11993 -0.19987,0.11993 -0.08,0.04 -0.11993,0.04 -0.15991,0.04 -0.0799,0 -0.11992,-0.04 -0.11992,-0.04 -0.08,-0.0799 -0.11993,-0.1599 -0.15991,-0.31981 -0.04,-0.1599 -0.11993,-0.3198 -0.19988,-0.55966 -0.0799,-0.19988 -0.19988,-0.43973 -0.35978,-0.67958 -0.1599,-0.27984 -0.35978,-0.51969 -0.63961,-0.75954 -0.23986,-0.19988 -0.47971,-0.39976 -0.71957,-0.47971 -0.23985,-0.11993 -0.4797,-0.19988 -0.67958,-0.19988 -0.19988,0 -0.39976,0.04 -0.59964,0.11992 -0.1599,0.08 -0.35978,0.19988 -0.47971,0.39976 -0.19988,0.19988 -0.31981,0.43974 -0.35978,0.71957 0,0.23985 0,0.51968 0.0799,0.79951 0.11993,0.27983 0.19988,0.55966 0.35978,0.87947 0.15991,0.3198 0.31981,0.63961 0.47971,0.95942 0.1599,0.3198 0.31981,0.63961 0.43974,0.95942 0.11992,0.35978 0.19987,0.67958 0.23985,1.03937 0.04,0.3198 0,0.67958 -0.11993,1.03937 -0.11992,0.3198 -0.3198,0.67958 -0.59963,0.99939 z" style="fill:#000000;fill-opacity:1;fill-rule:nonzero;stroke:none" inkscape:connector-curvature="0"/>
  <path id="path43" d="m 394.01687,321.93216 c -0.11993,0.08 -0.19988,0.19988 -0.27983,0.23986 -0.08,0.08 -0.15991,0.11993 -0.23986,0.1599 -0.0799,0.04 -0.1599,0.04 -0.23985,0.04 -0.04,-0.04 -0.11993,-0.04 -0.15991,-0.0799 l -6.23622,-5.63659 c -0.08,-0.04 -0.11992,-0.11993 -0.1599,-0.19988 -0.0799,-0.0799 -0.0799,-0.1599 -0.0799,-0.23985 0,-0.0799 0,-0.19988 0.0799,-0.27983 0.04,-0.11993 0.1599,-0.23986 0.23986,-0.35978 0.11992,-0.11993 0.19987,-0.19988 0.3198,-0.27983 0.0799,-0.08 0.1599,-0.15991 0.23986,-0.19988 0.11992,-0.04 0.19987,-0.0799 0.3198,-0.0799 0.0799,-0.04 0.19988,-0.04 0.35978,-0.08 l 4.31739,-0.27983 c 0.99939,-0.0799 1.83888,-0.1599 2.55845,-0.3198 0.67959,-0.11993 1.27922,-0.31981 1.75893,-0.47971 0.47971,-0.19988 0.87947,-0.43974 1.19927,-0.67959 0.31981,-0.19988 0.55966,-0.47971 0.79952,-0.71956 0.23985,-0.23986 0.39976,-0.51969 0.51968,-0.79952 0.11993,-0.31981 0.15991,-0.59964 0.15991,-0.91944 0,-0.31981 -0.0799,-0.63961 -0.23986,-0.95942 -0.1599,-0.31981 -0.39975,-0.59964 -0.67959,-0.87947 -0.39975,-0.3198 -0.75953,-0.55966 -1.11932,-0.71956 -0.39975,-0.19988 -0.75954,-0.31981 -1.07934,-0.39976 -0.31981,-0.0799 -0.59964,-0.11993 -0.83949,-0.1599 -0.23986,-0.04 -0.35979,-0.0799 -0.43974,-0.15991 -0.04,0 -0.0799,-0.0799 -0.0799,-0.11992 -0.04,-0.04 0,-0.11993 0,-0.19988 0.04,-0.04 0.0799,-0.11993 0.1599,-0.23986 0.04,-0.0799 0.15991,-0.19988 0.23986,-0.3198 0.0799,-0.0799 0.1599,-0.15991 0.23985,-0.23986 0.04,-0.04 0.11993,-0.0799 0.15991,-0.11992 0.0799,-0.04 0.11992,-0.08 0.19988,-0.08 0.04,-0.04 0.11992,-0.04 0.23985,-0.04 0.1599,0 0.31981,0.04 0.59964,0.0799 0.27983,0.04 0.55966,0.1599 0.91944,0.27983 0.35978,0.11993 0.71956,0.27983 1.07935,0.51969 0.39975,0.19987 0.75953,0.43973 1.07934,0.75953 0.55966,0.47971 0.95942,0.9994 1.23925,1.51908 0.27983,0.51969 0.39976,1.03937 0.43973,1.55906 0.04,0.51968 -0.04,0.99939 -0.23985,1.4791 -0.1599,0.47971 -0.43973,0.91945 -0.79952,1.3192 -0.3198,0.35979 -0.67958,0.67959 -1.07934,0.95942 -0.35978,0.31981 -0.87947,0.55966 -1.43913,0.79952 -0.59964,0.23985 -1.27922,0.43973 -2.15869,0.59963 -0.83949,0.15991 -1.87886,0.27983 -3.11811,0.35979 l -3.43792,0.23985 4.87705,4.43731 c 0.04,0.04 0.0799,0.0799 0.11992,0.1599 0,0.04 0,0.11993 0,0.19988 0,0.0799 -0.04,0.15991 -0.11992,0.23986 -0.04,0.11993 -0.11993,0.19988 -0.19988,0.3198 z" style="fill:#000000;fill-opacity:1;fill-rule:nonzero;stroke:none" inkscape:connector-curvature="0"/>
  <text id="text49" y="132.18103" x="188.52879" style="font-style:normal;font-variant:normal;font-weight:400;font-size:24px;line-height:125%;font-family:Calibri;text-align:start;letter-spacing:0px;word-spacing:0px;text-anchor:start;fill:#000000;fill-opacity:1;stroke:none" xml:space="preserve" sodipodi:linespacing="125%"><tspan id="tspan47" y="132.18103" x="188.52879"><tspan id="tspan45" style="font-style:normal;font-variant:normal;font-weight:400;font-size:24px;font-family:Calibri;fill:#c00000" dy="0" dx="0">Gene A</tspan></tspan></text>
  <text id="text55" y="230.59467" x="189.36964" style="font-style:normal;font-variant:normal;font-weight:400;font-size:24px;line-height:125%;font-family:Calibri;text-align:start;letter-spacing:0px;word-spacing:0px;text-anchor:start;fill:#000000;fill-opacity:1;stroke:none" xml:space="preserve" sodipodi:linespacing="125%"><tspan id="tspan53" y="230.59467" x="189.36964"><tspan id="tspan51" style="font-style:normal;font-variant:normal;font-weight:400;font-size:24px;font-family:Calibri;fill:#0070c0" dy="0" dx="0">Gene B</tspan></tspan></text>
  <text id="text61" y="429.55209" x="189.68945" style="font-style:normal;font-variant:normal;font-weight:400;font-size:24px;line-height:125%;font-family:Calibri;text-align:start;letter-spacing:0px;word-spacing:0px;text-anchor:start;fill:#000000;fill-opacity:1;stroke:none" xml:space="preserve" sodipodi:linespacing="125%"><tspan id="tspan59" y="429.55209" x="189.68945"><tspan id="tspan57" style="font-style:normal;font-variant:normal;font-weight:400;font-size:24px;font-family:Calibri;fill:#404040" dy="0" dx="0">Gene C</tspan></tspan></text>
  <text id="text67" y="181.02101" x="24.861067" style="font-style:normal;font-variant:normal;font-weight:700;font-size:24px;line-height:125%;font-family:Calibri;text-align:start;letter-spacing:0px;word-spacing:0px;text-anchor:start;fill:#000000;fill-opacity:1;stroke:none" xml:space="preserve" sodipodi:linespacing="125%"><tspan id="tspan65" y="181.02101" x="24.861067"><tspan id="tspan63" style="font-style:normal;font-variant:normal;font-weight:700;font-size:24px;font-family:Calibri;fill:#000000" dy="0" dx="0">Gene A</tspan></tspan></text>
  <text id="text73" y="393.21902" x="445.72778" style="font-style:normal;font-variant:normal;font-weight:700;font-size:24px;line-height:125%;font-family:Calibri;text-align:start;letter-spacing:0px;word-spacing:0px;text-anchor:start;fill:#000000;fill-opacity:1;stroke:none" xml:space="preserve" sodipodi:linespacing="125%"><tspan id="tspan71" y="393.21902" x="445.72778"><tspan id="tspan69" style="font-style:normal;font-variant:normal;font-weight:700;font-size:24px;font-family:Calibri;fill:#404040" dy="0" dx="0">Gene</tspan></tspan></text>
  <text id="text79" y="393.21902" x="503.29291" style="font-style:normal;font-variant:normal;font-weight:700;font-size:24px;line-height:125%;font-family:Calibri;text-align:start;letter-spacing:0px;word-spacing:0px;text-anchor:start;fill:#000000;fill-opacity:1;stroke:none" xml:space="preserve" sodipodi:linespacing="125%"><tspan id="tspan77" y="393.21902" x="503.29291"><tspan id="tspan75" style="font-style:normal;font-variant:normal;font-weight:700;font-size:24px;font-family:Calibri;fill:#404040" dy="0" dx="0">C</tspan></tspan></text>
  <text id="text85" y="392.246" x="26.871176" style="font-style:normal;font-variant:normal;font-weight:700;font-size:24px;line-height:125%;font-family:Calibri;text-align:start;letter-spacing:0px;word-spacing:0px;text-anchor:start;fill:#000000;fill-opacity:1;stroke:none" xml:space="preserve" sodipodi:linespacing="125%"><tspan id="tspan83" y="392.246" x="26.871176"><tspan id="tspan81" style="font-style:normal;font-variant:normal;font-weight:700;font-size:24px;font-family:Calibri;fill:#000000" dy="0" dx="0">Gene C</tspan></tspan></text>
  <text id="text91" y="48.207245" x="83.239746" style="font-style:normal;font-variant:normal;font-weight:400;font-size:24px;line-height:125%;font-family:Calibri;text-align:start;letter-spacing:0px;word-spacing:0px;text-anchor:start;fill:#000000;fill-opacity:1;stroke:none" xml:space="preserve" sodipodi:linespacing="125%"><tspan id="tspan89" y="48.207245" x="83.239746"><tspan id="tspan87" style="font-style:normal;font-variant:normal;font-weight:400;font-size:24px;font-family:Calibri;fill:#000000" dy="0" dx="0">Gene</tspan></tspan></text>
  <text id="text97" y="76.989792" x="26.314249" style="font-style:normal;font-variant:normal;font-weight:400;font-size:24px;line-height:125%;font-family:Calibri;text-align:start;letter-spacing:0px;word-spacing:0px;text-anchor:start;fill:#000000;fill-opacity:1;stroke:none" xml:space="preserve" sodipodi:linespacing="125%"><tspan id="tspan95" y="76.989792" x="26.314249"><tspan id="tspan93" style="font-style:normal;font-variant:normal;font-weight:400;font-size:24px;font-family:Calibri;fill:#000000" dy="0" dx="0">duplication</tspan></tspan></text>
  <text id="text103" y="53.439133" x="445.72968" style="font-style:normal;font-variant:normal;font-weight:700;font-size:24px;line-height:125%;font-family:Calibri;text-align:start;letter-spacing:0px;word-spacing:0px;text-anchor:start;fill:#000000;fill-opacity:1;stroke:none" xml:space="preserve" sodipodi:linespacing="125%"><tspan id="tspan101" y="53.439133" x="445.72968"><tspan id="tspan99" style="font-style:normal;font-variant:normal;font-weight:700;font-size:24px;font-family:Calibri;fill:#c00000" dy="0" dx="0">Gene A</tspan></tspan></text>
  <text id="text109" y="59.355549" x="517.84595" style="font-style:normal;font-variant:normal;font-weight:700;font-size:16px;line-height:125%;font-family:Calibri;text-align:start;letter-spacing:0px;word-spacing:0px;text-anchor:start;fill:#000000;fill-opacity:1;stroke:none" xml:space="preserve" sodipodi:linespacing="125%"><tspan id="tspan107" y="59.355549" x="517.84595"><tspan id="tspan105" style="font-style:normal;font-variant:normal;font-weight:700;font-size:16px;font-family:Calibri;fill:#c00000" dy="0" dx="0">1</tspan></tspan></text>
  <text id="text115" y="87.649269" x="445.72958" style="font-style:normal;font-variant:normal;font-weight:700;font-size:24px;line-height:125%;font-family:Calibri;text-align:start;letter-spacing:0px;word-spacing:0px;text-anchor:start;fill:#000000;fill-opacity:1;stroke:none" xml:space="preserve" sodipodi:linespacing="125%"><tspan id="tspan113" y="87.649269" x="445.72958"><tspan id="tspan111" style="font-style:normal;font-variant:normal;font-weight:700;font-size:24px;font-family:Calibri;fill:#0070c0" dy="0" dx="0">Gene B</tspan></tspan></text>
  <text id="text121" y="93.565681" x="516.72656" style="font-style:normal;font-variant:normal;font-weight:700;font-size:16px;line-height:125%;font-family:Calibri;text-align:start;letter-spacing:0px;word-spacing:0px;text-anchor:start;fill:#000000;fill-opacity:1;stroke:none" xml:space="preserve" sodipodi:linespacing="125%"><tspan id="tspan119" y="93.565681" x="516.72656"><tspan id="tspan117" style="font-style:normal;font-variant:normal;font-weight:700;font-size:16px;font-family:Calibri;fill:#0070c0" dy="0" dx="0">1</tspan></tspan></text>
  <text id="text127" y="275.53204" x="445.72958" style="font-style:normal;font-variant:normal;font-weight:700;font-size:24px;line-height:125%;font-family:Calibri;text-align:start;letter-spacing:0px;word-spacing:0px;text-anchor:start;fill:#000000;fill-opacity:1;stroke:none" xml:space="preserve" sodipodi:linespacing="125%"><tspan id="tspan125" y="275.53204" x="445.72958"><tspan id="tspan123" style="font-style:normal;font-variant:normal;font-weight:700;font-size:24px;font-family:Calibri;fill:#c00000" dy="0" dx="0">Gene </tspan></tspan></text>
  <text id="text133" y="275.53204" x="503.29471" style="font-style:normal;font-variant:normal;font-weight:700;font-size:24px;line-height:125%;font-family:Calibri;text-align:start;letter-spacing:0px;word-spacing:0px;text-anchor:start;fill:#000000;fill-opacity:1;stroke:none" xml:space="preserve" sodipodi:linespacing="125%"><tspan id="tspan131" y="275.53204" x="503.29471"><tspan id="tspan129" style="font-style:normal;font-variant:normal;font-weight:700;font-size:24px;font-family:Calibri;fill:#c00000" dy="0" dx="0">A</tspan></tspan></text>
  <text id="text139" y="281.44846" x="517.84589" style="font-style:normal;font-variant:normal;font-weight:700;font-size:16px;line-height:125%;font-family:Calibri;text-align:start;letter-spacing:0px;word-spacing:0px;text-anchor:start;fill:#000000;fill-opacity:1;stroke:none" xml:space="preserve" sodipodi:linespacing="125%"><tspan id="tspan137" y="281.44846" x="517.84589"><tspan id="tspan135" style="font-style:normal;font-variant:normal;font-weight:700;font-size:16px;font-family:Calibri;fill:#c00000" dy="0" dx="0">2</tspan></tspan></text>
  <text id="text145" y="310.58868" x="445.73007" style="font-style:normal;font-variant:normal;font-weight:700;font-size:24px;line-height:125%;font-family:Calibri;text-align:start;letter-spacing:0px;word-spacing:0px;text-anchor:start;fill:#000000;fill-opacity:1;stroke:none" xml:space="preserve" sodipodi:linespacing="125%"><tspan id="tspan143" y="310.58868" x="445.73007"><tspan id="tspan141" style="font-style:normal;font-variant:normal;font-weight:700;font-size:24px;font-family:Calibri;fill:#0070c0" dy="0" dx="0">Gene </tspan></tspan></text>
  <text id="text151" y="310.58868" x="503.29517" style="font-style:normal;font-variant:normal;font-weight:700;font-size:24px;line-height:125%;font-family:Calibri;text-align:start;letter-spacing:0px;word-spacing:0px;text-anchor:start;fill:#000000;fill-opacity:1;stroke:none" xml:space="preserve" sodipodi:linespacing="125%"><tspan id="tspan149" y="310.58868" x="503.29517"><tspan id="tspan147" style="font-style:normal;font-variant:normal;font-weight:700;font-size:24px;font-family:Calibri;fill:#0070c0" dy="0" dx="0">B</tspan></tspan></text>
  <text id="text157" y="316.5051" x="516.72705" style="font-style:normal;font-variant:normal;font-weight:700;font-size:16px;line-height:125%;font-family:Calibri;text-align:start;letter-spacing:0px;word-spacing:0px;text-anchor:start;fill:#000000;fill-opacity:1;stroke:none" xml:space="preserve" sodipodi:linespacing="125%"><tspan id="tspan155" y="316.5051" x="516.72705"><tspan id="tspan153" style="font-style:normal;font-variant:normal;font-weight:700;font-size:16px;font-family:Calibri;fill:#0070c0" dy="0" dx="0">2</tspan></tspan></text>
  <text id="text163" y="-569.43335" x="55.337406" transform="matrix(0,1,-1,0,0,0)" style="font-style:normal;font-variant:normal;font-weight:400;font-size:24px;line-height:125%;font-family:Calibri;text-align:start;letter-spacing:0px;word-spacing:0px;text-anchor:start;fill:#000000;fill-opacity:1;stroke:none" xml:space="preserve" sodipodi:linespacing="125%"><tspan id="tspan161" y="-569.43335" x="55.337406"><tspan id="tspan159" style="font-style:normal;font-variant:normal;font-weight:400;font-size:24px;font-family:Calibri;fill:#000000" dy="0" dx="0">Paralog</tspan></tspan></text>
  <text id="text169" y="-618.87982" x="55.337467" transform="matrix(0,1,-1,0,0,0)" style="font-style:normal;font-variant:normal;font-weight:400;font-size:24px;line-height:125%;font-family:Calibri;text-align:start;letter-spacing:0px;word-spacing:0px;text-anchor:start;fill:#000000;fill-opacity:1;stroke:none" xml:space="preserve" sodipodi:linespacing="125%"><tspan id="tspan167" y="-618.87982" x="55.337467"><tspan id="tspan165" style="font-style:normal;font-variant:normal;font-weight:400;font-size:24px;font-family:Calibri;fill:#000000" dy="0" dx="0">Ortholog</tspan></tspan></text>
  <text id="text175" y="-672.44525" x="55.337467" transform="matrix(0,1,-1,0,0,0)" style="font-style:normal;font-variant:normal;font-weight:400;font-size:24px;line-height:125%;font-family:Calibri;text-align:start;letter-spacing:0px;word-spacing:0px;text-anchor:start;fill:#000000;fill-opacity:1;stroke:none" xml:space="preserve" sodipodi:linespacing="125%"><tspan id="tspan173" y="-672.44525" x="55.337467"><tspan id="tspan171" style="font-style:normal;font-variant:normal;font-weight:400;font-size:24px;font-family:Calibri;fill:#000000" dy="0" dx="0">Analog</tspan></tspan></text>
  <path id="path177" d="m 542.16708,45.459721 117.72865,0 0,339.993949 -127.84252,0" style="fill:none;stroke:#a6a6a6;stroke-width:3.99757719px;stroke-linecap:round;stroke-linejoin:round;stroke-miterlimit:4;stroke-dasharray:none;stroke-opacity:1" inkscape:connector-curvature="0"/>
  <path id="path179" d="m 303.79155,189.51242 0,0 c 0,-1.09934 -0.87947,-1.99879 -1.99879,-1.99879 -1.09933,0 -1.99879,0.89945 -1.99879,1.99879 l 0,0 c 0,1.09933 0.89946,1.99879 1.99879,1.99879 1.11932,0 1.99879,-0.89946 1.99879,-1.99879 z m 0,-7.99516 0,0 c 0,-1.11932 -0.87947,-1.99878 -1.99879,-1.99878 -1.09933,0 -1.99879,0.87946 -1.99879,1.99878 l 0,0 c 0,1.09934 0.89946,1.99879 1.99879,1.99879 1.11932,0 1.99879,-0.89945 1.99879,-1.99879 z m 0,-7.99515 0,0 c 0,-1.11932 -0.87947,-1.99879 -1.99879,-1.99879 -1.09933,0 -1.99879,0.87947 -1.99879,1.99879 l 0,0 c 0,1.09933 0.89946,1.99879 1.99879,1.99879 1.11932,0 1.99879,-0.89946 1.99879,-1.99879 z m 0,-7.99515 0,-0.02 c 0,-1.09934 -0.87947,-1.99879 -1.99879,-1.99879 -1.09933,0 -1.99879,0.89945 -1.99879,1.99879 l 0,0.02 c 0,1.09933 0.89946,1.99878 1.99879,1.99878 1.11932,0 1.99879,-0.89945 1.99879,-1.99878 z m 0,-8.01515 0,0 c 0,-1.09933 -0.87947,-1.99879 -1.99879,-1.99879 -1.09933,0 -1.99879,0.89946 -1.99879,1.99879 l 0,0 c 0,1.11932 0.89946,1.99879 1.99879,1.99879 1.11932,0 1.99879,-0.87947 1.99879,-1.99879 z m 0,-7.99515 0,0 c 0,-1.09934 -0.87947,-1.99879 -1.99879,-1.99879 -1.09933,0 -1.99879,0.89945 -1.99879,1.99879 l 0,0 c 0,1.09933 0.89946,1.99879 1.99879,1.99879 1.11932,0 1.99879,-0.89946 1.99879,-1.99879 z m 0,-7.99516 0,0 c 0,-1.11932 -0.87947,-1.99878 -1.99879,-1.99878 -1.09933,0 -1.99879,0.87946 -1.99879,1.99878 l 0,0 c 0,1.09934 0.89946,1.99879 1.99879,1.99879 1.11932,0 1.99879,-0.89945 1.99879,-1.99879 z m 0,-7.99515 0,0 c 0,-1.11932 -0.87947,-1.99879 -1.99879,-1.99879 -1.09933,0 -1.99879,0.87947 -1.99879,1.99879 l 0,0 c 0,1.09933 0.89946,1.99879 1.99879,1.99879 1.11932,0 1.99879,-0.89946 1.99879,-1.99879 z m 0,-7.99516 0,-0.02 c 0,-1.09934 -0.87947,-1.99879 -1.99879,-1.99879 -1.09933,0 -1.99879,0.89945 -1.99879,1.99879 l 0,0.02 c 0,1.09934 0.89946,1.99879 1.99879,1.99879 1.11932,0 1.99879,-0.89945 1.99879,-1.99879 z m 0,-8.01514 0,0 c 0,-1.09933 -0.87947,-1.99879 -1.99879,-1.99879 -1.09933,0 -1.99879,0.89946 -1.99879,1.99879 l 0,0 c 0,1.11932 0.89946,1.99879 1.99879,1.99879 1.11932,0 1.99879,-0.87947 1.99879,-1.99879 z m 0,-7.99515 0,0 c 0,-1.09934 -0.87947,-1.99879 -1.99879,-1.99879 -1.09933,0 -1.99879,0.89945 -1.99879,1.99879 l 0,0 c 0,1.09933 0.89946,1.99879 1.99879,1.99879 1.11932,0 1.99879,-0.89946 1.99879,-1.99879 z m 0,-7.99516 0,0 c 0,-1.11932 -0.87947,-1.998787 -1.99879,-1.998787 -1.09933,0 -1.99879,0.879467 -1.99879,1.998787 l 0,0 c 0,1.09934 0.89946,1.99879 1.99879,1.99879 1.11932,0 1.99879,-0.89945 1.99879,-1.99879 z m 0,-7.995153 0,0 c 0,-1.119321 -0.87947,-1.998788 -1.99879,-1.998788 -1.09933,0 -1.99879,0.879467 -1.99879,1.998788 l 0,0 c 0,1.099334 0.89946,1.998789 1.99879,1.998789 1.11932,0 1.99879,-0.899455 1.99879,-1.998789 z m 0,-7.995154 0,-0.01999 c 0,-1.099334 -0.87947,-1.998789 -1.99879,-1.998789 -1.09933,0 -1.99879,0.899455 -1.99879,1.998789 l 0,0.01999 c 0,1.099334 0.89946,1.998788 1.99879,1.998788 1.11932,0 1.99879,-0.899454 1.99879,-1.998788 z m 0,-8.015143 0,0 c 0,-1.099333 -0.87947,-1.998788 -1.99879,-1.998788 -1.09933,0 -1.99879,0.899455 -1.99879,1.998788 l 0,0 c 0,1.119322 0.89946,1.998789 1.99879,1.998789 1.11932,0 1.99879,-0.879467 1.99879,-1.998789 z m 0,-7.995154 0,0 c 0,-1.099334 -0.87947,-1.998789 -1.99879,-1.998789 -1.09933,0 -1.99879,0.899455 -1.99879,1.998789 l 0,0 c 0,1.099334 0.89946,1.998789 1.99879,1.998789 1.11932,0 1.99879,-0.899455 1.99879,-1.998789 z m 0,-7.995154 0,0 c 0,-1.119322 -0.87947,-1.998789 -1.99879,-1.998789 -1.09933,0 -1.99879,0.879467 -1.99879,1.998789 l 0,0 c 0,1.099333 0.89946,1.998788 1.99879,1.998788 1.11932,0 1.99879,-0.899455 1.99879,-1.998788 z m 0,-7.995155 0,0 c 0,-1.119322 -0.87947,-1.998789 -1.99879,-1.998789 -1.09933,0 -1.99879,0.879467 -1.99879,1.998789 l 0,0 c 0,1.099334 0.89946,1.998789 1.99879,1.998789 1.11932,0 1.99879,-0.899455 1.99879,-1.998789 z m 0,-7.995154 0,-0.01999 c 0,-1.099334 -0.87947,-1.998789 -1.99879,-1.998789 -1.09933,0 -1.99879,0.899455 -1.99879,1.998789 l 0,0.01999 c 0,1.099333 0.89946,1.998788 1.99879,1.998788 1.11932,0 1.99879,-0.899455 1.99879,-1.998788 z m 0,-8.015143 0,0 c 0,-1.099333 -0.87947,-1.998788 -1.99879,-1.998788 -1.09933,0 -1.99879,0.899455 -1.99879,1.998788 l 0,0 c 0,1.119322 0.89946,1.998789 1.99879,1.998789 1.11932,0 1.99879,-0.879467 1.99879,-1.998789 z m 0,-7.995154 0,0 c 0,-1.099334 -0.87947,-1.998789 -1.99879,-1.998789 -1.09933,0 -1.99879,0.899455 -1.99879,1.998789 l 0,0 c 0,1.099334 0.89946,1.998788 1.99879,1.998788 1.11932,0 1.99879,-0.899454 1.99879,-1.998788 z" style="fill:#000000;fill-opacity:1;fill-rule:nonzero;stroke:#000000;stroke-width:0.01998789px;stroke-linecap:butt;stroke-linejoin:round;stroke-miterlimit:4;stroke-dasharray:none;stroke-opacity:1" inkscape:connector-curvature="0"/>
  <path id="path181" d="m 146.44691,173.50212 0,0 c 0,-1.11932 -0.87947,-1.99879 -1.99879,-1.99879 -1.09933,0 -1.99879,0.87947 -1.99879,1.99879 l 0,0 c 0,1.09934 0.89946,1.99879 1.99879,1.99879 1.11932,0 1.99879,-0.89945 1.99879,-1.99879 z m 0,-7.99515 0,-0.02 c 0,-1.09933 -0.87947,-1.99879 -1.99879,-1.99879 -1.09933,0 -1.99879,0.89946 -1.99879,1.99879 l 0,0.02 c 0,1.09933 0.89946,1.99879 1.99879,1.99879 1.11932,0 1.99879,-0.89946 1.99879,-1.99879 z m 0,-8.01515 0,0 c 0,-1.09933 -0.87947,-1.99878 -1.99879,-1.99878 -1.09933,0 -1.99879,0.89945 -1.99879,1.99878 l 0,0 c 0,1.11933 0.89946,1.99879 1.99879,1.99879 1.11932,0 1.99879,-0.87946 1.99879,-1.99879 z m 0,-7.99515 0,0 c 0,-1.09933 -0.87947,-1.99879 -1.99879,-1.99879 -1.09933,0 -1.99879,0.89946 -1.99879,1.99879 l 0,0 c 0,1.09933 0.89946,1.99879 1.99879,1.99879 1.11932,0 1.99879,-0.89946 1.99879,-1.99879 z m 0,-7.99515 0,0 c 0,-1.09934 -0.87947,-1.99879 -1.99879,-1.99879 -1.09933,0 -1.99879,0.89945 -1.99879,1.99879 l 0,0 c 0,1.09933 0.89946,1.99878 1.99879,1.99878 1.11932,0 1.99879,-0.89945 1.99879,-1.99878 z m 0,-7.99516 0,0 c 0,-1.11932 -0.87947,-1.99879 -1.99879,-1.99879 -1.09933,0 -1.99879,0.87947 -1.99879,1.99879 l 0,0 c 0,1.09934 0.89946,1.99879 1.99879,1.99879 1.11932,0 1.99879,-0.89945 1.99879,-1.99879 z m 0,-7.99515 0,-0.02 c 0,-1.09933 -0.87947,-1.99879 -1.99879,-1.99879 -1.09933,0 -1.99879,0.89946 -1.99879,1.99879 l 0,0.02 c 0,1.09933 0.89946,1.99879 1.99879,1.99879 1.11932,0 1.99879,-0.89946 1.99879,-1.99879 z m 0,-8.01515 0,0 c 0,-1.09933 -0.87947,-1.99878 -1.99879,-1.99878 -1.09933,0 -1.99879,0.89945 -1.99879,1.99878 l 0,0 c 0,1.11933 0.89946,1.99879 1.99879,1.99879 1.11932,0 1.99879,-0.87946 1.99879,-1.99879 z m 0,-7.99515 0,0 c 0,-1.09933 -0.87947,-1.99879 -1.99879,-1.99879 -1.09933,0 -1.99879,0.89946 -1.99879,1.99879 l 0,0 c 0,1.09933 0.89946,1.99879 1.99879,1.99879 1.11932,0 1.99879,-0.89946 1.99879,-1.99879 z m 0,-7.99516 0,0 c 0,-1.09933 -0.87947,-1.998785 -1.99879,-1.998785 -1.09933,0 -1.99879,0.899455 -1.99879,1.998785 l 0,0 c 0,1.09934 0.89946,1.99879 1.99879,1.99879 1.11932,0 1.99879,-0.89945 1.99879,-1.99879 z m 0,-7.995151 0,0 c 0,-1.119321 -0.87947,-1.998788 -1.99879,-1.998788 -1.09933,0 -1.99879,0.879467 -1.99879,1.998788 l 0,0 c 0,1.099334 0.89946,1.998789 1.99879,1.998789 1.11932,0 1.99879,-0.899455 1.99879,-1.998789 z m 0,-7.995154 0,-0.01999 c 0,-1.099334 -0.87947,-1.998789 -1.99879,-1.998789 -1.09933,0 -1.99879,0.899455 -1.99879,1.998789 l 0,0.01999 c 0,1.099334 0.89946,1.998789 1.99879,1.998789 1.11932,0 1.99879,-0.899455 1.99879,-1.998789 z m 0,-8.015142 0,0 c 0,-1.099334 -0.87947,-1.998789 -1.99879,-1.998789 -1.09933,0 -1.99879,0.899455 -1.99879,1.998789 l 0,0 c 0,1.119321 0.89946,1.998788 1.99879,1.998788 1.11932,0 1.99879,-0.879467 1.99879,-1.998788 z m 0,-7.995155 0,0 c 0,-1.099334 -0.87947,-1.998789 -1.99879,-1.998789 -1.09933,0 -1.99879,0.899455 -1.99879,1.998789 l 0,0 c 0,1.099334 0.89946,1.998789 1.99879,1.998789 1.11932,0 1.99879,-0.899455 1.99879,-1.998789 z m 0,-7.995154 0,0 c 0,-1.099334 -0.87947,-1.998789 -1.99879,-1.998789 -1.09933,0 -1.99879,0.899455 -1.99879,1.998789 l 0,0 c 0,1.099333 0.89946,1.998788 1.99879,1.998788 1.11932,0 1.99879,-0.899455 1.99879,-1.998788 z m 0,-7.995155 0,0 c 0,-1.119321 -0.87947,-1.998788 -1.99879,-1.998788 -1.09933,0 -1.99879,0.879467 -1.99879,1.998788 l 0,0 c 0,1.099334 0.89946,1.998789 1.99879,1.998789 1.11932,0 1.99879,-0.899455 1.99879,-1.998789 z m 0,-7.995154 0,-0.01999 c 0,-1.099334 -0.87947,-1.998789 -1.99879,-1.998789 -1.09933,0 -1.99879,0.899455 -1.99879,1.998789 l 0,0.01999 c 0,1.099333 0.89946,1.998788 1.99879,1.998788 1.11932,0 1.99879,-0.899455 1.99879,-1.998788 z m 0,-8.015143 0,0 c 0,-1.099333 -0.87947,-1.998788 -1.99879,-1.998788 -1.09933,0 -1.99879,0.899455 -1.99879,1.998788 l 0,0 c 0,1.119322 0.89946,1.998789 1.99879,1.998789 1.11932,0 1.99879,-0.879467 1.99879,-1.998789 z m 0,-7.995154 0,0 c 0,-1.099334 -0.87947,-1.998789 -1.99879,-1.998789 -1.09933,0 -1.99879,0.899455 -1.99879,1.998789 l 0,0 c 0,1.099334 0.89946,1.998789 1.99879,1.998789 1.11932,0 1.99879,-0.899455 1.99879,-1.998789 z" style="fill:#000000;fill-opacity:1;fill-rule:nonzero;stroke:#000000;stroke-width:0.01998789px;stroke-linecap:butt;stroke-linejoin:round;stroke-miterlimit:4;stroke-dasharray:none;stroke-opacity:1" inkscape:connector-curvature="0"/>
  <text id="text187" y="429.55197" x="316.60519" style="font-style:normal;font-variant:normal;font-weight:400;font-size:24px;line-height:125%;font-family:Calibri;text-align:start;letter-spacing:0px;word-spacing:0px;text-anchor:start;fill:#000000;fill-opacity:1;stroke:none" xml:space="preserve" sodipodi:linespacing="125%"><tspan id="tspan185" y="429.55197" x="316.60519"><tspan id="tspan183" style="font-style:normal;font-variant:normal;font-weight:400;font-size:24px;font-family:Calibri;fill:#404040" dy="0" dx="0">Species 3</tspan></tspan></text>
  <path id="path189" d="m 533.41238,45.459721 23.98547,0 0,34.219261 -25.02484,0" style="fill:none;stroke:#a6a6a6;stroke-width:3.99757719px;stroke-linecap:round;stroke-linejoin:round;stroke-miterlimit:4;stroke-dasharray:none;stroke-opacity:1" inkscape:connector-curvature="0"/>
  <path id="path191" d="m 542.16708,45.459721 64.56087,0 0,222.864929 -74.67474,0" style="fill:none;stroke:#a6a6a6;stroke-width:3.99757719px;stroke-linecap:round;stroke-linejoin:round;stroke-miterlimit:4;stroke-dasharray:none;stroke-opacity:1" inkscape:connector-curvature="0"/>
</svg>