<?xml version="1.0" encoding="UTF-8"?><svg id="Layer_1" xmlns="http://www.w3.org/2000/svg" viewBox="0 0 1764.1 439.59"><defs><style>.cls-1{stroke-width:5px;}.cls-1,.cls-2,.cls-3,.cls-4{stroke:#000;}.cls-1,.cls-2,.cls-3,.cls-4,.cls-5{stroke-miterlimit:10;}.cls-2{fill:#2297e6;}.cls-3,.cls-4{stroke-width:2px;}.cls-3,.cls-5{fill:none;}.cls-5{stroke:#2297e6;}</style></defs><g><path d="M60.27,25.89c-3.72,0-7.05-3.15-7.05-7.47V4.59h2.52v13.89c0,3.87,2.28,5.73,4.56,5.73s4.65-1.77,4.65-5.76V4.59h2.28v13.83c0,4.32-3.24,7.47-6.96,7.47Z"/><path d="M79.89,25.41v-8.52c0-1.02-.09-2.79-2.73-2.79-2.04,0-2.76,2.16-2.76,4.05v7.26h-2.28V12.42h2.19v1.86c.84-1.02,2.1-2.01,4.02-2.01,3.39,0,3.84,2.49,3.84,4.38v8.76h-2.28Z"/><path d="M96.21,14.01c-.45,0-1.71,.09-1.8,.09h-.09c.27,.36,.93,1.41,.93,2.85,0,2.58-2.07,4.68-4.56,4.68-1.23,0-2.16-.51-2.61-.84,0,0-.3,.42-.3,1.02,0,1.53,1.2,1.53,1.65,1.53h2.43c1.26,0,5.85,.03,5.85,4.17,0,2.22-2.73,4.02-6.27,4.02s-6.24-1.8-6.24-3.99c0-.57,.21-2.04,1.77-3-.33-.42-.75-1.17-.75-2.22,0-.9,.3-1.71,.84-2.46-.06-.06-.96-1.29-.96-2.91,0-2.52,1.98-4.68,4.59-4.68,.69,0,1.71,.15,2.7,.93,1.2-.57,2.67-.9,4.38-.93l.33,1.86c-.84-.09-.93-.12-1.89-.12Zm-4.38,11.52h-2.43c-2.07,0-2.07,1.86-2.07,2.01,0,1.35,1.86,2.34,4.14,2.34s4.11-1.02,4.11-2.31c0-2.04-3.03-2.04-3.75-2.04Zm-1.17-11.61c-.78,0-2.43,.42-2.43,3.03,0,2.4,1.44,3.03,2.46,3.03,.78,0,2.43-.42,2.43-3.03,0-2.4-1.44-3.03-2.46-3.03Z"/><path d="M107.88,25.41v-1.11c-1.74,1.29-4.17,1.35-4.62,1.35-2.49,0-3.24-2.43-3.24-3.66,0-2.37,3-3.75,7.8-3.9v-1.14c0-1.86-.93-3.03-2.46-3.03-2.16,0-3.45,.87-4.2,1.41l-.18-1.98c1.65-.96,3.09-1.2,4.41-1.2,2.7,0,4.71,1.95,4.71,4.77v8.49h-2.22Zm-.06-5.82c-.93,.03-5.61,.24-5.61,2.34,0,1.05,1.02,1.89,2.52,1.89,.42,0,1.41-.06,2.19-.57,.9-.54,.9-1.26,.9-1.8v-1.86Z"/><path d="M120.36,25.65c-1.44,0-2.79-.63-3.78-1.59v7.2h-2.28V12.51h2.22v1.38c1.35-1.08,3.15-1.62,4.65-1.62,2.58,0,4.38,3.12,4.38,6.66,0,3.84-2.4,6.72-5.19,6.72Zm-.87-11.49c-1.65,0-2.67,1.14-2.91,1.5v5.91c0,.42,0,.87,.81,1.59,.6,.51,1.23,.66,1.83,.66,2.01,0,4.05-1.92,4.05-4.89,0-2.61-1.68-4.77-3.78-4.77Z"/><path d="M134.88,25.65c-1.44,0-2.79-.63-3.78-1.59v7.2h-2.28V12.51h2.22v1.38c1.35-1.08,3.15-1.62,4.65-1.62,2.58,0,4.38,3.12,4.38,6.66,0,3.84-2.4,6.72-5.19,6.72Zm-.87-11.49c-1.65,0-2.67,1.14-2.91,1.5v5.91c0,.42,0,.87,.81,1.59,.6,.51,1.23,.66,1.83,.66,2.01,0,4.05-1.92,4.05-4.89,0-2.61-1.68-4.77-3.78-4.77Z"/><path d="M144.9,18.84c.09,3.36,2.16,4.98,4.08,4.98,1.2,0,2.85-.39,4.29-1.56,0,.12,.09,1.11,.09,1.11,0,0,.09,.69,.09,.81-1.5,1.08-3.15,1.47-4.5,1.47-3.45,0-6.18-3.03-6.18-6.75s2.64-6.75,5.76-6.75c1.29,0,3,.48,4.05,2.19,.96,1.59,1.02,3.51,1.02,4.5h-8.7Zm3.63-4.86c-1.68,0-3,1.56-3.39,3.21h6.48c-.54-3.15-2.64-3.21-3.09-3.21Z"/><path d="M164.37,25.41v-1.5c-.72,.63-2.1,1.74-4.17,1.74-2.67,0-4.8-2.97-4.8-6.69s2.16-6.69,4.89-6.69c1.68,0,3.21,.72,4.14,1.5V4.59h2.22V25.41h-2.28Zm0-9.87c-.63-.9-1.53-1.44-2.64-1.44-1.65,0-4.05,1.11-4.05,4.89s2.13,4.83,3.75,4.83c.69,0,1.41-.24,2.01-.75,.93-.81,.93-1.26,.93-1.68v-5.85Z"/><path d="M193.65,25.41l-2.13-6.06h-8.04l-2.1,6.06h-2.28l7.29-20.82h2.58l7.29,20.82h-2.61Zm-4.8-13.95c-.51-1.53-1.11-3.33-1.32-4.56h-.03c-.21,1.35-2.01,6.57-3.45,10.77h6.9l-2.1-6.21Z"/><path d="M199.29,25.41V4.59h2.22V25.41h-2.22Z"/><path d="M205.86,8.49v-2.52h2.52v2.52h-2.52Zm.12,16.92V12.51h2.22v12.9h-2.22Z"/><path d="M222.24,14.01c-.45,0-1.71,.09-1.8,.09h-.09c.27,.36,.93,1.41,.93,2.85,0,2.58-2.07,4.68-4.56,4.68-1.23,0-2.16-.51-2.61-.84,0,0-.3,.42-.3,1.02,0,1.53,1.2,1.53,1.65,1.53h2.43c1.26,0,5.85,.03,5.85,4.17,0,2.22-2.73,4.02-6.27,4.02s-6.24-1.8-6.24-3.99c0-.57,.21-2.04,1.77-3-.33-.42-.75-1.17-.75-2.22,0-.9,.3-1.71,.84-2.46-.06-.06-.96-1.29-.96-2.91,0-2.52,1.98-4.68,4.59-4.68,.69,0,1.71,.15,2.7,.93,1.2-.57,2.67-.9,4.38-.93l.33,1.86c-.84-.09-.93-.12-1.89-.12Zm-4.38,11.52h-2.43c-2.07,0-2.07,1.86-2.07,2.01,0,1.35,1.86,2.34,4.14,2.34s4.11-1.02,4.11-2.31c0-2.04-3.03-2.04-3.75-2.04Zm-1.17-11.61c-.78,0-2.43,.42-2.43,3.03,0,2.4,1.44,3.03,2.46,3.03,.78,0,2.43-.42,2.43-3.03,0-2.4-1.44-3.03-2.46-3.03Z"/><path d="M234.54,25.41v-8.52c0-1.02-.09-2.79-2.73-2.79-2.04,0-2.76,2.16-2.76,4.05v7.26h-2.28V12.42h2.19v1.86c.84-1.02,2.1-2.01,4.02-2.01,3.39,0,3.84,2.49,3.84,4.38v8.76h-2.28Z"/><path d="M256.89,25.41v-8.52c0-.87,0-2.79-2.73-2.79-2.13,0-2.79,2.28-2.79,4.05v7.26h-2.28v-8.52c0-.87,0-2.79-2.73-2.79-2.13,0-2.79,2.28-2.79,4.05v7.26h-2.28V12.42h2.19v1.86c.69-.84,1.98-2.01,4.02-2.01,1.8,0,3.06,.69,3.6,2.28,.6-.87,1.95-2.28,4.2-2.28,3.36,0,3.87,2.37,3.87,4.38v8.76h-2.28Z"/><path d="M264.45,18.84c.09,3.36,2.16,4.98,4.08,4.98,1.2,0,2.85-.39,4.29-1.56,0,.12,.09,1.11,.09,1.11,0,0,.09,.69,.09,.81-1.5,1.08-3.15,1.47-4.5,1.47-3.45,0-6.18-3.03-6.18-6.75s2.64-6.75,5.76-6.75c1.29,0,3,.48,4.05,2.19,.96,1.59,1.02,3.51,1.02,4.5h-8.7Zm3.63-4.86c-1.68,0-3,1.56-3.39,3.21h6.48c-.54-3.15-2.64-3.21-3.09-3.21Z"/><path d="M283.95,25.41v-8.52c0-1.02-.09-2.79-2.73-2.79-2.04,0-2.76,2.16-2.76,4.05v7.26h-2.28V12.42h2.19v1.86c.84-1.02,2.1-2.01,4.02-2.01,3.39,0,3.84,2.49,3.84,4.38v8.76h-2.28Z"/><path d="M293.67,25.65c-1.98,0-2.37-2.1-2.37-3.81v-7.59h-2.31v-1.74h2.37v-3.69h2.13v3.69h3.9v1.74h-3.9v7.08c0,.75,.06,2.43,1.38,2.43,.93,0,1.8-.36,2.52-.99l.48,1.77c-1.32,.69-2.7,1.11-4.2,1.11Z"/></g><g><polyline class="cls-3" points="9.51 427.52 9.51 64.59 372.44 64.59"/><path d="M9.51,439.59c2.11-5.68,5.7-12.73,9.51-17.09l-9.51,3.44-9.51-3.44c3.81,4.37,7.4,11.42,9.51,17.09Z"/><path d="M384.51,64.59c-5.68,2.11-12.73,5.7-17.09,9.51l3.44-9.51-3.44-9.51c4.37,3.81,11.42,7.4,17.09,9.51Z"/></g><line class="cls-5" x1="79.19" y1="134.27" x2="261.1" y2="316.18"/><line class="cls-4" x1="122.07" y1="177.15" x2="221.5" y2="276.58"/><line class="cls-1" x1="155.88" y1="210.96" x2="174.63" y2="229.71"/><rect class="cls-2" x="469.37" y="64.59" width="155.74" height="155.74"/><rect class="cls-2" x="625.12" y="220.33" width="155.74" height="155.74" transform="translate(1405.98 596.41) rotate(180)"/><g><path d="M535.84,25.65c-2.46,0-4.74-1.2-6.36-3.09-1.77-2.07-2.64-4.74-2.64-7.44s.87-5.4,2.64-7.47c1.62-1.89,3.9-3.09,6.36-3.09,.99,0,1.95,.09,2.94,.33,.96,.24,1.86,.63,2.73,1.11l-.42,2.4c-.75-.6-1.56-1.14-2.46-1.47-.9-.33-1.83-.45-2.79-.45-1.83,0-3.48,1.08-4.56,2.52-1.35,1.74-1.92,3.93-1.92,6.12s.57,4.32,1.92,6.09c1.08,1.47,2.73,2.52,4.56,2.52,1.23,0,2.46-.18,3.63-.57v-4.62h-3.63v-1.86h5.91v7.5c-1.86,.99-3.87,1.47-5.91,1.47Z"/><path d="M553.18,25.41v-1.11c-1.74,1.29-4.17,1.35-4.62,1.35-2.49,0-3.24-2.43-3.24-3.66,0-2.37,3-3.75,7.8-3.9v-1.14c0-1.86-.93-3.03-2.46-3.03-2.16,0-3.45,.87-4.2,1.41l-.18-1.98c1.65-.96,3.09-1.2,4.41-1.2,2.7,0,4.71,1.95,4.71,4.77v8.49h-2.22Zm-.06-5.82c-.93,.03-5.61,.24-5.61,2.34,0,1.05,1.02,1.89,2.52,1.89,.42,0,1.41-.06,2.19-.57,.9-.54,.9-1.26,.9-1.8v-1.86Z"/><path d="M565.66,25.65c-1.44,0-2.79-.63-3.78-1.59v7.2h-2.28V12.51h2.22v1.38c1.35-1.08,3.15-1.62,4.65-1.62,2.58,0,4.38,3.12,4.38,6.66,0,3.84-2.4,6.72-5.19,6.72Zm-.87-11.49c-1.65,0-2.67,1.14-2.91,1.5v5.91c0,.42,0,.87,.81,1.59,.6,.51,1.23,.66,1.83,.66,2.01,0,4.05-1.92,4.05-4.89,0-2.61-1.68-4.77-3.78-4.77Z"/><path d="M580.18,25.65c-1.44,0-2.79-.63-3.78-1.59v7.2h-2.28V12.51h2.22v1.38c1.35-1.08,3.15-1.62,4.65-1.62,2.58,0,4.38,3.12,4.38,6.66,0,3.84-2.4,6.72-5.19,6.72Zm-.87-11.49c-1.65,0-2.67,1.14-2.91,1.5v5.91c0,.42,0,.87,.81,1.59,.6,.51,1.23,.66,1.83,.66,2.01,0,4.05-1.92,4.05-4.89,0-2.61-1.68-4.77-3.78-4.77Z"/><path d="M590.2,18.84c.09,3.36,2.16,4.98,4.08,4.98,1.2,0,2.85-.39,4.29-1.56,0,.12,.09,1.11,.09,1.11,0,0,.09,.69,.09,.81-1.5,1.08-3.15,1.47-4.5,1.47-3.45,0-6.18-3.03-6.18-6.75s2.64-6.75,5.76-6.75c1.29,0,3,.48,4.05,2.19,.96,1.59,1.02,3.51,1.02,4.5h-8.7Zm3.63-4.86c-1.68,0-3,1.56-3.39,3.21h6.48c-.54-3.15-2.64-3.21-3.09-3.21Z"/><path d="M609.67,25.41v-1.5c-.72,.63-2.1,1.74-4.17,1.74-2.67,0-4.8-2.97-4.8-6.69s2.16-6.69,4.89-6.69c1.68,0,3.21,.72,4.14,1.5V4.59h2.22V25.41h-2.28Zm0-9.87c-.63-.9-1.53-1.44-2.64-1.44-1.65,0-4.05,1.11-4.05,4.89s2.13,4.83,3.75,4.83c.69,0,1.41-.24,2.01-.75,.93-.81,.93-1.26,.93-1.68v-5.85Z"/><path d="M638.95,25.41l-2.13-6.06h-8.04l-2.1,6.06h-2.28l7.29-20.82h2.58l7.29,20.82h-2.61Zm-4.8-13.95c-.51-1.53-1.11-3.33-1.32-4.56h-.03c-.21,1.35-2.01,6.57-3.45,10.77h6.9l-2.1-6.21Z"/><path d="M644.59,25.41V4.59h2.22V25.41h-2.22Z"/><path d="M651.16,8.49v-2.52h2.52v2.52h-2.52Zm.12,16.92V12.51h2.22v12.9h-2.22Z"/><path d="M667.54,14.01c-.45,0-1.71,.09-1.8,.09h-.09c.27,.36,.93,1.41,.93,2.85,0,2.58-2.07,4.68-4.56,4.68-1.23,0-2.16-.51-2.61-.84,0,0-.3,.42-.3,1.02,0,1.53,1.2,1.53,1.65,1.53h2.43c1.26,0,5.85,.03,5.85,4.17,0,2.22-2.73,4.02-6.27,4.02s-6.24-1.8-6.24-3.99c0-.57,.21-2.04,1.77-3-.33-.42-.75-1.17-.75-2.22,0-.9,.3-1.71,.84-2.46-.06-.06-.96-1.29-.96-2.91,0-2.52,1.98-4.68,4.59-4.68,.69,0,1.71,.15,2.7,.93,1.2-.57,2.67-.9,4.38-.93l.33,1.86c-.84-.09-.93-.12-1.89-.12Zm-4.38,11.52h-2.43c-2.07,0-2.07,1.86-2.07,2.01,0,1.35,1.86,2.34,4.14,2.34s4.11-1.02,4.11-2.31c0-2.04-3.03-2.04-3.75-2.04Zm-1.17-11.61c-.78,0-2.43,.42-2.43,3.03,0,2.4,1.44,3.03,2.46,3.03,.78,0,2.43-.42,2.43-3.03,0-2.4-1.44-3.03-2.46-3.03Z"/><path d="M679.84,25.41v-8.52c0-1.02-.09-2.79-2.73-2.79-2.04,0-2.76,2.16-2.76,4.05v7.26h-2.28V12.42h2.19v1.86c.84-1.02,2.1-2.01,4.02-2.01,3.39,0,3.84,2.49,3.84,4.38v8.76h-2.28Z"/><path d="M702.19,25.41v-8.52c0-.87,0-2.79-2.73-2.79-2.13,0-2.79,2.28-2.79,4.05v7.26h-2.28v-8.52c0-.87,0-2.79-2.73-2.79-2.13,0-2.79,2.28-2.79,4.05v7.26h-2.28V12.42h2.19v1.86c.69-.84,1.98-2.01,4.02-2.01,1.8,0,3.06,.69,3.6,2.28,.6-.87,1.95-2.28,4.2-2.28,3.36,0,3.87,2.37,3.87,4.38v8.76h-2.28Z"/><path d="M709.75,18.84c.09,3.36,2.16,4.98,4.08,4.98,1.2,0,2.85-.39,4.29-1.56,0,.12,.09,1.11,.09,1.11,0,0,.09,.69,.09,.81-1.5,1.08-3.15,1.47-4.5,1.47-3.45,0-6.18-3.03-6.18-6.75s2.64-6.75,5.76-6.75c1.29,0,3,.48,4.05,2.19,.96,1.59,1.02,3.51,1.02,4.5h-8.7Zm3.63-4.86c-1.68,0-3,1.56-3.39,3.21h6.48c-.54-3.15-2.64-3.21-3.09-3.21Z"/><path d="M729.25,25.41v-8.52c0-1.02-.09-2.79-2.73-2.79-2.04,0-2.76,2.16-2.76,4.05v7.26h-2.28V12.42h2.19v1.86c.84-1.02,2.1-2.01,4.02-2.01,3.39,0,3.84,2.49,3.84,4.38v8.76h-2.28Z"/><path d="M738.97,25.65c-1.98,0-2.37-2.1-2.37-3.81v-7.59h-2.31v-1.74h2.37v-3.69h2.13v3.69h3.9v1.74h-3.9v7.08c0,.75,.06,2.43,1.38,2.43,.93,0,1.8-.36,2.52-.99l.48,1.77c-1.32,.69-2.7,1.11-4.2,1.11Z"/></g><g><polyline class="cls-3" points="469.37 427.52 469.37 64.59 832.3 64.59"/><path d="M469.37,439.59c2.11-5.68,5.7-12.73,9.51-17.09l-9.51,3.44-9.51-3.44c3.81,4.37,7.4,11.42,9.51,17.09Z"/><path d="M844.37,64.59c-5.68,2.11-12.73,5.7-17.09,9.51l3.44-9.51-3.44-9.51c4.37,3.81,11.42,7.4,17.09,9.51Z"/></g><polygon class="cls-2" points="1240.73 306.09 1240.73 376.08 1170.74 376.08 1084.98 290.32 1084.98 220.33 1154.97 220.33 1240.73 306.09"/><polygon class="cls-2" points="929.24 134.57 929.24 64.59 999.22 64.59 1084.98 150.35 1084.98 220.33 1015 220.33 929.24 134.57"/><g><path d="M946.11,25.41h-7.47V4.59h6.69c4.11,0,7.05,2.52,7.05,5.22,0,1.29-.78,3.57-4.68,4.71,3.51,.66,5.46,2.97,5.46,5.25,0,2.94-2.97,5.64-7.05,5.64Zm-1.59-19.14h-3.45v7.41h3.18c3.87,0,5.79-2.04,5.79-3.84,0-1.98-2.43-3.57-5.52-3.57Zm.54,9.24h-3.99v8.22h4.2c3.33,0,5.52-1.95,5.52-3.99,0-2.22-2.49-4.23-5.73-4.23Z"/><path d="M964.11,25.41v-1.11c-1.74,1.29-4.17,1.35-4.62,1.35-2.49,0-3.24-2.43-3.24-3.66,0-2.37,3-3.75,7.8-3.9v-1.14c0-1.86-.93-3.03-2.46-3.03-2.16,0-3.45,.87-4.2,1.41l-.18-1.98c1.65-.96,3.09-1.2,4.41-1.2,2.7,0,4.71,1.95,4.71,4.77v8.49h-2.22Zm-.06-5.82c-.93,.03-5.61,.24-5.61,2.34,0,1.05,1.02,1.89,2.52,1.89,.42,0,1.41-.06,2.19-.57,.9-.54,.9-1.26,.9-1.8v-1.86Z"/><path d="M978.27,25.41v-8.52c0-1.02-.09-2.79-2.73-2.79-2.04,0-2.76,2.16-2.76,4.05v7.26h-2.28V12.42h2.19v1.86c.84-1.02,2.1-2.01,4.02-2.01,3.39,0,3.84,2.49,3.84,4.38v8.76h-2.28Z"/><path d="M992.76,25.41v-1.5c-.72,.63-2.1,1.74-4.17,1.74-2.67,0-4.8-2.97-4.8-6.69s2.16-6.69,4.89-6.69c1.68,0,3.21,.72,4.14,1.5V4.59h2.22V25.41h-2.28Zm0-9.87c-.63-.9-1.53-1.44-2.64-1.44-1.65,0-4.05,1.11-4.05,4.89s2.13,4.83,3.75,4.83c.69,0,1.41-.24,2.01-.75,.93-.81,.93-1.26,.93-1.68v-5.85Z"/><path d="M1000.35,18.84c.09,3.36,2.16,4.98,4.08,4.98,1.2,0,2.85-.39,4.29-1.56,0,.12,.09,1.11,.09,1.11,0,0,.09,.69,.09,.81-1.5,1.08-3.15,1.47-4.5,1.47-3.45,0-6.18-3.03-6.18-6.75s2.64-6.75,5.76-6.75c1.29,0,3,.48,4.05,2.19,.96,1.59,1.02,3.51,1.02,4.5h-8.7Zm3.63-4.86c-1.68,0-3,1.56-3.39,3.21h6.48c-.54-3.15-2.64-3.21-3.09-3.21Z"/><path d="M1019.82,25.41v-1.5c-.72,.63-2.1,1.74-4.17,1.74-2.67,0-4.8-2.97-4.8-6.69s2.16-6.69,4.89-6.69c1.68,0,3.21,.72,4.14,1.5V4.59h2.22V25.41h-2.28Zm0-9.87c-.63-.9-1.53-1.44-2.64-1.44-1.65,0-4.05,1.11-4.05,4.89s2.13,4.83,3.75,4.83c.69,0,1.41-.24,2.01-.75,.93-.81,.93-1.26,.93-1.68v-5.85Z"/><path d="M1044.6,25.65c-2.46,0-4.74-1.2-6.36-3.09-1.77-2.07-2.64-4.74-2.64-7.44s.87-5.4,2.64-7.47c1.62-1.89,3.9-3.09,6.36-3.09,.99,0,1.95,.09,2.94,.33,.96,.24,1.86,.63,2.73,1.11l-.42,2.4c-.75-.6-1.56-1.14-2.46-1.47-.9-.33-1.83-.45-2.79-.45-1.83,0-3.48,1.08-4.56,2.52-1.35,1.74-1.92,3.93-1.92,6.12s.57,4.32,1.92,6.09c1.08,1.47,2.73,2.52,4.56,2.52,1.23,0,2.46-.18,3.63-.57v-4.62h-3.63v-1.86h5.91v7.5c-1.86,.99-3.87,1.47-5.91,1.47Z"/><path d="M1061.94,25.41v-1.11c-1.74,1.29-4.17,1.35-4.62,1.35-2.49,0-3.24-2.43-3.24-3.66,0-2.37,3-3.75,7.8-3.9v-1.14c0-1.86-.93-3.03-2.46-3.03-2.16,0-3.45,.87-4.2,1.41l-.18-1.98c1.65-.96,3.09-1.2,4.41-1.2,2.7,0,4.71,1.95,4.71,4.77v8.49h-2.22Zm-.06-5.82c-.93,.03-5.61,.24-5.61,2.34,0,1.05,1.02,1.89,2.52,1.89,.42,0,1.41-.06,2.19-.57,.9-.54,.9-1.26,.9-1.8v-1.86Z"/><path d="M1074.42,25.65c-1.44,0-2.79-.63-3.78-1.59v7.2h-2.28V12.51h2.22v1.38c1.35-1.08,3.15-1.62,4.65-1.62,2.58,0,4.38,3.12,4.38,6.66,0,3.84-2.4,6.72-5.19,6.72Zm-.87-11.49c-1.65,0-2.67,1.14-2.91,1.5v5.91c0,.42,0,.87,.81,1.59,.6,.51,1.23,.66,1.83,.66,2.01,0,4.05-1.92,4.05-4.89,0-2.61-1.68-4.77-3.78-4.77Z"/><path d="M1088.94,25.65c-1.44,0-2.79-.63-3.78-1.59v7.2h-2.28V12.51h2.22v1.38c1.35-1.08,3.15-1.62,4.65-1.62,2.58,0,4.38,3.12,4.38,6.66,0,3.84-2.4,6.72-5.19,6.72Zm-.87-11.49c-1.65,0-2.67,1.14-2.91,1.5v5.91c0,.42,0,.87,.81,1.59,.6,.51,1.23,.66,1.83,.66,2.01,0,4.05-1.92,4.05-4.89,0-2.61-1.68-4.77-3.78-4.77Z"/><path d="M1098.96,18.84c.09,3.36,2.16,4.98,4.08,4.98,1.2,0,2.85-.39,4.29-1.56,0,.12,.09,1.11,.09,1.11,0,0,.09,.69,.09,.81-1.5,1.08-3.15,1.47-4.5,1.47-3.45,0-6.18-3.03-6.18-6.75s2.64-6.75,5.76-6.75c1.29,0,3,.48,4.05,2.19,.96,1.59,1.02,3.51,1.02,4.5h-8.7Zm3.63-4.86c-1.68,0-3,1.56-3.39,3.21h6.48c-.54-3.15-2.64-3.21-3.09-3.21Z"/><path d="M1118.43,25.41v-1.5c-.72,.63-2.1,1.74-4.17,1.74-2.67,0-4.8-2.97-4.8-6.69s2.16-6.69,4.89-6.69c1.68,0,3.21,.72,4.14,1.5V4.59h2.22V25.41h-2.28Zm0-9.87c-.63-.9-1.53-1.44-2.64-1.44-1.65,0-4.05,1.11-4.05,4.89s2.13,4.83,3.75,4.83c.69,0,1.41-.24,2.01-.75,.93-.81,.93-1.26,.93-1.68v-5.85Z"/><path d="M1147.71,25.41l-2.13-6.06h-8.04l-2.1,6.06h-2.28l7.29-20.82h2.58l7.29,20.82h-2.61Zm-4.8-13.95c-.51-1.53-1.11-3.33-1.32-4.56h-.03c-.21,1.35-2.01,6.57-3.45,10.77h6.9l-2.1-6.21Z"/><path d="M1153.35,25.41V4.59h2.22V25.41h-2.22Z"/><path d="M1159.92,8.49v-2.52h2.52v2.52h-2.52Zm.12,16.92V12.51h2.22v12.9h-2.22Z"/><path d="M1176.3,14.01c-.45,0-1.71,.09-1.8,.09h-.09c.27,.36,.93,1.41,.93,2.85,0,2.58-2.07,4.68-4.56,4.68-1.23,0-2.16-.51-2.61-.84,0,0-.3,.42-.3,1.02,0,1.53,1.2,1.53,1.65,1.53h2.43c1.26,0,5.85,.03,5.85,4.17,0,2.22-2.73,4.02-6.27,4.02s-6.24-1.8-6.24-3.99c0-.57,.21-2.04,1.77-3-.33-.42-.75-1.17-.75-2.22,0-.9,.3-1.71,.84-2.46-.06-.06-.96-1.29-.96-2.91,0-2.52,1.98-4.68,4.59-4.68,.69,0,1.71,.15,2.7,.93,1.2-.57,2.67-.9,4.38-.93l.33,1.86c-.84-.09-.93-.12-1.89-.12Zm-4.38,11.52h-2.43c-2.07,0-2.07,1.86-2.07,2.01,0,1.35,1.86,2.34,4.14,2.34s4.11-1.02,4.11-2.31c0-2.04-3.03-2.04-3.75-2.04Zm-1.17-11.61c-.78,0-2.43,.42-2.43,3.03,0,2.4,1.44,3.03,2.46,3.03,.78,0,2.43-.42,2.43-3.03,0-2.4-1.44-3.03-2.46-3.03Z"/><path d="M1188.6,25.41v-8.52c0-1.02-.09-2.79-2.73-2.79-2.04,0-2.76,2.16-2.76,4.05v7.26h-2.28V12.42h2.19v1.86c.84-1.02,2.1-2.01,4.02-2.01,3.39,0,3.84,2.49,3.84,4.38v8.76h-2.28Z"/><path d="M1210.95,25.41v-8.52c0-.87,0-2.79-2.73-2.79-2.13,0-2.79,2.28-2.79,4.05v7.26h-2.28v-8.52c0-.87,0-2.79-2.73-2.79-2.13,0-2.79,2.28-2.79,4.05v7.26h-2.28V12.42h2.19v1.86c.69-.84,1.98-2.01,4.02-2.01,1.8,0,3.06,.69,3.6,2.28,.6-.87,1.95-2.28,4.2-2.28,3.36,0,3.87,2.37,3.87,4.38v8.76h-2.28Z"/><path d="M1218.51,18.84c.09,3.36,2.16,4.98,4.08,4.98,1.2,0,2.85-.39,4.29-1.56,0,.12,.09,1.11,.09,1.11,0,0,.09,.69,.09,.81-1.5,1.08-3.15,1.47-4.5,1.47-3.45,0-6.18-3.03-6.18-6.75s2.64-6.75,5.76-6.75c1.29,0,3,.48,4.05,2.19,.96,1.59,1.02,3.51,1.02,4.5h-8.7Zm3.63-4.86c-1.68,0-3,1.56-3.39,3.21h6.48c-.54-3.15-2.64-3.21-3.09-3.21Z"/><path d="M1238.01,25.41v-8.52c0-1.02-.09-2.79-2.73-2.79-2.04,0-2.76,2.16-2.76,4.05v7.26h-2.28V12.42h2.19v1.86c.84-1.02,2.1-2.01,4.02-2.01,3.39,0,3.84,2.49,3.84,4.38v8.76h-2.28Z"/><path d="M1247.73,25.65c-1.98,0-2.37-2.1-2.37-3.81v-7.59h-2.31v-1.74h2.37v-3.69h2.13v3.69h3.9v1.74h-3.9v7.08c0,.75,.06,2.43,1.38,2.43,.93,0,1.8-.36,2.52-.99l.48,1.77c-1.32,.69-2.7,1.11-4.2,1.11Z"/></g><g><polyline class="cls-3" points="1135.03 273.47 1129.11 267.56 1129.11 263.39 1120.63 254.91 1120.63 250.19 1112.04 241.6 1106.25 241.6 1063.41 198.77 1063.41 194.52 1055.34 186.45 1055.34 181.36 1043.43 169.45 1043.43 165.36 1031.55 153.47 1027.14 153.47 1020.83 147.16"/><line class="cls-1" x1="1075.61" y1="210.96" x2="1094.36" y2="229.71"/></g><g><polyline class="cls-3" points="675.17 273.47 669.25 267.56 669.25 263.39 660.77 254.91 660.77 250.19 652.18 241.6 646.39 241.6 603.55 198.77 603.55 194.52 595.48 186.45 595.48 181.36 583.57 169.45 583.57 165.36 571.68 153.47 567.28 153.47 560.96 147.16"/><line class="cls-1" x1="615.74" y1="210.96" x2="634.49" y2="229.71"/></g><g><polyline class="cls-3" points="929.24 427.52 929.24 64.59 1292.17 64.59"/><path d="M929.24,439.59c2.11-5.68,5.7-12.73,9.51-17.09l-9.51,3.44-9.51-3.44c3.81,4.37,7.4,11.42,9.51,17.09Z"/><path d="M1304.24,64.59c-5.68,2.11-12.73,5.7-17.09,9.51l3.44-9.51-3.44-9.51c4.37,3.81,11.42,7.4,17.09,9.51Z"/></g><polygon class="cls-2" points="1544.85 264.67 1553.12 264.67 1553.12 273.51 1566.46 273.51 1566.46 282.14 1576.6 282.14 1576.6 290.19 1585.5 290.19 1585.5 295.88 1615.53 265.85 1610.53 260.85 1614.94 256.43 1609.63 251.12 1614.64 246.12 1607.58 239.06 1610.23 236.41 1594.15 220.32 1544.85 220.32 1544.85 264.67"/><polygon class="cls-2" points="1544.85 220.33 1544.85 176.56 1537.86 176.56 1537.86 164.04 1533.51 164.04 1533.51 154.15 1525.06 154.15 1525.06 144.83 1513.42 144.83 1513.42 136.68 1500.09 136.68 1500.09 129.98 1483.14 129.98 1464.8 148.32 1474.12 157.64 1468.73 163.02 1472.37 166.66 1467.71 171.32 1480.78 184.39 1476.85 188.32 1487.07 198.54 1481.8 203.81 1499.2 221.21 1544.85 220.33"/><g><polyline class="cls-3" points="1594.96 273.51 1589.04 267.59 1589.04 263.42 1580.56 254.94 1580.56 250.23 1571.98 241.64 1566.18 241.64 1523.35 198.8 1523.35 194.55 1515.27 186.48 1515.27 181.39 1503.37 169.49 1503.37 165.39 1491.48 153.5 1487.07 153.5 1480.76 147.19"/><line class="cls-1" x1="1535.54" y1="210.99" x2="1554.29" y2="229.74"/></g><g><path d="M1403.91,25.41l-2.13-6.06h-8.04l-2.1,6.06h-2.28l7.29-20.82h2.58l7.29,20.82h-2.61Zm-4.8-13.95c-.51-1.53-1.11-3.33-1.32-4.56h-.03c-.21,1.35-2.01,6.57-3.45,10.77h6.9l-2.1-6.21Z"/><path d="M1416.51,25.41v-1.5c-.72,.63-2.1,1.74-4.17,1.74-2.67,0-4.8-2.97-4.8-6.69s2.16-6.69,4.89-6.69c1.68,0,3.21,.72,4.14,1.5V4.59h2.22V25.41h-2.28Zm0-9.87c-.63-.9-1.53-1.44-2.64-1.44-1.65,0-4.05,1.11-4.05,4.89s2.13,4.83,3.75,4.83c.69,0,1.41-.24,2.01-.75,.93-.81,.93-1.26,.93-1.68v-5.85Z"/><path d="M1430.43,25.41v-1.11c-1.74,1.29-4.17,1.35-4.62,1.35-2.49,0-3.24-2.43-3.24-3.66,0-2.37,3-3.75,7.8-3.9v-1.14c0-1.86-.93-3.03-2.46-3.03-2.16,0-3.45,.87-4.2,1.41l-.18-1.98c1.65-.96,3.09-1.2,4.41-1.2,2.7,0,4.71,1.95,4.71,4.77v8.49h-2.22Zm-.06-5.82c-.93,.03-5.61,.24-5.61,2.34,0,1.05,1.02,1.89,2.52,1.89,.42,0,1.41-.06,2.19-.57,.9-.54,.9-1.26,.9-1.8v-1.86Z"/><path d="M1442.91,25.65c-1.44,0-2.79-.63-3.78-1.59v7.2h-2.28V12.51h2.22v1.38c1.35-1.08,3.15-1.62,4.65-1.62,2.58,0,4.38,3.12,4.38,6.66,0,3.84-2.4,6.72-5.19,6.72Zm-.87-11.49c-1.65,0-2.67,1.14-2.91,1.5v5.91c0,.42,0,.87,.81,1.59,.6,.51,1.23,.66,1.83,.66,2.01,0,4.05-1.92,4.05-4.89,0-2.61-1.68-4.77-3.78-4.77Z"/><path d="M1454.31,25.65c-1.98,0-2.37-2.1-2.37-3.81v-7.59h-2.31v-1.74h2.37v-3.69h2.13v3.69h3.9v1.74h-3.9v7.08c0,.75,.06,2.43,1.38,2.43,.93,0,1.8-.36,2.52-.99l.48,1.77c-1.32,.69-2.7,1.11-4.2,1.11Z"/><path d="M1461.42,8.49v-2.52h2.52v2.52h-2.52Zm.12,16.92V12.51h2.22v12.9h-2.22Z"/><path d="M1473.81,25.41h-2.67l-4.74-12.9h2.4l2.64,7.41,.6,1.98c.15,.54,.39,1.32,.45,1.86h.03c.15-1.29,1.05-3.81,1.68-5.64l2.01-5.61h2.34l-4.74,12.9Z"/><path d="M1482,18.84c.09,3.36,2.16,4.98,4.08,4.98,1.2,0,2.85-.39,4.29-1.56,0,.12,.09,1.11,.09,1.11,0,0,.09,.69,.09,.81-1.5,1.08-3.15,1.47-4.5,1.47-3.45,0-6.18-3.03-6.18-6.75s2.64-6.75,5.76-6.75c1.29,0,3,.48,4.05,2.19,.96,1.59,1.02,3.51,1.02,4.5h-8.7Zm3.63-4.86c-1.68,0-3,1.56-3.39,3.21h6.48c-.54-3.15-2.64-3.21-3.09-3.21Z"/><path d="M1511.73,25.65c-2.46,0-4.74-1.2-6.36-3.09-1.77-2.07-2.64-4.74-2.64-7.44s.87-5.4,2.64-7.47c1.62-1.89,3.9-3.09,6.36-3.09,.99,0,1.95,.09,2.94,.33,.96,.24,1.86,.63,2.73,1.11l-.42,2.4c-.75-.6-1.56-1.14-2.46-1.47-.9-.33-1.83-.45-2.79-.45-1.83,0-3.48,1.08-4.56,2.52-1.35,1.74-1.92,3.93-1.92,6.12s.57,4.32,1.92,6.09c1.08,1.47,2.73,2.52,4.56,2.52,1.23,0,2.46-.18,3.63-.57v-4.62h-3.63v-1.86h5.91v7.5c-1.86,.99-3.87,1.47-5.91,1.47Z"/><path d="M1529.07,25.41v-1.11c-1.74,1.29-4.17,1.35-4.62,1.35-2.49,0-3.24-2.43-3.24-3.66,0-2.37,3-3.75,7.8-3.9v-1.14c0-1.86-.93-3.03-2.46-3.03-2.16,0-3.45,.87-4.2,1.41l-.18-1.98c1.65-.96,3.09-1.2,4.41-1.2,2.7,0,4.71,1.95,4.71,4.77v8.49h-2.22Zm-.06-5.82c-.93,.03-5.61,.24-5.61,2.34,0,1.05,1.02,1.89,2.52,1.89,.42,0,1.41-.06,2.19-.57,.9-.54,.9-1.26,.9-1.8v-1.86Z"/><path d="M1541.55,25.65c-1.44,0-2.79-.63-3.78-1.59v7.2h-2.28V12.51h2.22v1.38c1.35-1.08,3.15-1.62,4.65-1.62,2.58,0,4.38,3.12,4.38,6.66,0,3.84-2.4,6.72-5.19,6.72Zm-.87-11.49c-1.65,0-2.67,1.14-2.91,1.5v5.91c0,.42,0,.87,.81,1.59,.6,.51,1.23,.66,1.83,.66,2.01,0,4.05-1.92,4.05-4.89,0-2.61-1.68-4.77-3.78-4.77Z"/><path d="M1556.07,25.65c-1.44,0-2.79-.63-3.78-1.59v7.2h-2.28V12.51h2.22v1.38c1.35-1.08,3.15-1.62,4.65-1.62,2.58,0,4.38,3.12,4.38,6.66,0,3.84-2.4,6.72-5.19,6.72Zm-.87-11.49c-1.65,0-2.67,1.14-2.91,1.5v5.91c0,.42,0,.87,.81,1.59,.6,.51,1.23,.66,1.83,.66,2.01,0,4.05-1.92,4.05-4.89,0-2.61-1.68-4.77-3.78-4.77Z"/><path d="M1566.09,18.84c.09,3.36,2.16,4.98,4.08,4.98,1.2,0,2.85-.39,4.29-1.56,0,.12,.09,1.11,.09,1.11,0,0,.09,.69,.09,.81-1.5,1.08-3.15,1.47-4.5,1.47-3.45,0-6.18-3.03-6.18-6.75s2.64-6.75,5.76-6.75c1.29,0,3,.48,4.05,2.19,.96,1.59,1.02,3.51,1.02,4.5h-8.7Zm3.63-4.86c-1.68,0-3,1.56-3.39,3.21h6.48c-.54-3.15-2.64-3.21-3.09-3.21Z"/><path d="M1585.56,25.41v-1.5c-.72,.63-2.1,1.74-4.17,1.74-2.67,0-4.8-2.97-4.8-6.69s2.16-6.69,4.89-6.69c1.68,0,3.21,.72,4.14,1.5V4.59h2.22V25.41h-2.28Zm0-9.87c-.63-.9-1.53-1.44-2.64-1.44-1.65,0-4.05,1.11-4.05,4.89s2.13,4.83,3.75,4.83c.69,0,1.41-.24,2.01-.75,.93-.81,.93-1.26,.93-1.68v-5.85Z"/><path d="M1614.84,25.41l-2.13-6.06h-8.04l-2.1,6.06h-2.28l7.29-20.82h2.58l7.29,20.82h-2.61Zm-4.8-13.95c-.51-1.53-1.11-3.33-1.32-4.56h-.03c-.21,1.35-2.01,6.57-3.45,10.77h6.9l-2.1-6.21Z"/><path d="M1620.48,25.41V4.59h2.22V25.41h-2.22Z"/><path d="M1627.05,8.49v-2.52h2.52v2.52h-2.52Zm.12,16.92V12.51h2.22v12.9h-2.22Z"/><path d="M1643.42,14.01c-.45,0-1.71,.09-1.8,.09h-.09c.27,.36,.93,1.41,.93,2.85,0,2.58-2.07,4.68-4.56,4.68-1.23,0-2.16-.51-2.61-.84,0,0-.3,.42-.3,1.02,0,1.53,1.2,1.53,1.65,1.53h2.43c1.26,0,5.85,.03,5.85,4.17,0,2.22-2.73,4.02-6.27,4.02s-6.24-1.8-6.24-3.99c0-.57,.21-2.04,1.77-3-.33-.42-.75-1.17-.75-2.22,0-.9,.3-1.71,.84-2.46-.06-.06-.96-1.29-.96-2.91,0-2.52,1.98-4.68,4.59-4.68,.69,0,1.71,.15,2.7,.93,1.2-.57,2.67-.9,4.38-.93l.33,1.86c-.84-.09-.93-.12-1.89-.12Zm-4.38,11.52h-2.43c-2.07,0-2.07,1.86-2.07,2.01,0,1.35,1.86,2.34,4.14,2.34s4.11-1.02,4.11-2.31c0-2.04-3.03-2.04-3.75-2.04Zm-1.17-11.61c-.78,0-2.43,.42-2.43,3.03,0,2.4,1.44,3.03,2.46,3.03,.78,0,2.43-.42,2.43-3.03,0-2.4-1.44-3.03-2.46-3.03Z"/><path d="M1655.72,25.41v-8.52c0-1.02-.09-2.79-2.73-2.79-2.04,0-2.76,2.16-2.76,4.05v7.26h-2.28V12.42h2.19v1.86c.84-1.02,2.1-2.01,4.02-2.01,3.39,0,3.84,2.49,3.84,4.38v8.76h-2.28Z"/><path d="M1678.07,25.41v-8.52c0-.87,0-2.79-2.73-2.79-2.13,0-2.79,2.28-2.79,4.05v7.26h-2.28v-8.52c0-.87,0-2.79-2.73-2.79-2.13,0-2.79,2.28-2.79,4.05v7.26h-2.28V12.42h2.19v1.86c.69-.84,1.98-2.01,4.02-2.01,1.8,0,3.06,.69,3.6,2.28,.6-.87,1.95-2.28,4.2-2.28,3.36,0,3.87,2.37,3.87,4.38v8.76h-2.28Z"/><path d="M1685.63,18.84c.09,3.36,2.16,4.98,4.08,4.98,1.2,0,2.85-.39,4.29-1.56,0,.12,.09,1.11,.09,1.11,0,0,.09,.69,.09,.81-1.5,1.08-3.15,1.47-4.5,1.47-3.45,0-6.18-3.03-6.18-6.75s2.64-6.75,5.76-6.75c1.29,0,3,.48,4.05,2.19,.96,1.59,1.02,3.51,1.02,4.5h-8.7Zm3.63-4.86c-1.68,0-3,1.56-3.39,3.21h6.48c-.54-3.15-2.64-3.21-3.09-3.21Z"/><path d="M1705.13,25.41v-8.52c0-1.02-.09-2.79-2.73-2.79-2.04,0-2.76,2.16-2.76,4.05v7.26h-2.28V12.42h2.19v1.86c.84-1.02,2.1-2.01,4.02-2.01,3.39,0,3.84,2.49,3.84,4.38v8.76h-2.28Z"/><path d="M1714.85,25.65c-1.98,0-2.37-2.1-2.37-3.81v-7.59h-2.31v-1.74h2.37v-3.69h2.13v3.69h3.9v1.74h-3.9v7.08c0,.75,.06,2.43,1.38,2.43,.93,0,1.8-.36,2.52-.99l.48,1.77c-1.32,.69-2.7,1.11-4.2,1.11Z"/></g><g><polyline class="cls-3" points="1389.1 427.52 1389.1 64.59 1752.03 64.59"/><path d="M1389.1,439.59c2.11-5.68,5.7-12.73,9.51-17.09l-9.51,3.44-9.51-3.44c3.81,4.37,7.4,11.42,9.51,17.09Z"/><path d="M1764.1,64.59c-5.68,2.11-12.73,5.7-17.09,9.51l3.44-9.51-3.44-9.51c4.37,3.81,11.42,7.4,17.09,9.51Z"/></g><line class="cls-1" x1="1535.47" y1="210.96" x2="1554.22" y2="229.71"/></svg>