<?xml version="1.0" encoding="UTF-8"?><svg id="Layer_1" xmlns="http://www.w3.org/2000/svg" viewBox="0 0 550 300"><defs><style>.cls-1,.cls-2,.cls-3{fill:none;}.cls-1,.cls-2,.cls-3,.cls-4,.cls-5{stroke:#010101;}.cls-1,.cls-2,.cls-4,.cls-5{stroke-linecap:round;stroke-linejoin:round;}.cls-1,.cls-4,.cls-5{stroke-width:.75px;}.cls-6{fill:#010101;}.cls-7{font-family:CMUSerif-UprightItalic, 'CMU Serif Upright Italic';}.cls-7,.cls-8,.cls-9{fill:#231f20;font-size:15px;}.cls-2{stroke-width:2px;}.cls-10{stroke:#231f20;}.cls-10,.cls-3{stroke-miterlimit:10;}.cls-10,.cls-5{fill:#fff;}.cls-8{font-family:CMUSerif-Bold, 'CMU Serif';}.cls-9{font-family:LMRoman10-BoldItalic, 'Latin Modern Roman';}.cls-4{fill:#bfbebe;}</style></defs><g><g><line class="cls-10" x1="430.66" y1="103.1" x2="530.66" y2="103.1"/><g><rect class="cls-4" x="430.66" y="91.98" width="7.69" height="7.05"/><rect class="cls-4" x="439.9" y="70.83" width="7.69" height="28.2"/><rect class="cls-4" x="449.13" y="42.63" width="7.69" height="56.4"/><rect class="cls-4" x="458.36" y="23.84" width="7.69" height="75.19"/><rect class="cls-4" x="467.59" y="23.84" width="7.69" height="75.19"/><rect class="cls-4" x="476.82" y="38.87" width="7.69" height="60.15"/><rect class="cls-4" x="486.05" y="58.93" width="7.69" height="40.1"/><rect class="cls-4" x="495.28" y="76.11" width="7.69" height="22.92"/><rect class="cls-4" x="504.51" y="87.57" width="7.69" height="11.46"/><rect class="cls-4" x="513.74" y="93.94" width="7.69" height="5.09"/><rect class="cls-4" x="522.97" y="96.99" width="7.69" height="2.04"/></g></g><g><line class="cls-3" x1="46.48" y1="75.19" x2="198.07" y2="75.19"/><path class="cls-6" d="M204.1,75.19c-2.84,1.05-6.36,2.85-8.55,4.76l1.72-4.76-1.72-4.75c2.18,1.9,5.71,3.7,8.55,4.75Z"/></g><g><line class="cls-3" x1="264.43" y1="75.66" x2="423.79" y2="75.66"/><path class="cls-6" d="M429.83,75.66c-2.84,1.05-6.36,2.85-8.55,4.76l1.72-4.76-1.72-4.75c2.18,1.9,5.71,3.7,8.55,4.75Z"/></g><g><rect class="cls-5" x="22.54" y="65.66" width="20" height="20"/><text class="cls-7" transform="translate(29.17 80.32)"><tspan x="0" y="0">λ</tspan></text></g><g><circle class="cls-5" cx="233.96" cy="75.19" r="25"/><text class="cls-9" transform="translate(217.3 80.32)"><tspan x="0" y="0">Pois</tspan></text></g></g><g><g><line class="cls-10" x1="198.23" y1="250.63" x2="298.23" y2="250.63"/><path class="cls-2" d="M198.23,244.86c1.77-21.35,2.3-43.25,7.84-64.04,3.22-10.46,7.72-5.95,11.52,1.12,21.25,42.81,27.98,61.75,80.64,62.41"/></g><g><line class="cls-10" x1="430.66" y1="250.63" x2="530.66" y2="250.63"/><g><rect class="cls-4" x="430.66" y="216.7" width="7.69" height="30.08"/><rect class="cls-4" x="439.9" y="186.62" width="7.69" height="60.15"/><rect class="cls-4" x="449.13" y="171.58" width="7.69" height="75.19"/><rect class="cls-4" x="458.36" y="171.58" width="7.69" height="75.19"/><rect class="cls-4" x="467.59" y="180.98" width="7.69" height="65.79"/><rect class="cls-4" x="476.82" y="194.14" width="7.69" height="52.64"/><rect class="cls-4" x="486.05" y="207.3" width="7.69" height="39.48"/><rect class="cls-4" x="495.28" y="218.58" width="7.69" height="28.2"/><rect class="cls-4" x="504.51" y="227.39" width="7.69" height="19.39"/><rect class="cls-4" x="513.74" y="233.85" width="7.69" height="12.92"/><rect class="cls-4" x="522.97" y="238.38" width="7.69" height="8.4"/></g></g><g><rect class="cls-5" x="22.54" y="212.73" width="20" height="20"/><text class="cls-7" transform="translate(28.69 227.39)"><tspan x="0" y="0">θ</tspan></text></g><circle class="cls-5" cx="115.04" cy="222.73" r="25"/><g><line class="cls-3" x1="46.48" y1="222.73" x2="80.7" y2="222.73"/><path class="cls-6" d="M86.74,222.73c-2.84,1.05-6.36,2.85-8.55,4.76l1.72-4.76-1.72-4.75c2.18,1.9,5.71,3.7,8.55,4.75Z"/></g><g><line class="cls-3" x1="147.9" y1="223.19" x2="182.12" y2="223.19"/><path class="cls-6" d="M188.16,223.19c-2.84,1.05-6.36,2.85-8.55,4.76l1.72-4.76-1.72-4.75c2.18,1.9,5.71,3.7,8.55,4.75Z"/></g><text class="cls-7" transform="translate(216.04 227.86)"><tspan x="0" y="0">λ</tspan></text><text class="cls-9" transform="translate(109.8 227.86)"><tspan x="0" y="0">Γ</tspan></text><circle class="cls-5" cx="348.32" cy="222.73" r="25"/><g><line class="cls-3" x1="279.77" y1="222.73" x2="313.99" y2="222.73"/><path class="cls-6" d="M320.02,222.73c-2.84,1.05-6.36,2.85-8.55,4.76l1.72-4.76-1.72-4.75c2.18,1.9,5.71,3.7,8.55,4.75Z"/></g><g><line class="cls-3" x1="381.18" y1="223.19" x2="415.41" y2="223.19"/><path class="cls-6" d="M421.44,223.19c-2.84,1.05-6.36,2.85-8.55,4.76l1.72-4.76-1.72-4.75c2.18,1.9,5.71,3.7,8.55,4.75Z"/></g><text class="cls-9" transform="translate(331.66 227.86)"><tspan x="0" y="0">Pois</tspan></text><text class="cls-8" transform="translate(195.71 260.22) scale(.58)"><tspan x="0" y="0">0</tspan></text><rect class="cls-1" x="66.61" y="164.75" width="334.7" height="111.41" rx="15.63" ry="15.63"/></g></svg>