<?xml version="1.0" encoding="UTF-8"?><svg id="Layer_1" xmlns="http://www.w3.org/2000/svg" viewBox="0 0 254.51 363.93"><defs><style>.cls-1{fill:#bfbebe;}.cls-1,.cls-2,.cls-3,.cls-4,.cls-5,.cls-6,.cls-7,.cls-8{stroke-linecap:round;stroke-linejoin:round;}.cls-1,.cls-2,.cls-3,.cls-4,.cls-7,.cls-8{stroke:#010101;}.cls-2,.cls-3{fill:#010101;}.cls-9{fill:#e0536b;}.cls-10{fill:#3b93d0;}.cls-3{stroke-width:4px;}.cls-4,.cls-5,.cls-6{stroke-width:2px;}.cls-4,.cls-5,.cls-6,.cls-8{fill:none;}.cls-5{stroke:#e0536b;}.cls-6{stroke:#3b93d0;}.cls-11{font-family:CMUSerif-BoldItalic, 'CMU Serif';font-size:24px;}.cls-11,.cls-12,.cls-13,.cls-14{fill:#231f20;}.cls-12{font-family:Menlo-BoldItalic, Menlo;font-size:19px;}.cls-7{fill:#c7c8ca;}.cls-7,.cls-8{stroke-width:1.5px;}.cls-13{font-family:DINCondensed-Bold, 'DIN Condensed';font-size:50px;}.cls-14{font-family:MyriadPro-Regular, 'Myriad Pro';font-size:14px;}</style></defs><circle class="cls-7" cx="79.01" cy="136.66" r="49.5"/><rect class="cls-8" x="59.01" y=".75" width="40" height="40"/><g><rect class="cls-1" x="200.6" y="94.49" width="24.7" height="79.01"/><rect class="cls-1" x="229.31" y="120.82" width="24.7" height="52.67"/><line class="cls-1" x1="200.6" y1="178.83" x2="254.01" y2="178.83"/></g><text class="cls-14" transform="translate(208.38 192.17)"><tspan x="0" y="0">H</tspan></text><text class="cls-14" transform="translate(238.19 192.17)"><tspan x="0" y="0">T</tspan></text><text class="cls-11" transform="translate(68.41 31.25)"><tspan x="0" y="0">θ</tspan></text><text class="cls-11" transform="translate(92.44 318.38)"><tspan x="0" y="0">θ</tspan></text><text class="cls-11" transform="translate(107.58 311.33)"><tspan x="0" y="0">̂</tspan></text><text class="cls-13" transform="translate(59.96 154.19)"><tspan x="0" y="0">1$</tspan></text><g><polyline class="cls-6" points="179.01 161.38 79.23 161.38 79.05 214.4"/><path class="cls-10" d="M79.01,226.47c-2.09-5.69-5.66-12.75-9.45-17.13l9.5,3.47,9.52-3.41c-3.82,4.36-7.44,11.39-9.57,17.06Z"/></g><g><polyline class="cls-5" points="166.94 111.32 79.23 111.32 79.01 46.84"/><path class="cls-9" d="M179.01,111.32c-5.68-2.11-12.73-5.7-17.09-9.51l3.44,9.51-3.44,9.51c4.37-3.81,11.42-7.4,17.09-9.51Z"/></g><g><line class="cls-4" x1="4.88" y1="354.01" x2="9.19" y2="354.01"/><line class="cls-4" x1="13.39" y1="354.01" x2="17.7" y2="354.01"/><line class="cls-4" x1="21.89" y1="354.01" x2="26.2" y2="353.99"/><line class="cls-4" x1="30.39" y1="353.95" x2="34.7" y2="353.88"/><line class="cls-4" x1="38.89" y1="353.67" x2="43.21" y2="353.32"/><line class="cls-4" x1="47.32" y1="352.59" x2="51.79" y2="351.35"/><line class="cls-4" x1="55.48" y1="349.52" x2="60.64" y2="345.59"/><line class="cls-4" x1="63.4" y1="342.54" x2="69.72" y2="332.18"/><line class="cls-4" x1="71.52" y1="328.42" x2="78.61" y2="308.74"/><line class="cls-4" x1="79.88" y1="304.75" x2="87.26" y2="278.08"/><line class="cls-4" x1="88.42" y1="274.05" x2="95.72" y2="249.72"/><line class="cls-4" x1="97.45" y1="245.94" x2="103.7" y2="236.19"/><line class="cls-4" x1="106.25" y1="235.96" x2="111.91" y2="242.08"/><line class="cls-4" x1="113.95" y1="245.63" x2="121.22" y2="269.22"/><line class="cls-4" x1="122.36" y1="273.25" x2="129.82" y2="302.31"/><line class="cls-4" x1="130.98" y1="306.33" x2="138.2" y2="328.73"/><line class="cls-4" x1="139.87" y1="332.56" x2="146.31" y2="343.97"/><line class="cls-4" x1="149.04" y1="347.03" x2="154.15" y2="350.73"/><line class="cls-4" x1="157.91" y1="352.38" x2="162.3" y2="353.27"/><line class="cls-4" x1="166.45" y1="353.76" x2="170.76" y2="353.92"/><circle class="cls-3" cx="2.79" cy="354.01" r=".79"/><circle class="cls-3" cx="11.29" cy="354.01" r=".79"/><circle class="cls-3" cx="19.79" cy="354.01" r=".79"/><circle class="cls-3" cx="28.3" cy="353.99" r=".79"/><circle class="cls-3" cx="36.8" cy="353.84" r=".79"/><circle class="cls-3" cx="45.3" cy="353.16" r=".79"/><circle class="cls-3" cx="53.81" cy="350.79" r=".79"/><circle class="cls-3" cx="62.31" cy="344.32" r=".79"/><circle class="cls-3" cx="70.81" cy="330.39" r=".79"/><circle class="cls-3" cx="79.32" cy="306.77" r=".79"/><circle class="cls-3" cx="87.82" cy="276.06" r=".79"/><circle class="cls-3" cx="96.32" cy="247.71" r=".79"/><circle class="cls-3" cx="104.83" cy="234.42" r=".79"/><circle class="cls-3" cx="113.33" cy="243.62" r=".79"/><circle class="cls-3" cx="121.84" cy="271.22" r=".79"/><circle class="cls-3" cx="130.34" cy="304.34" r=".79"/><circle class="cls-3" cx="138.84" cy="330.73" r=".79"/><circle class="cls-3" cx="147.35" cy="345.8" r=".79"/><circle class="cls-3" cx="155.85" cy="351.96" r=".79"/><circle class="cls-3" cx="164.35" cy="353.69" r=".79"/><circle class="cls-3" cx="172.86" cy="353.99" r=".79"/><line class="cls-2" x1="172.86" y1="363.43" x2="2.79" y2="363.43"/></g><text class="cls-12" transform="translate(131.39 99.53)"><tspan x="0" y="0">rcoin</tspan></text><text class="cls-12" transform="translate(14.52 203.73)"><tspan x="0" y="0">lcoin</tspan></text></svg>